<svg width="820" height="144" viewBox="0 0 820 144" fill="none" xmlns="http://www.w3.org/2000/svg">
<path d="M213.138 14.948C213.149 12.362 212.981 9.839 213.783 7.397L214.402 7.444C215.839 11.979 215.538 18.014 215.471 22.818C220.545 23.685 218.1 27.707 219.283 32.165C222.877 29.89 220.445 28.79 222.7 27.592C224.671 29.609 223.719 51.01 223.962 55.104C228.133 59.569 253.247 82.894 254.765 85.932C259.487 87.551 277.049 84.58 280.144 86.505C280.595 88.424 280.499 88.685 280.302 90.696C292.668 90.532 305.036 90.513 317.403 90.637C318.747 93.149 317.063 93.774 318.726 95.098C320.465 95.311 321.317 95.062 322.201 96.127C322.976 101.364 322.454 123.387 322.467 130.022L319.835 130.046C307.095 129.827 294.268 130.207 281.519 130.044C278.469 130.005 275.47 130.142 272.43 129.773L269.935 130.127C267.76 130.039 266.733 129.946 264.536 130.329L264.971 130.786L262.267 130.121L256.302 130.048C258.95 131.943 270.994 132.028 274.464 131.849L275.186 132.57C271.095 132.997 254.265 132.766 249.403 132.701C229.251 132.43 207.699 133.158 187.664 132.536C183.969 132.934 172.254 132.661 168.113 132.67L125.119 132.622C87.796 132.524 50.426 132.682 13.101 132.605C11.341 132.601 8.498 132.566 7 131.732L7.317 130.853C10.232 129.339 22.812 130.032 26.711 130.018L70.38 129.972L93.181 129.963C97.299 129.964 103.134 129.698 107.029 130.355C106.721 124.07 106.604 101.561 107.15 95.817C108.292 94.571 108.966 95.67 111.65 94.858C112.186 93.755 112.138 92.966 112.22 91.749C114.713 89.557 142.404 91.964 147.475 90.747C149.863 90.174 148.095 88.589 149 86.701L150.207 86.669C154.677 86.041 168.172 86.457 173.176 86.503C183.363 76.559 195.428 65.789 205.039 55.655C205.123 48.054 204.93 40.484 204.915 32.889C204.909 30.156 204.585 28.731 206.379 26.943C208.216 27.991 207.309 30.021 209.204 31.206L210.084 30.829C210.746 29.125 210.214 26.224 210.506 23.721C211.418 22.423 210.928 22.827 212.881 22.44C212.95 20.882 213.306 18.665 212.476 17.507C209.988 16.993 209.09 17.551 207.526 16.49L207.403 15.266C208.955 14.456 211.137 14.889 213.138 14.948Z" fill="#B31FDF"/>
<path d="M107.029 130.355C106.721 124.07 106.604 101.561 107.15 95.817C108.292 94.571 108.966 95.67 111.65 94.858C112.186 93.755 112.138 92.966 112.22 91.749C114.713 89.557 142.404 91.964 147.475 90.747C149.863 90.174 148.095 88.589 149 86.701L150.207 86.669C151.308 88.161 150.852 87.974 152.349 88.623C169.579 90.108 191.1 89.205 208.652 89.044L207.684 94.006C200.119 94.085 189.183 93.88 181.909 94.564C181.982 96.109 182.015 97.938 182.189 99.448C182.681 101.053 182.697 100.291 182.275 101.811C181.487 107.891 181.94 123.332 182.019 130.173L184.116 130.025C185.924 130.019 188.1 129.889 189.81 130.314C189.951 131.222 189.999 131.08 189.902 131.971L187.664 132.536C183.969 132.934 172.254 132.661 168.113 132.67L125.119 132.622C87.796 132.524 50.426 132.682 13.101 132.605C11.341 132.601 8.498 132.566 7 131.732L7.317 130.853C10.232 129.339 22.812 130.032 26.711 130.018L70.38 129.972L93.181 129.963C97.299 129.964 103.134 129.698 107.029 130.355Z" fill="white"/>
<path d="M166.779 94.962C172.11 94.288 176.567 92.437 175.719 99.404L182.189 99.448C182.681 101.053 182.697 100.291 182.275 101.811C181.487 107.891 181.94 123.332 182.019 130.173C179.684 129.9 177.931 130.042 175.594 130.154L173.375 130.119C171.833 129.968 168.531 130.033 166.853 130.021C166.864 127.065 166.858 124.11 166.835 121.154C167.128 113.662 166.966 104.671 166.999 97.075L173.098 96.549L174.04 95.433C173.088 94.798 168.573 95.191 166.779 94.962Z" fill="white"/>
<path d="M175.719 99.404L182.189 99.448C182.681 101.053 182.697 100.291 182.275 101.811C181.487 107.891 181.94 123.332 182.019 130.173C179.684 129.9 177.931 130.042 175.594 130.154C175.7 121.83 176.196 110.032 175.734 101.943C175.255 100.293 175.278 101.109 175.719 99.404Z" fill="white"/>
<path d="M175.719 99.404L182.189 99.448C182.681 101.053 182.697 100.291 182.275 101.811L175.734 101.943C175.255 100.293 175.278 101.109 175.719 99.404Z" fill="#B31FDF"/>
<path d="M166.779 94.962C172.11 94.288 176.567 92.437 175.719 99.404C175.278 101.109 175.255 100.293 175.734 101.943C176.196 110.032 175.7 121.83 175.594 130.154L173.375 130.119C172.73 119.374 173.693 107.592 173.098 96.549L174.04 95.433C173.088 94.798 168.573 95.191 166.779 94.962Z" fill="#B31FDF"/>
<path d="M164.464 125.149L164.882 125.589C164.943 127.296 164.937 127.456 165.459 129.06C165.597 127.227 165.736 122.393 166.835 121.154C166.858 124.11 166.864 127.065 166.853 130.021C168.531 130.033 171.833 129.968 173.375 130.119L175.594 130.154C177.931 130.042 179.684 129.9 182.019 130.173L184.116 130.025C185.924 130.019 188.1 129.889 189.81 130.314C189.951 131.222 189.999 131.08 189.902 131.971L187.664 132.536C183.969 132.934 172.254 132.661 168.113 132.67L125.119 132.622C87.796 132.524 50.426 132.682 13.101 132.605C11.341 132.601 8.498 132.566 7 131.732L7.317 130.853C10.232 129.339 22.812 130.032 26.711 130.018L70.38 129.972L93.181 129.963C97.299 129.964 103.134 129.698 107.029 130.355C107.975 130.449 108.659 130.609 109.557 130.314C114.876 129.681 152.571 129.383 157.05 130.35L158.996 130.327C160.509 130.183 162.018 130.011 163.525 129.814C164.697 128.315 164.338 127.392 164.464 125.149Z" fill="#B31FDF"/>
<path d="M156.57 96.647C156.758 95.038 156.925 93.844 157.251 92.259C159.921 90.737 163.075 91.052 165.897 92.209C166.596 92.496 166.628 94.142 166.779 94.962C168.573 95.191 173.088 94.798 174.04 95.433L173.098 96.549L166.999 97.075C166.966 104.671 167.128 113.662 166.835 121.154C165.736 122.393 165.597 127.227 165.459 129.06C164.937 127.456 164.943 127.296 164.882 125.589L164.464 125.149C164.338 127.392 164.697 128.315 163.525 129.814C162.018 130.011 160.509 130.183 158.996 130.327L157.05 130.35C156.511 121.693 156.913 107.976 156.893 99.001C156.335 97.987 156.47 97.802 156.57 96.647Z" fill="#B31FDF"/>
<path d="M158.996 130.327C159.035 125.036 158.971 97.953 159.672 94.762L160.734 94.282C162.095 94.352 163.102 94.24 164.222 94.968C164.905 100.66 164.309 117.934 164.464 125.149C164.338 127.392 164.697 128.315 163.525 129.814C162.018 130.011 160.509 130.183 158.996 130.327Z" fill="white"/>
<path d="M107.029 130.355C106.721 124.07 106.604 101.561 107.15 95.817C108.292 94.571 108.966 95.67 111.65 94.858C112.186 93.755 112.138 92.966 112.22 91.749C114.713 89.557 142.404 91.964 147.475 90.747C149.863 90.174 148.095 88.589 149 86.701L150.207 86.669C151.308 88.161 150.852 87.974 152.349 88.623C149.895 91.136 152.831 93.303 148.925 93.549C141.039 94.044 132.372 93.162 124.53 93.46C119 93.67 115.618 91.706 114.037 96.871C112.482 98.124 111.961 97.679 109.512 97.478L109.557 130.314C108.659 130.609 107.975 130.449 107.029 130.355Z" fill="#B31FDF"/>
<path d="M156.893 99.001C151.34 99.012 122.301 99.554 119.145 98.217C119.219 98.136 119.286 98.045 119.369 97.973C122.619 95.139 150.673 96.321 156.57 96.647C156.47 97.802 156.335 97.987 156.893 99.001Z" fill="#B31FDF"/>
<path d="M131.769 103.104C135.749 104.252 134.513 108.881 134.289 112.323C133.407 112.194 132.894 112.007 132.045 111.745C130.634 109.144 131.405 106.084 131.769 103.104Z" fill="#B31FDF"/>
<path d="M131.585 117.131C133.231 117.549 132.928 117.226 133.974 118.276C134.78 120.539 134.221 123.824 133.986 126.313C132.24 125.956 132.721 126.31 131.661 125.162C130.925 122.933 131.403 119.573 131.585 117.131Z" fill="#B31FDF"/>
<path d="M141.52 117.331C143.977 118.764 143.386 124.713 141.694 126.641C141.268 126.338 140.712 125.816 140.323 125.474C139.776 122.743 139.19 119.169 141.52 117.331Z" fill="#B31FDF"/>
<path d="M140.818 103.359C141.848 103.799 141.835 103.933 142.605 104.782C143.366 107.488 143.297 109.923 142.34 112.576C141.119 112.148 141.087 112.253 140.316 111.252C139.547 108.443 139.773 106.075 140.818 103.359Z" fill="#B31FDF"/>
<path d="M122.779 117.165C123.906 117.373 124.228 117.297 125.026 118.095C125.867 120.227 125.43 123.49 125.276 125.878C123.814 126.167 124.46 126.297 123.254 125.609C122.5 123.455 122.747 119.6 122.779 117.165Z" fill="#B31FDF"/>
<path d="M123.455 103.17C124.419 103.432 124.385 103.546 125.097 104.283C125.811 106.791 125.415 109.735 125.233 112.381C123.624 112.009 124.261 112.39 123.148 111.396C122.322 108.485 122.776 106.083 123.455 103.17Z" fill="#B31FDF"/>
<path d="M149.274 103.601C150.808 103.959 150.214 103.581 151.221 104.577C151.934 107.026 151.553 109.998 151.39 112.596C147.518 110.769 148.786 107.412 149.274 103.601Z" fill="#B31FDF"/>
<path d="M149.943 117.237C150.281 117.422 150.847 117.905 151.175 118.163C151.698 120.589 151.92 124.351 151.098 126.708C148.195 124.928 148.362 119.733 149.943 117.237Z" fill="#B31FDF"/>
<path d="M247.407 99.028C247.362 97.325 247.26 96.469 246.986 94.784C243.28 91.709 223.872 97.171 220.278 91.928C220.296 90.353 220.066 90.663 220.786 89.509C224.378 88.799 246.726 89.072 251.434 89.066C258.413 89.057 270.953 88.352 277.617 88.641L278.161 89.258C278.19 90.864 278.004 91.838 278.875 93.202L281.599 92.702C278.506 91.879 279.054 91.951 279.118 88.912L279.443 88.909C279.883 89.667 279.987 89.879 280.302 90.696C292.668 90.532 305.036 90.513 317.403 90.637C318.747 93.149 317.063 93.774 318.726 95.098C320.465 95.311 321.317 95.062 322.201 96.127C322.976 101.364 322.454 123.387 322.467 130.022L319.835 130.046C307.095 129.827 294.268 130.207 281.519 130.044C278.469 130.005 275.47 130.142 272.43 129.773L269.935 130.127C267.76 130.039 266.733 129.946 264.536 130.329L264.971 130.786L262.267 130.121L256.302 130.048L256.086 129.97L253.601 130.148C253.318 122.654 253.256 113.158 253.519 105.676L253.425 101.676L247.408 101.503L247.407 99.028Z" fill="white"/>
<path d="M252.997 94.793C254.665 94.474 260.31 94.457 262.623 94.301C266.438 98.608 262.976 122.533 264.536 130.329L264.971 130.786L262.267 130.121L256.302 130.048L256.086 129.97L253.601 130.148C253.318 122.654 253.256 113.158 253.519 105.676L253.425 101.676C253.567 100.236 253.871 98.903 253.277 97.618L252.997 94.793Z" fill="white"/>
<path d="M252.997 94.793C254.665 94.474 260.31 94.457 262.623 94.301C266.438 98.608 262.976 122.533 264.536 130.329L264.971 130.786L262.267 130.121C261.99 118.999 261.901 107.872 262 96.746L256.175 96.597C256.114 98.358 255.998 100.267 256.073 102.015L254.35 102.517L254.225 103.14C254.038 104.051 253.799 104.794 253.519 105.676L253.425 101.676C253.567 100.236 253.871 98.903 253.277 97.618L252.997 94.793Z" fill="#B31FDF"/>
<path d="M253.519 105.676C253.799 104.794 254.038 104.051 254.225 103.14L254.35 102.517L256.073 102.015C256.409 110.836 256.323 121.082 256.086 129.97L253.601 130.148C253.318 122.654 253.256 113.158 253.519 105.676Z" fill="#B31FDF"/>
<path d="M262.623 94.301L263.043 92.599C265.131 91.381 269.889 90.859 272.102 92.042C272.717 93.736 272.439 95.381 273.086 96.614C273.085 98.348 273.324 97.963 272.564 99.288L272.357 100.154C272.628 108.803 272.67 121.009 272.43 129.773L269.935 130.127C267.76 130.039 266.733 129.946 264.536 130.329C262.976 122.533 266.438 98.608 262.623 94.301Z" fill="white"/>
<path d="M262.623 94.301L263.043 92.599C265.131 91.381 269.889 90.859 272.102 92.042C272.717 93.736 272.439 95.381 273.086 96.614C273.085 98.348 273.324 97.963 272.564 99.288L272.357 100.154C272.628 108.803 272.67 121.009 272.43 129.773L269.935 130.127L269.92 97.576C269.849 95.629 270.2 95.625 269.198 94.583C267.446 94.501 266.919 94.345 265.344 94.971C263.835 100.439 265.87 123.469 264.536 130.329C262.976 122.533 266.438 98.608 262.623 94.301Z" fill="#B31FDF"/>
<path d="M317.403 90.637C318.747 93.149 317.063 93.774 318.726 95.098C320.465 95.311 321.317 95.062 322.201 96.127C322.976 101.364 322.454 123.387 322.467 130.022L319.835 130.046C319.612 124.837 319.925 101.527 319.05 98.088C318.071 97.869 317.161 97.617 316.196 97.353C315.14 95.929 315.496 95.294 315.465 93.229C316.141 91.728 316.16 91.672 317.403 90.637Z" fill="#B31FDF"/>
<path d="M278.875 93.202L281.599 92.702C278.506 91.879 279.054 91.951 279.118 88.912L279.443 88.909C279.883 89.667 279.987 89.879 280.302 90.696C292.668 90.532 305.036 90.513 317.403 90.637C316.16 91.672 316.141 91.728 315.465 93.229C304.224 93.373 289.934 93.814 278.875 93.202Z" fill="#B31FDF"/>
<path d="M273.086 96.614C278.974 96.452 305.545 95.805 309.777 96.936L310.115 97.804C307.552 100.219 304.19 98.82 300.923 99.158C293.293 99.947 279.673 97.858 272.564 99.288C273.324 97.963 273.085 98.348 273.086 96.614Z" fill="#B31FDF"/>
<path d="M253.277 97.618C253.871 98.903 253.567 100.236 253.425 101.676L247.408 101.503L247.407 99.028C249.477 99.109 250.773 99.288 252.793 98.765L253.277 97.618Z" fill="#B31FDF"/>
<path d="M287.268 117.141L288.497 117.844C289.621 120.532 289.612 124.312 287.76 126.637L286.39 125.632C285.375 122.759 285.044 119.405 287.268 117.141Z" fill="#B31FDF"/>
<path d="M295.148 117.143C296.869 117.484 296.43 117.157 297.594 118.213C298.409 120.528 297.907 123.836 297.707 126.376C295.91 125.965 296.488 126.335 295.214 125.122C294.388 122.735 294.908 119.726 295.148 117.143Z" fill="#B31FDF"/>
<path d="M295.354 103.603C296.508 103.81 296.719 103.726 297.555 104.545C298.442 106.775 298.005 110.019 297.859 112.508C296.587 112.38 296.554 112.451 295.427 111.747C294.284 108.993 294.952 106.601 295.354 103.603Z" fill="#B31FDF"/>
<path d="M286.352 103.616C287.619 103.85 287.732 103.755 288.63 104.704C289.447 107.024 289.075 110.235 288.956 112.771C284.296 111.247 285.786 108.063 286.352 103.616Z" fill="#B31FDF"/>
<path d="M304.802 117.142C305.773 117.522 305.499 117.411 306.345 118.072C307.143 120.959 307.003 123.571 306.327 126.464C302.53 125.532 303.24 119.475 304.802 117.142Z" fill="#B31FDF"/>
<path d="M277.201 117.622C278.371 117.703 278.686 117.587 279.58 118.316C280.611 120.963 280.025 123.529 279.504 126.281C277.801 125.977 278.495 126.345 277.28 125.284C276.542 122.99 277.002 120.107 277.201 117.622Z" fill="#B31FDF"/>
<path d="M304.251 103.591C307.768 104.49 306.592 109.854 306.459 112.994C305.275 112.49 305.292 112.51 304.297 111.699C303.247 108.599 303.801 106.826 304.251 103.591Z" fill="#B31FDF"/>
<path d="M277.734 103.605C281.004 104.719 280.353 110.03 279.343 112.565C278.413 112.274 278.3 112.158 277.459 111.643C276.793 109.209 277.406 106.176 277.734 103.605Z" fill="#B31FDF"/>
<path d="M211.33 89.579L217.313 90.025L219.329 96.583C227.772 96.531 236.449 96.581 244.872 96.417C244.876 104.839 244.427 121.837 245.215 129.591C243.649 130.251 240.387 130.038 238.508 130.031C238.579 126.244 238.486 122.229 238.463 118.423L228.253 118.501L190.46 118.489L190.469 125.168C190.351 126.503 190.211 129.154 189.81 130.314C188.1 129.889 185.924 130.019 184.116 130.025L182.019 130.173C181.94 123.332 181.487 107.891 182.275 101.811C182.697 100.291 182.681 101.053 182.189 99.448C182.015 97.938 181.982 96.109 181.909 94.564L183.383 96.567L184.18 96.688C190.403 96.294 203.381 96.525 209.723 96.898C210.192 94.615 210.7 91.775 211.33 89.579Z" fill="white"/>
<path d="M181.909 94.564L183.383 96.567L184.18 96.688C184.804 101.217 184.533 124.947 184.116 130.025L182.019 130.173C181.94 123.332 181.487 107.891 182.275 101.811C182.697 100.291 182.681 101.053 182.189 99.448C182.015 97.938 181.982 96.109 181.909 94.564Z" fill="#B31FDF"/>
<path d="M190.46 118.489L228.253 118.501C230.58 120.785 231.58 119.636 232.805 120.338C231.692 120.557 230.39 120.549 229.944 121.269C228.651 123.36 229.591 127.172 229.476 130.001L227.043 130.028L220.387 130.048C220.383 126.959 220.223 123.623 220.134 120.514L217.92 120.561L210.993 120.485L208.533 120.555L202.033 120.395L199.453 120.788C197.559 120.819 194.546 120.686 192.877 121.291L192.487 121.94C192.28 123.744 191.619 127.662 191.9 129.199L191.514 129.289C191.138 127.689 191.032 127.221 190.944 125.593L190.469 125.168L190.46 118.489Z" fill="#B31FDF"/>
<path d="M220.134 120.514L226.997 120.555L227.043 130.028L220.387 130.048C220.383 126.959 220.223 123.623 220.134 120.514Z" fill="white"/>
<path d="M247.408 101.503L253.425 101.676L253.519 105.676C253.256 113.158 253.318 122.654 253.601 130.148C251.674 129.986 249.288 130.114 247.322 130.156C247.598 120.668 247.046 111.016 247.408 101.503Z" fill="white"/>
<path d="M208.533 120.555L210.993 120.485L217.92 120.561L220.134 120.514C220.223 123.623 220.383 126.959 220.387 130.048L217.955 130.126C215.869 129.996 213.106 130.093 210.969 130.113L208.603 130.064L208.533 120.555Z" fill="white"/>
<path d="M208.533 120.555L210.993 120.485L210.969 130.113L208.603 130.064L208.533 120.555Z" fill="#B31FDF"/>
<path d="M217.92 120.561L220.134 120.514C220.223 123.623 220.383 126.959 220.387 130.048L217.955 130.126C217.868 126.976 217.915 123.72 217.92 120.561Z" fill="#B31FDF"/>
<path d="M199.453 120.788L202.033 120.395L208.533 120.555L208.603 130.064L202.028 130.046L199.498 130.035L199.453 120.788Z" fill="white"/>
<path d="M199.453 120.788L202.033 120.395C202.109 123.653 202.225 126.786 202.028 130.046L199.498 130.035L199.453 120.788Z" fill="#B31FDF"/>
<path d="M192.487 121.94L192.877 121.291C194.546 120.686 197.559 120.819 199.453 120.788L199.498 130.035L192.628 130.003C192.771 126.784 192.861 125.108 192.487 121.94Z" fill="white"/>
<path d="M232.805 120.338C234.009 120.64 235.059 120.62 235.54 121.438C236.767 123.523 235.93 127.347 235.985 130.01L229.476 130.001C229.591 127.172 228.651 123.36 229.944 121.269C230.39 120.549 231.692 120.557 232.805 120.338Z" fill="white"/>
<path d="M209.518 51.123C211.121 51.029 215.774 50.654 217.087 50.888L216.679 51.425C216.136 55.556 216.804 57.879 219.664 60.999C227.357 69.39 235.037 78.503 242.797 86.76C230.855 87.277 217.701 86.869 205.67 86.821C200.105 86.798 191.485 87.063 186.239 86.705L191.626 80.461L189.576 79.251C187.317 81.693 185.042 84.371 182.837 86.881C180.993 86.975 178.416 86.789 176.515 86.71C183.558 79.649 201.727 63.163 207.439 55.992C207.337 54.153 207.001 52.821 207.987 51.372L209.518 51.123Z" fill="white"/>
<path d="M207.439 55.992C207.337 54.153 207.001 52.821 207.987 51.372L209.518 51.123C211.62 53.466 210.478 56.815 208.764 59.085C202.187 65.495 195.841 72.512 189.576 79.251C187.317 81.693 185.042 84.371 182.837 86.881C180.993 86.975 178.416 86.789 176.515 86.71C183.558 79.649 201.727 63.163 207.439 55.992Z" fill="white"/>
<path d="M209.518 51.123C211.121 51.029 215.774 50.654 217.087 50.888L216.679 51.425C214.53 51.561 214.375 51.218 212.847 52.382C212.203 54.544 212.655 55.729 212.451 57.9C207.391 63.773 197.149 74.961 191.626 80.461L189.576 79.251C195.841 72.512 202.187 65.495 208.764 59.085C210.478 56.815 211.62 53.466 209.518 51.123Z" fill="#B31FDF"/>
<path d="M219.363 50.831C220.15 51.437 220.65 51.535 220.899 52.488C222.534 58.742 227.747 62.309 232.106 66.636C238.878 73.359 246.429 79.723 252.557 87.05L246.154 86.826C241.106 80.587 235.221 74.406 229.776 68.469C226.421 64.811 222.525 61.193 219.616 57.164C218.286 55.321 218.925 52.927 219.363 50.831Z" fill="white"/>
<path d="M212.082 24.991L216.829 25.046C217.297 27.445 217.565 35.05 216.77 37.183C215.951 40.908 216.975 45.172 216.071 48.524C214.593 49.522 215.122 49.498 213.776 49.251C212.47 47.464 212.702 46.667 212.747 44.361L212.385 43.928C211.974 40.03 211.373 28.55 212.082 24.991Z" fill="#B31FDF"/>
<path d="M212.747 44.361C213.035 40.43 210.857 34.964 215.403 34.091C216.689 34.964 216.312 35.086 216.77 37.183C215.951 40.908 216.975 45.172 216.071 48.524C214.593 49.522 215.122 49.498 213.776 49.251C212.47 47.464 212.702 46.667 212.747 44.361Z" fill="white"/>
<path d="M208.15 44.0665C208.351 40.2134 206.831 34.8557 210.005 34C210.902 34.8557 210.639 34.9753 210.959 37.0307C210.387 40.6819 211.102 44.8614 210.471 48.147C209.439 49.1252 209.808 49.1017 208.869 48.8596C207.957 47.108 208.119 46.3268 208.15 44.0665Z" fill="white"/>
<path d="M212.082 24.991L216.829 25.046C216.412 27.794 217.272 29.375 214.927 31.372L213.901 31.263C212.915 30.247 212.625 29.966 212.464 28.594C212.326 27.394 212.199 26.193 212.082 24.991Z" fill="white"/>
<path d="M218.92 33.303C220.332 34.089 220.657 33.891 221.01 35.399C221.716 38.416 222.079 46.108 220.857 48.864L219.329 49.761C218.412 46.321 218.829 37.12 218.92 33.303Z" fill="white"/>
<path d="M561.14 82.728C563.322 77.22 568.252 60.866 575.273 61.424C580.557 64.319 574.387 78.063 572.733 82.59C576.388 82.586 599.003 81.055 598.803 84.86C595.903 85.928 575.872 85.429 571.489 85.46C568.644 92.682 565.771 99.732 561.847 106.434C560.935 107.991 559.953 109.615 559.168 111.235C561.765 122.973 565.486 129.392 578.684 129.82C586.47 130.073 594.227 129.984 602.015 129.984H643.631L779.91 130.006C783.945 130.022 804.929 129.25 806.994 130.511L807.177 132.322C803.302 134.728 601.433 130.846 582.782 132.507C575.37 133.167 563.896 130.059 560.565 122.736C559.064 119.434 558.076 117.28 557.066 113.669C552.978 118.068 549.085 122.558 544.175 126.055C532.161 134.61 514.825 140.873 508.673 122.613C505.43 125.412 501.399 129.194 497.62 131.035C475.193 141.96 476.803 124.169 483.138 109.773C479.968 110.134 476.8 110.582 473.612 110.515C463.656 121.873 456.21 125.887 440.571 124.545C438.435 129.365 435.875 133.088 430.773 135.147C419.246 139.799 417.963 126.7 416.565 119.106C416.708 118.248 418.439 115.607 419.411 115.094C419.513 120.556 419.291 127.801 423.502 131.884C429.459 137.661 436.13 128.704 438.415 123.805C420.299 112.88 441.819 100.342 442.022 117.84C442.033 119.365 442.023 120.891 441.991 122.417C449.075 122.418 468.231 120.504 470.255 109.121C470.797 106.073 467.517 102.161 471.817 98.826C473.546 97.264 474.922 94.95 477.15 97.045C478.67 101.491 477.698 103.594 476.18 107.849C478.27 107.557 483.71 106.414 485.161 107.292C486.8 111.87 476.23 128.635 483.701 131.247C496.709 135.181 508.256 119.089 514.618 110.179C518.019 105.416 526.471 103.015 528.437 109.141C530.788 116.461 516.656 124.484 512.601 126.598C515.914 129.863 518.503 131.828 523.471 131.637C536.533 131.134 549.468 120.137 556.657 109.916C557.32 100.524 558.491 94.792 560.448 85.488C556.411 85.497 540.793 85.737 537.955 85.193L537.478 84.211L537.83 83.249C540.701 82.321 557.131 82.601 561.14 82.728Z" fill="#B31FDF"/>
<path d="M521.493 107.973C523.401 107.969 523.858 107.794 525.302 108.85C527.958 113.989 519.229 120.066 515.475 122.421C514.318 122.985 514.067 123.213 512.764 123.122L512.105 122.304C511.331 117.022 516.879 110.293 521.493 107.973Z" fill="white"/>
<path d="M573.85 63.267C577.254 65.118 571.636 78.896 570.199 81.844C568.677 82.974 567.654 82.609 565.427 82.701C564.819 82.396 565.047 82.465 564.578 81.754C565.343 76.48 569.887 67.141 573.85 63.267Z" fill="white"/>
<path d="M563.428 85.361C565.392 85.368 566.335 85.318 568.295 85.7C567.99 88.723 563.862 97.128 562.406 100.231C561.393 102.456 560.958 102.988 559.524 104.854C560.591 97.676 561.29 92.284 563.428 85.361Z" fill="white"/>
<path d="M435.44 111.163C440.329 111.937 440.752 117.882 438.75 121.107C433.941 118.575 432.129 115.967 435.44 111.163Z" fill="white"/>
<path d="M474.723 99.289C475.145 99.672 475.209 99.949 475.503 100.49C475.319 103.374 474.177 105.167 472.616 107.486C470.422 104.013 472.506 102.077 474.723 99.289Z" fill="white"/>
<path d="M416.781 115.494C417.519 110.736 418.551 103.798 420.083 98.493C425.208 80.739 433.543 55.537 446.739 42.102C448.015 41 451.037 39.636 452.696 40.171C458.352 41.995 456.569 50.96 455.663 55.164C452.306 70.741 431.778 107.448 419.411 115.094C418.439 115.607 416.708 118.248 416.565 119.106C408.821 128.949 380.536 144.955 375.215 124.897C374.893 123.682 374.788 122.963 373.734 122.964L373.239 123.274L372.214 120.965C377.229 113.055 381.882 100.316 394.125 103.451C397.565 104.331 398.383 111.546 394.706 113.348C393.107 112.572 393.623 113.152 392.923 111.737C393.529 110.625 394.129 109.51 394.723 108.391C394.605 106.455 394.912 107.055 393.818 105.724C389.988 104.205 385.505 106.42 382.713 109.154C374.713 116.988 374.204 132.953 389.247 131.759C399.808 130.92 410.033 123.507 416.781 115.494Z" fill="#B31FDF"/>
<path d="M450.073 42.34C451.005 42.289 451.802 42.434 452.724 42.554C453.515 43.273 454.315 43.913 454.309 45.189C454.206 66.806 435.316 93.35 423.005 108.704L421.218 110.322L420.52 110.162C420.497 109.721 420.46 109.207 420.537 108.772C423.838 90.322 435.881 54.199 450.073 42.34Z" fill="white"/>
<path d="M322.467 130.022C339.4 130.078 359.546 133.431 372.214 120.965L373.239 123.274C369.383 126.93 364.602 130.106 359.363 131.324C354.371 132.486 348.675 132.612 343.533 132.64C321.321 132.761 299.103 132.643 276.89 132.678C276.35 132.679 275.73 132.614 275.186 132.57L274.464 131.849C270.994 132.028 258.95 131.943 256.302 130.048L262.267 130.121L264.971 130.786L264.536 130.329C266.733 129.946 267.76 130.039 269.935 130.127L272.43 129.773C275.47 130.142 278.469 130.005 281.519 130.044C294.268 130.207 307.095 129.827 319.835 130.046L322.467 130.022Z" fill="#B31FDF"/>
<path d="M605.168 58.68C617.845 59.447 606.338 64.895 608.127 66.675C613.335 71.856 615.359 77.398 605.533 77.986C603.572 78.103 599.536 76.715 599.695 74.265C601.228 73.996 601.557 74.572 603.196 75.474C605.671 77.275 609.412 75.873 610.084 72.593C609.247 68.372 604.485 68.452 601.031 68.072C603.385 66.583 607.836 64.42 608.194 61.628C605.955 59.639 603.138 61.147 600.662 61.765L599.977 60.991L600.435 59.99C602.124 59.011 603.247 58.983 605.168 58.68Z" fill="#B31FDF"/>
</svg>
