<svg width="822" height="245" viewBox="0 0 822 245" fill="none" xmlns="http://www.w3.org/2000/svg">
<path d="M214.138 25.948C214.149 23.362 213.981 20.839 214.783 18.397L215.402 18.444C216.839 22.979 216.538 29.014 216.471 33.818C221.545 34.685 219.1 38.707 220.283 43.165C223.877 40.89 221.445 39.79 223.7 38.592C225.671 40.609 224.719 62.01 224.962 66.104C229.133 70.569 254.247 93.894 255.765 96.932C260.487 98.551 278.049 95.58 281.144 97.505C281.595 99.424 281.499 99.685 281.302 101.696C293.668 101.532 306.036 101.513 318.403 101.637C319.747 104.149 318.063 104.774 319.726 106.098C321.465 106.311 322.317 106.062 323.201 107.127C323.976 112.364 323.454 134.387 323.467 141.022L320.835 141.046C308.095 140.827 295.268 141.207 282.519 141.044C279.469 141.005 276.47 141.142 273.43 140.773L270.935 141.127C268.76 141.039 267.733 140.946 265.536 141.329L265.971 141.786L263.267 141.121L257.302 141.048C259.95 142.943 271.994 143.028 275.464 142.849L276.186 143.57C272.095 143.997 255.265 143.766 250.403 143.701C230.251 143.43 208.699 144.158 188.664 143.536C184.969 143.934 173.254 143.661 169.113 143.67L126.119 143.622C88.796 143.524 51.426 143.682 14.101 143.605C12.341 143.601 9.498 143.566 8 142.732L8.317 141.853C11.232 140.339 23.812 141.032 27.711 141.018L71.38 140.972L94.181 140.963C98.299 140.964 104.134 140.698 108.029 141.355C107.721 135.07 107.604 112.561 108.15 106.817C109.292 105.571 109.966 106.67 112.65 105.858C113.186 104.755 113.138 103.966 113.22 102.749C115.713 100.557 143.404 102.964 148.475 101.747C150.863 101.174 149.095 99.589 150 97.701L151.207 97.669C155.677 97.041 169.172 97.457 174.176 97.503C184.363 87.559 196.428 76.789 206.039 66.655C206.123 59.054 205.93 51.484 205.915 43.889C205.909 41.156 205.585 39.731 207.379 37.943C209.216 38.991 208.309 41.021 210.204 42.206L211.084 41.829C211.746 40.125 211.214 37.224 211.506 34.721C212.418 33.423 211.928 33.827 213.881 33.44C213.95 31.882 214.306 29.665 213.476 28.507C210.988 27.993 210.09 28.551 208.526 27.49L208.403 26.266C209.955 25.456 212.137 25.889 214.138 25.948Z" fill="#B31FDF"/>
<path d="M108.029 141.355C107.721 135.07 107.604 112.561 108.15 106.817C109.292 105.571 109.966 106.67 112.65 105.858C113.186 104.755 113.138 103.966 113.22 102.749C115.713 100.557 143.404 102.964 148.475 101.747C150.863 101.174 149.095 99.589 150 97.701L151.207 97.669C152.308 99.161 151.852 98.974 153.349 99.623C170.579 101.108 192.1 100.205 209.652 100.044L208.684 105.006C201.119 105.085 190.183 104.88 182.909 105.564C182.982 107.109 183.015 108.938 183.189 110.448C183.681 112.053 183.697 111.291 183.275 112.811C182.487 118.891 182.94 134.332 183.019 141.173L185.116 141.025C186.924 141.019 189.1 140.889 190.81 141.314C190.951 142.222 190.999 142.08 190.902 142.971L188.664 143.536C184.969 143.934 173.254 143.661 169.113 143.67L126.119 143.622C88.796 143.524 51.426 143.682 14.101 143.605C12.341 143.601 9.498 143.566 8 142.732L8.317 141.853C11.232 140.339 23.812 141.032 27.711 141.018L71.38 140.972L94.181 140.963C98.299 140.964 104.134 140.698 108.029 141.355Z" fill="white"/>
<path d="M167.779 105.962C173.11 105.288 177.567 103.437 176.719 110.404L183.189 110.448C183.681 112.053 183.697 111.291 183.275 112.811C182.487 118.891 182.94 134.332 183.019 141.173C180.684 140.9 178.931 141.042 176.594 141.154L174.375 141.119C172.833 140.968 169.531 141.033 167.853 141.021C167.864 138.065 167.858 135.11 167.835 132.154C168.128 124.662 167.966 115.671 167.999 108.075L174.098 107.549L175.04 106.433C174.088 105.798 169.573 106.191 167.779 105.962Z" fill="white"/>
<path d="M176.719 110.404L183.189 110.448C183.681 112.053 183.697 111.291 183.275 112.811C182.487 118.891 182.94 134.332 183.019 141.173C180.684 140.9 178.931 141.042 176.594 141.154C176.7 132.83 177.196 121.032 176.734 112.943C176.255 111.293 176.278 112.109 176.719 110.404Z" fill="white"/>
<path d="M176.719 110.404L183.189 110.448C183.681 112.053 183.697 111.291 183.275 112.811L176.734 112.943C176.255 111.293 176.278 112.109 176.719 110.404Z" fill="#B31FDF"/>
<path d="M167.779 105.962C173.11 105.288 177.567 103.437 176.719 110.404C176.278 112.109 176.255 111.293 176.734 112.943C177.196 121.032 176.7 132.83 176.594 141.154L174.375 141.119C173.73 130.374 174.693 118.592 174.098 107.549L175.04 106.433C174.088 105.798 169.573 106.191 167.779 105.962Z" fill="#B31FDF"/>
<path d="M165.464 136.149L165.882 136.589C165.943 138.296 165.937 138.456 166.459 140.06C166.597 138.227 166.736 133.393 167.835 132.154C167.858 135.11 167.864 138.065 167.853 141.021C169.531 141.033 172.833 140.968 174.375 141.119L176.594 141.154C178.931 141.042 180.684 140.9 183.019 141.173L185.116 141.025C186.924 141.019 189.1 140.889 190.81 141.314C190.951 142.222 190.999 142.08 190.902 142.971L188.664 143.536C184.969 143.934 173.254 143.661 169.113 143.67L126.119 143.622C88.796 143.524 51.426 143.682 14.101 143.605C12.341 143.601 9.498 143.566 8 142.732L8.317 141.853C11.232 140.339 23.812 141.032 27.711 141.018L71.38 140.972L94.181 140.963C98.299 140.964 104.134 140.698 108.029 141.355C108.975 141.449 109.659 141.609 110.557 141.314C115.876 140.681 153.571 140.383 158.05 141.35L159.996 141.327C161.509 141.183 163.018 141.011 164.525 140.814C165.697 139.315 165.338 138.392 165.464 136.149Z" fill="#B31FDF"/>
<path d="M157.57 107.647C157.758 106.038 157.925 104.844 158.251 103.259C160.921 101.737 164.075 102.052 166.897 103.209C167.596 103.496 167.628 105.142 167.779 105.962C169.573 106.191 174.088 105.798 175.04 106.433L174.098 107.549L167.999 108.075C167.966 115.671 168.128 124.662 167.835 132.154C166.736 133.393 166.597 138.227 166.459 140.06C165.937 138.456 165.943 138.296 165.882 136.589L165.464 136.149C165.338 138.392 165.697 139.315 164.525 140.814C163.018 141.011 161.509 141.183 159.996 141.327L158.05 141.35C157.511 132.693 157.913 118.976 157.893 110.001C157.335 108.987 157.47 108.802 157.57 107.647Z" fill="#B31FDF"/>
<path d="M159.996 141.327C160.035 136.036 159.971 108.953 160.672 105.762L161.734 105.282C163.095 105.352 164.102 105.24 165.222 105.968C165.905 111.66 165.309 128.934 165.464 136.149C165.338 138.392 165.697 139.315 164.525 140.814C163.018 141.011 161.509 141.183 159.996 141.327Z" fill="white"/>
<path d="M108.029 141.355C107.721 135.07 107.604 112.561 108.15 106.817C109.292 105.571 109.966 106.67 112.65 105.858C113.186 104.755 113.138 103.966 113.22 102.749C115.713 100.557 143.404 102.964 148.475 101.747C150.863 101.174 149.095 99.589 150 97.701L151.207 97.669C152.308 99.161 151.852 98.974 153.349 99.623C150.895 102.136 153.831 104.303 149.925 104.549C142.039 105.044 133.372 104.162 125.53 104.46C120 104.67 116.618 102.706 115.037 107.871C113.482 109.124 112.961 108.679 110.512 108.478L110.557 141.314C109.659 141.609 108.975 141.449 108.029 141.355Z" fill="#B31FDF"/>
<path d="M157.893 110.001C152.34 110.012 123.301 110.554 120.145 109.217C120.219 109.136 120.286 109.045 120.369 108.973C123.619 106.139 151.673 107.321 157.57 107.647C157.47 108.802 157.335 108.987 157.893 110.001Z" fill="#B31FDF"/>
<path d="M132.769 114.104C136.749 115.252 135.513 119.881 135.289 123.323C134.407 123.194 133.894 123.007 133.045 122.745C131.634 120.144 132.405 117.084 132.769 114.104Z" fill="#B31FDF"/>
<path d="M132.585 128.131C134.231 128.549 133.928 128.226 134.974 129.276C135.78 131.539 135.221 134.824 134.986 137.313C133.24 136.956 133.721 137.31 132.661 136.162C131.925 133.933 132.403 130.573 132.585 128.131Z" fill="#B31FDF"/>
<path d="M142.52 128.331C144.977 129.764 144.386 135.713 142.694 137.641C142.268 137.338 141.712 136.816 141.323 136.474C140.776 133.743 140.19 130.169 142.52 128.331Z" fill="#B31FDF"/>
<path d="M141.818 114.359C142.848 114.799 142.835 114.933 143.605 115.782C144.366 118.488 144.297 120.923 143.34 123.576C142.119 123.148 142.087 123.253 141.316 122.252C140.547 119.443 140.773 117.075 141.818 114.359Z" fill="#B31FDF"/>
<path d="M123.779 128.165C124.906 128.373 125.228 128.297 126.026 129.095C126.867 131.227 126.43 134.49 126.276 136.878C124.814 137.167 125.46 137.297 124.254 136.609C123.5 134.455 123.747 130.6 123.779 128.165Z" fill="#B31FDF"/>
<path d="M124.455 114.17C125.419 114.432 125.385 114.546 126.097 115.283C126.811 117.791 126.415 120.735 126.233 123.381C124.624 123.009 125.261 123.39 124.148 122.396C123.322 119.485 123.776 117.083 124.455 114.17Z" fill="#B31FDF"/>
<path d="M150.274 114.601C151.808 114.959 151.214 114.581 152.221 115.577C152.934 118.026 152.553 120.998 152.39 123.596C148.518 121.769 149.786 118.412 150.274 114.601Z" fill="#B31FDF"/>
<path d="M150.943 128.237C151.281 128.422 151.847 128.905 152.175 129.163C152.698 131.589 152.92 135.351 152.098 137.708C149.195 135.928 149.362 130.733 150.943 128.237Z" fill="#B31FDF"/>
<path d="M248.407 110.028C248.362 108.325 248.26 107.469 247.986 105.784C244.28 102.709 224.872 108.171 221.278 102.928C221.296 101.353 221.066 101.663 221.786 100.509C225.378 99.799 247.726 100.072 252.434 100.066C259.413 100.057 271.953 99.352 278.617 99.641L279.161 100.258C279.19 101.864 279.004 102.838 279.875 104.202L282.599 103.702C279.506 102.879 280.054 102.951 280.118 99.912L280.443 99.909C280.883 100.667 280.987 100.879 281.302 101.696C293.668 101.532 306.036 101.513 318.403 101.637C319.747 104.149 318.063 104.774 319.726 106.098C321.465 106.311 322.317 106.062 323.201 107.127C323.976 112.364 323.454 134.387 323.467 141.022L320.835 141.046C308.095 140.827 295.268 141.207 282.519 141.044C279.469 141.005 276.47 141.142 273.43 140.773L270.935 141.127C268.76 141.039 267.733 140.946 265.536 141.329L265.971 141.786L263.267 141.121L257.302 141.048L257.086 140.97L254.601 141.148C254.318 133.654 254.256 124.158 254.519 116.676L254.425 112.676L248.408 112.503L248.407 110.028Z" fill="white"/>
<path d="M253.997 105.793C255.665 105.474 261.31 105.457 263.623 105.301C267.438 109.608 263.976 133.533 265.536 141.329L265.971 141.786L263.267 141.121L257.302 141.048L257.086 140.97L254.601 141.148C254.318 133.654 254.256 124.158 254.519 116.676L254.425 112.676C254.567 111.236 254.871 109.903 254.277 108.618L253.997 105.793Z" fill="white"/>
<path d="M253.997 105.793C255.665 105.474 261.31 105.457 263.623 105.301C267.438 109.608 263.976 133.533 265.536 141.329L265.971 141.786L263.267 141.121C262.99 129.999 262.901 118.872 263 107.746L257.175 107.597C257.114 109.358 256.998 111.267 257.073 113.015L255.35 113.517L255.225 114.14C255.038 115.051 254.799 115.794 254.519 116.676L254.425 112.676C254.567 111.236 254.871 109.903 254.277 108.618L253.997 105.793Z" fill="#B31FDF"/>
<path d="M254.519 116.676C254.799 115.794 255.038 115.051 255.225 114.14L255.35 113.517L257.073 113.015C257.409 121.836 257.323 132.082 257.086 140.97L254.601 141.148C254.318 133.654 254.256 124.158 254.519 116.676Z" fill="#B31FDF"/>
<path d="M263.623 105.301L264.043 103.599C266.131 102.381 270.889 101.859 273.102 103.042C273.717 104.736 273.439 106.381 274.086 107.614C274.085 109.348 274.324 108.963 273.564 110.288L273.357 111.154C273.628 119.803 273.67 132.009 273.43 140.773L270.935 141.127C268.76 141.039 267.733 140.946 265.536 141.329C263.976 133.533 267.438 109.608 263.623 105.301Z" fill="white"/>
<path d="M263.623 105.301L264.043 103.599C266.131 102.381 270.889 101.859 273.102 103.042C273.717 104.736 273.439 106.381 274.086 107.614C274.085 109.348 274.324 108.963 273.564 110.288L273.357 111.154C273.628 119.803 273.67 132.009 273.43 140.773L270.935 141.127L270.92 108.576C270.849 106.629 271.2 106.625 270.198 105.583C268.446 105.501 267.919 105.345 266.344 105.971C264.835 111.439 266.87 134.469 265.536 141.329C263.976 133.533 267.438 109.608 263.623 105.301Z" fill="#B31FDF"/>
<path d="M318.403 101.637C319.747 104.149 318.063 104.774 319.726 106.098C321.465 106.311 322.317 106.062 323.201 107.127C323.976 112.364 323.454 134.387 323.467 141.022L320.835 141.046C320.612 135.837 320.925 112.527 320.05 109.088C319.071 108.869 318.161 108.617 317.196 108.353C316.14 106.929 316.496 106.294 316.465 104.229C317.141 102.728 317.16 102.672 318.403 101.637Z" fill="#B31FDF"/>
<path d="M279.875 104.202L282.599 103.702C279.506 102.879 280.054 102.951 280.118 99.912L280.443 99.909C280.883 100.667 280.987 100.879 281.302 101.696C293.668 101.532 306.036 101.513 318.403 101.637C317.16 102.672 317.141 102.728 316.465 104.229C305.224 104.373 290.934 104.814 279.875 104.202Z" fill="#B31FDF"/>
<path d="M274.086 107.614C279.974 107.452 306.545 106.805 310.777 107.936L311.115 108.804C308.552 111.219 305.19 109.82 301.923 110.158C294.293 110.947 280.673 108.858 273.564 110.288C274.324 108.963 274.085 109.348 274.086 107.614Z" fill="#B31FDF"/>
<path d="M254.277 108.618C254.871 109.903 254.567 111.236 254.425 112.676L248.408 112.503L248.407 110.028C250.477 110.109 251.773 110.288 253.793 109.765L254.277 108.618Z" fill="#B31FDF"/>
<path d="M288.268 128.141L289.497 128.844C290.621 131.532 290.612 135.312 288.76 137.637L287.39 136.632C286.375 133.759 286.044 130.405 288.268 128.141Z" fill="#B31FDF"/>
<path d="M296.148 128.143C297.869 128.484 297.43 128.157 298.594 129.213C299.409 131.528 298.907 134.836 298.707 137.376C296.91 136.965 297.488 137.335 296.214 136.122C295.388 133.735 295.908 130.726 296.148 128.143Z" fill="#B31FDF"/>
<path d="M296.354 114.603C297.508 114.81 297.719 114.726 298.555 115.545C299.442 117.775 299.005 121.019 298.859 123.508C297.587 123.38 297.554 123.451 296.427 122.747C295.284 119.993 295.952 117.601 296.354 114.603Z" fill="#B31FDF"/>
<path d="M287.352 114.616C288.619 114.85 288.732 114.755 289.63 115.704C290.447 118.024 290.075 121.235 289.956 123.771C285.296 122.247 286.786 119.063 287.352 114.616Z" fill="#B31FDF"/>
<path d="M305.802 128.142C306.773 128.522 306.499 128.411 307.345 129.072C308.143 131.959 308.003 134.571 307.327 137.464C303.53 136.532 304.24 130.475 305.802 128.142Z" fill="#B31FDF"/>
<path d="M278.201 128.622C279.371 128.703 279.686 128.587 280.58 129.316C281.611 131.963 281.025 134.529 280.504 137.281C278.801 136.977 279.495 137.345 278.28 136.284C277.542 133.99 278.002 131.107 278.201 128.622Z" fill="#B31FDF"/>
<path d="M305.251 114.591C308.768 115.49 307.592 120.854 307.459 123.994C306.275 123.49 306.292 123.51 305.297 122.699C304.247 119.599 304.801 117.826 305.251 114.591Z" fill="#B31FDF"/>
<path d="M278.734 114.605C282.004 115.719 281.353 121.03 280.343 123.565C279.413 123.274 279.3 123.158 278.459 122.643C277.793 120.209 278.406 117.176 278.734 114.605Z" fill="#B31FDF"/>
<path d="M212.33 100.579L218.313 101.025L220.329 107.583C228.772 107.531 237.449 107.581 245.872 107.417C245.876 115.839 245.427 132.837 246.215 140.591C244.649 141.251 241.387 141.038 239.508 141.031C239.579 137.244 239.486 133.229 239.463 129.423L229.253 129.501L191.46 129.489L191.469 136.168C191.351 137.503 191.211 140.154 190.81 141.314C189.1 140.889 186.924 141.019 185.116 141.025L183.019 141.173C182.94 134.332 182.487 118.891 183.275 112.811C183.697 111.291 183.681 112.053 183.189 110.448C183.015 108.938 182.982 107.109 182.909 105.564L184.383 107.567L185.18 107.688C191.403 107.294 204.381 107.525 210.723 107.898C211.192 105.615 211.7 102.775 212.33 100.579Z" fill="white"/>
<path d="M182.909 105.564L184.383 107.567L185.18 107.688C185.804 112.217 185.533 135.947 185.116 141.025L183.019 141.173C182.94 134.332 182.487 118.891 183.275 112.811C183.697 111.291 183.681 112.053 183.189 110.448C183.015 108.938 182.982 107.109 182.909 105.564Z" fill="#B31FDF"/>
<path d="M191.46 129.489L229.253 129.501C231.58 131.785 232.58 130.636 233.805 131.338C232.692 131.557 231.39 131.549 230.944 132.269C229.651 134.36 230.591 138.172 230.476 141.001L228.043 141.028L221.387 141.048C221.383 137.959 221.223 134.623 221.134 131.514L218.92 131.561L211.993 131.485L209.533 131.555L203.033 131.395L200.453 131.788C198.559 131.819 195.546 131.686 193.877 132.291L193.487 132.94C193.28 134.744 192.619 138.662 192.9 140.199L192.514 140.289C192.138 138.689 192.032 138.221 191.944 136.593L191.469 136.168L191.46 129.489Z" fill="#B31FDF"/>
<path d="M221.134 131.514L227.997 131.555L228.043 141.028L221.387 141.048C221.383 137.959 221.223 134.623 221.134 131.514Z" fill="white"/>
<path d="M248.408 112.503L254.425 112.676L254.519 116.676C254.256 124.158 254.318 133.654 254.601 141.148C252.674 140.986 250.288 141.114 248.322 141.156C248.598 131.668 248.046 122.016 248.408 112.503Z" fill="white"/>
<path d="M209.533 131.555L211.993 131.485L218.92 131.561L221.134 131.514C221.223 134.623 221.383 137.959 221.387 141.048L218.955 141.126C216.869 140.996 214.106 141.093 211.969 141.113L209.603 141.064L209.533 131.555Z" fill="white"/>
<path d="M209.533 131.555L211.993 131.485L211.969 141.113L209.603 141.064L209.533 131.555Z" fill="#B31FDF"/>
<path d="M218.92 131.561L221.134 131.514C221.223 134.623 221.383 137.959 221.387 141.048L218.955 141.126C218.868 137.976 218.915 134.72 218.92 131.561Z" fill="#B31FDF"/>
<path d="M200.453 131.788L203.033 131.395L209.533 131.555L209.603 141.064L203.028 141.046L200.498 141.035L200.453 131.788Z" fill="white"/>
<path d="M200.453 131.788L203.033 131.395C203.109 134.653 203.225 137.786 203.028 141.046L200.498 141.035L200.453 131.788Z" fill="#B31FDF"/>
<path d="M193.487 132.94L193.877 132.291C195.546 131.686 198.559 131.819 200.453 131.788L200.498 141.035L193.628 141.003C193.771 137.784 193.861 136.108 193.487 132.94Z" fill="white"/>
<path d="M233.805 131.338C235.009 131.64 236.059 131.62 236.54 132.438C237.767 134.523 236.93 138.347 236.985 141.01L230.476 141.001C230.591 138.172 229.651 134.36 230.944 132.269C231.39 131.549 232.692 131.557 233.805 131.338Z" fill="white"/>
<path d="M210.518 62.123C212.121 62.029 216.774 61.654 218.087 61.888L217.679 62.425C217.136 66.556 217.804 68.879 220.664 71.999C228.357 80.39 236.037 89.503 243.797 97.76C231.855 98.277 218.701 97.869 206.67 97.821C201.105 97.798 192.485 98.063 187.239 97.705L192.626 91.461L190.576 90.251C188.317 92.693 186.042 95.371 183.837 97.881C181.993 97.975 179.416 97.789 177.515 97.71C184.558 90.649 202.727 74.163 208.439 66.992C208.337 65.153 208.001 63.821 208.987 62.372L210.518 62.123Z" fill="white"/>
<path d="M208.439 66.992C208.337 65.153 208.001 63.821 208.987 62.372L210.518 62.123C212.62 64.466 211.478 67.815 209.764 70.085C203.187 76.495 196.841 83.512 190.576 90.251C188.317 92.693 186.042 95.371 183.837 97.881C181.993 97.975 179.416 97.789 177.515 97.71C184.558 90.649 202.727 74.163 208.439 66.992Z" fill="white"/>
<path d="M210.518 62.123C212.121 62.029 216.774 61.654 218.087 61.888L217.679 62.425C215.53 62.561 215.375 62.218 213.847 63.382C213.203 65.544 213.655 66.729 213.451 68.9C208.391 74.773 198.149 85.961 192.626 91.461L190.576 90.251C196.841 83.512 203.187 76.495 209.764 70.085C211.478 67.815 212.62 64.466 210.518 62.123Z" fill="#B31FDF"/>
<path d="M220.363 61.831C221.15 62.437 221.65 62.535 221.899 63.488C223.534 69.742 228.747 73.309 233.106 77.636C239.878 84.359 247.429 90.723 253.557 98.05L247.154 97.826C242.106 91.587 236.221 85.406 230.776 79.469C227.421 75.811 223.525 72.193 220.616 68.164C219.286 66.321 219.925 63.927 220.363 61.831Z" fill="white"/>
<path d="M213.082 35.991L217.829 36.046C218.297 38.445 218.565 46.05 217.77 48.183C216.951 51.908 217.975 56.172 217.071 59.524C215.593 60.522 216.122 60.498 214.776 60.251C213.47 58.464 213.702 57.667 213.747 55.361L213.385 54.928C212.974 51.03 212.373 39.55 213.082 35.991Z" fill="#B31FDF"/>
<path d="M213.747 55.361C214.035 51.43 211.857 45.964 216.403 45.091C217.689 45.964 217.312 46.086 217.77 48.183C216.951 51.908 217.975 56.172 217.071 59.524C215.593 60.522 216.122 60.498 214.776 60.251C213.47 58.464 213.702 57.667 213.747 55.361Z" fill="white"/>
<path d="M209.15 55.0665C209.351 51.2134 207.831 45.8557 211.005 45C211.902 45.8557 211.639 45.9753 211.959 48.0307C211.387 51.6819 212.102 55.8614 211.471 59.147C210.439 60.1252 210.808 60.1017 209.869 59.8596C208.957 58.108 209.119 57.3268 209.15 55.0665Z" fill="white"/>
<path d="M213.082 35.991L217.829 36.046C217.412 38.794 218.272 40.375 215.927 42.372L214.901 42.263C213.915 41.247 213.625 40.966 213.464 39.594C213.326 38.394 213.199 37.193 213.082 35.991Z" fill="white"/>
<path d="M219.92 44.303C221.332 45.089 221.657 44.891 222.01 46.399C222.716 49.416 223.079 57.108 221.857 59.864L220.329 60.761C219.412 57.321 219.829 48.12 219.92 44.303Z" fill="white"/>
<path d="M562.14 93.728C564.322 88.22 569.252 71.866 576.273 72.424C581.557 75.319 575.387 89.063 573.733 93.59C577.388 93.586 600.003 92.055 599.803 95.86C596.903 96.928 576.872 96.429 572.489 96.46C569.644 103.682 566.771 110.732 562.847 117.434C561.935 118.991 560.953 120.615 560.168 122.235C562.765 133.973 566.486 140.392 579.684 140.82C587.47 141.073 595.227 140.984 603.015 140.984H644.631L780.91 141.006C784.945 141.022 805.929 140.25 807.994 141.511L808.177 143.322C804.302 145.728 602.433 141.846 583.782 143.507C576.37 144.167 564.896 141.059 561.565 133.736C560.064 130.434 559.076 128.28 558.066 124.669C553.978 129.068 550.085 133.558 545.175 137.055C533.161 145.61 515.825 151.873 509.673 133.613C506.43 136.412 502.399 140.194 498.62 142.035C476.193 152.96 477.803 135.169 484.138 120.773C480.968 121.134 477.8 121.582 474.612 121.515C464.656 132.873 457.21 136.887 441.571 135.545C439.435 140.365 436.875 144.088 431.773 146.147C420.246 150.799 418.963 137.7 417.565 130.106C417.708 129.248 419.439 126.607 420.411 126.094C420.513 131.556 420.291 138.801 424.502 142.884C430.459 148.661 437.13 139.704 439.415 134.805C421.299 123.88 442.819 111.342 443.022 128.84C443.033 130.365 443.023 131.891 442.991 133.417C450.075 133.418 469.231 131.504 471.255 120.121C471.797 117.073 468.517 113.161 472.817 109.826C474.546 108.264 475.922 105.95 478.15 108.045C479.67 112.491 478.698 114.594 477.18 118.849C479.27 118.557 484.71 117.414 486.161 118.292C487.8 122.87 477.23 139.635 484.701 142.247C497.709 146.181 509.256 130.089 515.618 121.179C519.019 116.416 527.471 114.015 529.437 120.141C531.788 127.461 517.656 135.484 513.601 137.598C516.914 140.863 519.503 142.828 524.471 142.637C537.533 142.134 550.468 131.137 557.657 120.916C558.32 111.524 559.491 105.792 561.448 96.488C557.411 96.497 541.793 96.737 538.955 96.193L538.478 95.211L538.83 94.249C541.701 93.321 558.131 93.601 562.14 93.728Z" fill="#B31FDF"/>
<path d="M522.493 118.973C524.401 118.969 524.858 118.794 526.302 119.85C528.958 124.989 520.229 131.066 516.475 133.421C515.318 133.985 515.067 134.213 513.764 134.122L513.105 133.304C512.331 128.022 517.879 121.293 522.493 118.973Z" fill="white"/>
<path d="M574.85 74.267C578.254 76.118 572.636 89.896 571.199 92.844C569.677 93.974 568.654 93.609 566.427 93.701C565.819 93.396 566.047 93.465 565.578 92.754C566.343 87.48 570.887 78.141 574.85 74.267Z" fill="white"/>
<path d="M564.428 96.361C566.392 96.368 567.335 96.318 569.295 96.7C568.99 99.723 564.862 108.128 563.406 111.231C562.393 113.456 561.958 113.988 560.524 115.854C561.591 108.676 562.29 103.284 564.428 96.361Z" fill="white"/>
<path d="M436.44 122.163C441.329 122.937 441.752 128.882 439.75 132.107C434.941 129.575 433.129 126.967 436.44 122.163Z" fill="white"/>
<path d="M475.723 110.289C476.145 110.672 476.209 110.949 476.503 111.49C476.319 114.374 475.177 116.167 473.616 118.486C471.422 115.013 473.506 113.077 475.723 110.289Z" fill="white"/>
<path d="M417.781 126.494C418.519 121.736 419.551 114.798 421.083 109.493C426.208 91.739 434.543 66.537 447.739 53.102C449.015 52 452.037 50.636 453.696 51.171C459.352 52.995 457.569 61.96 456.663 66.164C453.306 81.741 432.778 118.448 420.411 126.094C419.439 126.607 417.708 129.248 417.565 130.106C409.821 139.949 381.536 155.955 376.215 135.897C375.893 134.682 375.788 133.963 374.734 133.964L374.239 134.274L373.214 131.965C378.229 124.055 382.882 111.316 395.125 114.451C398.565 115.331 399.383 122.546 395.706 124.348C394.107 123.572 394.623 124.152 393.923 122.737C394.529 121.625 395.129 120.51 395.723 119.391C395.605 117.455 395.912 118.055 394.818 116.724C390.988 115.205 386.505 117.42 383.713 120.154C375.713 127.988 375.204 143.953 390.247 142.759C400.808 141.92 411.033 134.507 417.781 126.494Z" fill="#B31FDF"/>
<path d="M451.073 53.34C452.005 53.289 452.802 53.434 453.724 53.554C454.515 54.273 455.315 54.913 455.309 56.189C455.206 77.806 436.316 104.35 424.005 119.704L422.218 121.322L421.52 121.162C421.497 120.721 421.46 120.207 421.537 119.772C424.838 101.322 436.881 65.199 451.073 53.34Z" fill="white"/>
<path d="M323.467 141.022C340.4 141.078 360.546 144.431 373.214 131.965L374.239 134.274C370.383 137.93 365.602 141.106 360.363 142.324C355.371 143.486 349.675 143.612 344.533 143.64C322.321 143.761 300.103 143.643 277.89 143.678C277.35 143.679 276.73 143.614 276.186 143.57L275.464 142.849C271.994 143.028 259.95 142.943 257.302 141.048L263.267 141.121L265.971 141.786L265.536 141.329C267.733 140.946 268.76 141.039 270.935 141.127L273.43 140.773C276.47 141.142 279.469 141.005 282.519 141.044C295.268 141.207 308.095 140.827 320.835 141.046L323.467 141.022Z" fill="#B31FDF"/>
<path d="M606.168 69.68C618.845 70.447 607.338 75.895 609.127 77.675C614.335 82.856 616.359 88.398 606.533 88.986C604.572 89.103 600.536 87.715 600.695 85.265C602.228 84.996 602.557 85.572 604.196 86.474C606.671 88.275 610.412 86.873 611.084 83.593C610.247 79.372 605.485 79.452 602.031 79.072C604.385 77.583 608.836 75.42 609.194 72.628C606.955 70.639 604.138 72.147 601.662 72.765L600.977 71.991L601.435 70.99C603.124 70.011 604.247 69.983 606.168 69.68Z" fill="#B31FDF"/>
<path d="M95.9773 194H92.7727C92.5341 192.807 92.1023 191.705 91.4773 190.693C90.8636 189.67 90.0909 188.778 89.1591 188.017C88.2273 187.256 87.1705 186.665 85.9886 186.244C84.8068 185.824 83.5284 185.614 82.1534 185.614C79.9489 185.614 77.9375 186.187 76.1193 187.335C74.3125 188.483 72.8636 190.17 71.7727 192.398C70.6932 194.614 70.1534 197.33 70.1534 200.545C70.1534 203.784 70.6932 206.511 71.7727 208.727C72.8636 210.943 74.3125 212.625 76.1193 213.773C77.9375 214.909 79.9489 215.477 82.1534 215.477C83.5284 215.477 84.8068 215.267 85.9886 214.847C87.1705 214.426 88.2273 213.841 89.1591 213.091C90.0909 212.33 90.8636 211.437 91.4773 210.415C92.1023 209.392 92.5341 208.284 92.7727 207.091H95.9773C95.6932 208.693 95.1591 210.188 94.375 211.574C93.6023 212.949 92.6136 214.153 91.4091 215.188C90.2159 216.222 88.8409 217.028 87.2841 217.608C85.7273 218.187 84.017 218.477 82.1534 218.477C79.2216 218.477 76.6193 217.744 74.3466 216.278C72.0739 214.801 70.2898 212.722 68.9943 210.04C67.7102 207.358 67.0682 204.193 67.0682 200.545C67.0682 196.898 67.7102 193.733 68.9943 191.051C70.2898 188.369 72.0739 186.295 74.3466 184.83C76.6193 183.352 79.2216 182.614 82.1534 182.614C84.017 182.614 85.7273 182.903 87.2841 183.483C88.8409 184.051 90.2159 184.858 91.4091 185.903C92.6136 186.938 93.6023 188.142 94.375 189.517C95.1591 190.892 95.6932 192.386 95.9773 194ZM103.516 218H100.175L112.874 183.091H116.283L128.982 218H125.641L114.697 187.233H114.459L103.516 218ZM105.919 204.619H123.237V207.483H105.919V204.619ZM162.152 183.091V218H159.05L138.425 188.767H138.152V218H134.964V183.091H138.05L158.743 212.358H159.016V183.091H162.152ZM171.433 218V183.091H183.212C185.484 183.091 187.376 183.489 188.888 184.284C190.411 185.08 191.553 186.165 192.314 187.54C193.075 188.915 193.456 190.477 193.456 192.227C193.456 193.682 193.212 194.926 192.723 195.96C192.234 196.994 191.57 197.83 190.729 198.466C189.888 199.102 188.95 199.562 187.916 199.847V200.119C189.041 200.199 190.132 200.597 191.189 201.312C192.246 202.017 193.115 203.006 193.797 204.278C194.479 205.551 194.82 207.074 194.82 208.847C194.82 210.608 194.428 212.182 193.643 213.568C192.859 214.943 191.655 216.028 190.03 216.824C188.416 217.608 186.359 218 183.859 218H171.433ZM174.621 215.136H183.859C186.553 215.136 188.541 214.54 189.825 213.347C191.121 212.153 191.768 210.653 191.768 208.847C191.768 207.517 191.445 206.312 190.797 205.233C190.161 204.142 189.257 203.278 188.087 202.642C186.928 202.006 185.564 201.688 183.996 201.688H174.621V215.136ZM174.621 198.858H183.501C184.876 198.858 186.081 198.574 187.115 198.006C188.149 197.437 188.956 196.653 189.536 195.653C190.115 194.653 190.405 193.511 190.405 192.227C190.405 190.375 189.803 188.869 188.598 187.71C187.393 186.54 185.598 185.955 183.212 185.955H174.621V198.858ZM202.511 218V183.091H222.761V185.955H205.699V199.097H221.688V201.96H205.699V215.136H223.102V218H202.511ZM231.011 218V183.091H242.278C244.756 183.091 246.824 183.54 248.483 184.438C250.153 185.324 251.409 186.557 252.25 188.136C253.102 189.705 253.528 191.506 253.528 193.54C253.528 195.574 253.102 197.369 252.25 198.926C251.409 200.483 250.159 201.699 248.5 202.574C246.841 203.449 244.784 203.886 242.33 203.886H232.733V200.972H242.244C244.063 200.972 245.574 200.67 246.778 200.068C247.994 199.466 248.898 198.608 249.489 197.494C250.091 196.381 250.392 195.062 250.392 193.54C250.392 192.017 250.091 190.687 249.489 189.551C248.886 188.403 247.977 187.517 246.761 186.892C245.557 186.267 244.034 185.955 242.193 185.955H234.199V218H231.011ZM246.403 202.25L254.994 218H251.312L242.807 202.25H246.403ZM261.293 218V183.091H272.56C275.037 183.091 277.105 183.54 278.764 184.438C280.435 185.324 281.69 186.557 282.531 188.136C283.384 189.705 283.81 191.506 283.81 193.54C283.81 195.574 283.384 197.369 282.531 198.926C281.69 200.483 280.44 201.699 278.781 202.574C277.122 203.449 275.065 203.886 272.611 203.886H263.014V200.972H272.526C274.344 200.972 275.855 200.67 277.06 200.068C278.276 199.466 279.179 198.608 279.77 197.494C280.372 196.381 280.673 195.062 280.673 193.54C280.673 192.017 280.372 190.687 279.77 189.551C279.168 188.403 278.259 187.517 277.043 186.892C275.838 186.267 274.315 185.955 272.474 185.955H264.48V218H261.293ZM276.685 202.25L285.276 218H281.594L273.088 202.25H276.685ZM291.625 218H288.284L300.983 183.091H304.392L317.091 218H313.75L302.807 187.233H302.568L291.625 218ZM294.028 204.619H311.347V207.483H294.028V204.619ZM336.574 218V183.091H347.841C350.318 183.091 352.386 183.568 354.045 184.523C355.716 185.466 356.972 186.75 357.812 188.375C358.665 190 359.091 191.83 359.091 193.864C359.091 195.898 358.67 197.733 357.83 199.369C356.989 200.994 355.739 202.284 354.08 203.239C352.42 204.182 350.358 204.653 347.892 204.653H339.028V201.79H347.807C349.636 201.79 351.153 201.449 352.358 200.767C353.563 200.074 354.46 199.131 355.051 197.938C355.653 196.744 355.955 195.386 355.955 193.864C355.955 192.341 355.653 190.983 355.051 189.79C354.46 188.597 353.557 187.659 352.341 186.977C351.136 186.295 349.608 185.955 347.756 185.955H339.761V218H336.574ZM395.193 200.545C395.193 204.182 394.545 207.347 393.25 210.04C391.955 212.722 390.17 214.801 387.898 216.278C385.636 217.744 383.034 218.477 380.091 218.477C377.148 218.477 374.54 217.744 372.267 216.278C370.006 214.801 368.227 212.722 366.932 210.04C365.648 207.347 365.006 204.182 365.006 200.545C365.006 196.909 365.648 193.75 366.932 191.068C368.227 188.375 370.011 186.295 372.284 184.83C374.557 183.352 377.159 182.614 380.091 182.614C383.034 182.614 385.636 183.352 387.898 184.83C390.17 186.295 391.955 188.375 393.25 191.068C394.545 193.75 395.193 196.909 395.193 200.545ZM392.091 200.545C392.091 197.42 391.568 194.744 390.523 192.517C389.477 190.278 388.051 188.568 386.244 187.386C384.438 186.205 382.386 185.614 380.091 185.614C377.807 185.614 375.761 186.205 373.955 187.386C372.148 188.568 370.716 190.273 369.659 192.5C368.614 194.727 368.091 197.409 368.091 200.545C368.091 203.67 368.614 206.347 369.659 208.574C370.705 210.801 372.131 212.511 373.938 213.705C375.744 214.886 377.795 215.477 380.091 215.477C382.386 215.477 384.438 214.886 386.244 213.705C388.063 212.523 389.494 210.818 390.54 208.591C391.585 206.352 392.102 203.67 392.091 200.545ZM402.902 218V183.091H414.169C416.646 183.091 418.714 183.568 420.374 184.523C422.044 185.466 423.3 186.75 424.141 188.375C424.993 190 425.419 191.83 425.419 193.864C425.419 195.898 424.999 197.733 424.158 199.369C423.317 200.994 422.067 202.284 420.408 203.239C418.749 204.182 416.686 204.653 414.22 204.653H405.357V201.79H414.135C415.964 201.79 417.482 201.449 418.686 200.767C419.891 200.074 420.788 199.131 421.379 197.938C421.982 196.744 422.283 195.386 422.283 193.864C422.283 192.341 421.982 190.983 421.379 189.79C420.788 188.597 419.885 187.659 418.669 186.977C417.464 186.295 415.936 185.955 414.084 185.955H406.089V218H402.902ZM456.169 183.091H459.357V206.205C459.357 208.58 458.8 210.705 457.686 212.58C456.572 214.443 455.021 215.915 453.033 216.994C451.055 218.062 448.754 218.597 446.129 218.597C443.516 218.597 441.214 218.057 439.226 216.977C437.237 215.898 435.686 214.426 434.572 212.562C433.459 210.699 432.902 208.58 432.902 206.205V183.091H436.089V205.983C436.089 207.835 436.504 209.489 437.334 210.943C438.163 212.386 439.328 213.523 440.828 214.352C442.339 215.182 444.107 215.597 446.129 215.597C448.152 215.597 449.919 215.182 451.43 214.352C452.942 213.523 454.107 212.386 454.925 210.943C455.754 209.489 456.169 207.835 456.169 205.983V183.091ZM468.621 218V183.091H479.888C482.365 183.091 484.433 183.568 486.092 184.523C487.763 185.466 489.018 186.75 489.859 188.375C490.712 190 491.138 191.83 491.138 193.864C491.138 195.898 490.717 197.733 489.876 199.369C489.036 200.994 487.786 202.284 486.126 203.239C484.467 204.182 482.405 204.653 479.939 204.653H471.075V201.79H479.854C481.683 201.79 483.2 201.449 484.405 200.767C485.609 200.074 486.507 199.131 487.098 197.938C487.7 196.744 488.001 195.386 488.001 193.864C488.001 192.341 487.7 190.983 487.098 189.79C486.507 188.597 485.604 187.659 484.388 186.977C483.183 186.295 481.655 185.955 479.803 185.955H471.808V218H468.621ZM510.007 185.955V183.091H535.32V185.955H524.257V218H521.07V185.955H510.007ZM542.496 218V183.091H562.746V185.955H545.683V199.097H561.672V201.96H545.683V215.136H563.087V218H542.496ZM598.337 194H595.132C594.893 192.807 594.462 191.705 593.837 190.693C593.223 189.67 592.45 188.778 591.518 188.017C590.587 187.256 589.53 186.665 588.348 186.244C587.166 185.824 585.888 185.614 584.513 185.614C582.308 185.614 580.297 186.187 578.479 187.335C576.672 188.483 575.223 190.17 574.132 192.398C573.053 194.614 572.513 197.33 572.513 200.545C572.513 203.784 573.053 206.511 574.132 208.727C575.223 210.943 576.672 212.625 578.479 213.773C580.297 214.909 582.308 215.477 584.513 215.477C585.888 215.477 587.166 215.267 588.348 214.847C589.53 214.426 590.587 213.841 591.518 213.091C592.45 212.33 593.223 211.437 593.837 210.415C594.462 209.392 594.893 208.284 595.132 207.091H598.337C598.053 208.693 597.518 210.188 596.734 211.574C595.962 212.949 594.973 214.153 593.768 215.188C592.575 216.222 591.2 217.028 589.643 217.608C588.087 218.187 586.376 218.477 584.513 218.477C581.581 218.477 578.979 217.744 576.706 216.278C574.433 214.801 572.649 212.722 571.354 210.04C570.07 207.358 569.428 204.193 569.428 200.545C569.428 196.898 570.07 193.733 571.354 191.051C572.649 188.369 574.433 186.295 576.706 184.83C578.979 183.352 581.581 182.614 584.513 182.614C586.376 182.614 588.087 182.903 589.643 183.483C591.2 184.051 592.575 184.858 593.768 185.903C594.973 186.938 595.962 188.142 596.734 189.517C597.518 190.892 598.053 192.386 598.337 194ZM605.824 218V183.091H609.011V199.097H628.818V183.091H632.006V218H628.818V201.96H609.011V218H605.824ZM654.761 218V183.091H657.949V199.097H677.756V183.091H680.943V218H677.756V201.96H657.949V218H654.761ZM713.466 183.091H716.653V206.205C716.653 208.58 716.097 210.705 714.983 212.58C713.869 214.443 712.318 215.915 710.33 216.994C708.352 218.062 706.051 218.597 703.426 218.597C700.813 218.597 698.511 218.057 696.523 216.977C694.534 215.898 692.983 214.426 691.869 212.562C690.756 210.699 690.199 208.58 690.199 206.205V183.091H693.386V205.983C693.386 207.835 693.801 209.489 694.631 210.943C695.46 212.386 696.625 213.523 698.125 214.352C699.636 215.182 701.403 215.597 703.426 215.597C705.449 215.597 707.216 215.182 708.727 214.352C710.239 213.523 711.403 212.386 712.222 210.943C713.051 209.489 713.466 207.835 713.466 205.983V183.091ZM725.918 218V183.091H737.696C739.969 183.091 741.861 183.489 743.372 184.284C744.895 185.08 746.037 186.165 746.798 187.54C747.56 188.915 747.94 190.477 747.94 192.227C747.94 193.682 747.696 194.926 747.207 195.96C746.719 196.994 746.054 197.83 745.213 198.466C744.372 199.102 743.435 199.562 742.401 199.847V200.119C743.526 200.199 744.616 200.597 745.673 201.312C746.73 202.017 747.599 203.006 748.281 204.278C748.963 205.551 749.304 207.074 749.304 208.847C749.304 210.608 748.912 212.182 748.128 213.568C747.344 214.943 746.139 216.028 744.514 216.824C742.901 217.608 740.844 218 738.344 218H725.918ZM729.105 215.136H738.344C741.037 215.136 743.026 214.54 744.31 213.347C745.605 212.153 746.253 210.653 746.253 208.847C746.253 207.517 745.929 206.312 745.281 205.233C744.645 204.142 743.741 203.278 742.571 202.642C741.412 202.006 740.048 201.688 738.48 201.688H729.105V215.136ZM729.105 198.858H737.986C739.361 198.858 740.565 198.574 741.599 198.006C742.634 197.437 743.44 196.653 744.02 195.653C744.599 194.653 744.889 193.511 744.889 192.227C744.889 190.375 744.287 188.869 743.082 187.71C741.878 186.54 740.082 185.955 737.696 185.955H729.105V198.858Z" fill="#B31FDF"/>
</svg>
