<svg width="214" height="108" viewBox="0 0 214 108" fill="none" xmlns="http://www.w3.org/2000/svg">
<g clip-path="url(#clip0_16_445)">
<mask id="mask0_16_445" style="mask-type:alpha" maskUnits="userSpaceOnUse" x="5" y="9" width="204" height="91">
<path d="M94.375 11.0447C118.114 4.68386 142.515 18.772 148.876 42.511C155.237 66.2502 141.149 90.6512 117.41 97.0121C106.651 99.895 95.7558 98.5786 86.466 94.0661C89.2948 92.4652 91.3551 89.8458 92.2999 86.8231C99.274 89.7196 107.222 90.4244 115.08 88.3188C134.019 83.2444 145.257 63.7784 140.183 44.8404C135.108 25.9025 115.642 14.6637 96.7043 19.7381C77.7664 24.8125 66.5279 44.2786 71.602 63.2165C72.3998 66.1938 73.5531 68.9813 75.0043 71.5445C72.0145 72.8963 69.745 75.3289 68.5421 78.2351C66.0733 74.424 64.1474 70.1687 62.9087 65.5459C56.5481 41.8068 70.6359 17.4056 94.375 11.0447Z" fill="#A662E7"/>
<circle cx="80.3362" cy="83.0335" r="12.6462" transform="rotate(-15 80.3362 83.0335)" stroke="#A662E7" stroke-width="7"/>
<path d="M135.536 26.1781C148.864 23.6411 161.036 21.9853 171.328 21.2718C180.67 20.6242 188.697 20.7339 194.705 21.7664C197.695 22.2802 200.451 23.0651 202.675 24.2786C204.901 25.4934 207.062 27.4118 207.845 30.3342C208.628 33.2566 207.716 35.9986 206.396 38.1637C205.076 40.3266 203.082 42.3842 200.75 44.3241C196.063 48.2223 189.166 52.3312 180.751 56.4413C163.855 64.6948 139.983 73.3646 113.118 80.563C106.17 82.4248 99.3451 84.0995 92.7213 85.5844C93.1079 83.715 93.0796 81.7295 92.5518 79.7599C92.2563 78.6571 91.8224 77.6283 91.2761 76.6855C97.6038 75.2594 104.131 73.6535 110.788 71.8697C137.27 64.774 160.565 56.2862 176.801 48.3551C184.953 44.3731 191.114 40.633 194.995 37.4049C196.947 35.7818 198.115 34.4561 198.712 33.4771C198.948 33.0891 199.051 32.8295 199.096 32.6785C198.982 32.5705 198.763 32.3969 198.364 32.1792C197.357 31.6299 195.683 31.0658 193.182 30.6359C188.206 29.7809 181.001 29.6222 171.95 30.2497C162.224 30.9239 150.639 32.4859 137.872 34.895L135.536 26.1781ZM68.7903 53.4094C56.5524 57.7003 45.7574 62.1341 37.0108 66.4065C28.8588 70.3886 22.698 74.1287 18.8168 77.3568C16.8653 78.9799 15.6974 80.3056 15.1003 81.2845C14.8634 81.673 14.7601 81.9325 14.7148 82.0834C14.8295 82.1914 15.0487 82.3645 15.4481 82.5825C16.4547 83.1317 18.129 83.6959 20.6306 84.1258C25.6058 84.9808 32.8113 85.1394 41.8622 84.512C49.4777 83.984 58.2336 82.9106 67.8041 81.3137C67.5809 82.9348 67.6706 84.6263 68.1207 86.3062C68.4928 87.6949 69.0829 88.9675 69.8431 90.097C59.7986 91.7882 50.5623 92.9298 42.4844 93.4898C33.1425 94.1375 25.1146 94.0277 19.1067 92.9953C16.1168 92.4815 13.3609 91.6966 11.137 90.4831C8.91093 89.2683 6.74988 87.3498 5.96679 84.4274C5.18373 81.505 6.09605 78.763 7.41652 76.5979C8.73573 74.435 10.7299 72.3774 13.0623 70.4375C17.7492 66.5394 24.6466 62.4304 33.0607 58.3203C42.3169 53.799 53.6666 49.1534 66.4546 44.6925L68.7903 53.4094Z" fill="#A662E7"/>
</mask>
<g mask="url(#mask0_16_445)">
<rect x="-15.6422" y="32.7596" width="224" height="104" transform="rotate(-15 -15.6422 32.7596)" fill="url(#paint0_linear_16_445)"/>
</g>
</g>
<defs>
<linearGradient id="paint0_linear_16_445" x1="60.3578" y1="9.2596" x2="182.217" y2="143.747" gradientUnits="userSpaceOnUse">
<stop stop-color="#3BC7F6"/>
<stop offset="0.298077" stop-color="#A855F7"/>
<stop offset="0.693358" stop-color="#CC4D9E"/>
<stop offset="1" stop-color="#EF4444"/>
</linearGradient>
<clipPath id="clip0_16_445">
<rect width="214" height="108" fill="white"/>
</clipPath>
</defs>
</svg>
