<?xml version="1.0" encoding="utf-8" ?><svg xmlns="http://www.w3.org/2000/svg" xmlns:xlink="http://www.w3.org/1999/xlink" width="1536" height="1024" viewBox="0 0 1536 1024"><path fill="white" d="M0 0L1536 0L1536 1024L0 1024L0 633.957L0 631.394L0 626.896L0 626.367L0 622.878L0 492.979L0 0Z"/><path fill="#020202" d="M333.087 175.955C333.439 178.272 333.892 181.932 334.409 184.095C335.221 201.768 335.902 219.447 336.452 237.13C336.641 242.969 336.886 262.757 337.846 269.527C338.029 270.822 343.959 273.228 342.454 278.642C339.395 279.587 339.374 279.023 337.851 281.295C339.918 284.152 341.707 285.327 341.933 288.462C340.774 290.221 340.322 290.44 338.626 291.764C337.885 293.956 337.766 294.079 338.222 296.268C340.932 298.56 342.031 298.858 342.54 301.987C341.549 303.181 341.106 303.711 339.955 304.804C342.63 307.617 353 302.599 351.727 318.529C351.057 326.906 348.713 327.86 341.011 330.577L341.085 343.697C344.999 344.293 350.043 344.507 352.839 346.977C352.744 349.56 349.429 353.168 350.307 354.24C358.634 364.419 352.62 368.225 341.966 371.943C342.271 400.528 342.906 429.108 343.873 457.679C344.195 468.46 343.988 480.379 344.537 490.949L368.045 491.028L368.068 478.456L413.541 487.216C425.162 473.227 436.571 459.064 447.764 444.73C453.658 437.21 462.715 424.931 468.91 418.46C468.987 404.378 467.532 381.61 468.607 369.46L469.037 369.693C469.607 373.022 470.416 379.555 471.868 382.267C475.065 379.312 471.37 338.768 473.044 332.033C473.838 333.278 474.359 333.835 475.437 334.783C481.116 334.975 487.786 338.887 494.106 340.208L494.014 353.865C486.622 349.088 486.855 351.342 478.577 350.388C477.743 350.292 477.53 347.076 475.09 347.279C474.438 352.513 474.14 378.529 476.342 382.479C479.09 381.356 479.6 371.748 480.017 368.646C481.582 375.043 479.895 407.018 480.01 417.15C491.558 432.676 503.247 448.096 515.075 463.41C520.451 470.302 530.025 481.396 534.621 488.162C548.489 485.167 565.971 480.546 579.942 479.89L579.933 405.938L600.808 405.921L600.805 492.045L640.214 492.091C673.357 492.21 673.805 491.107 704.9 478.911C726.288 470.741 747.511 462.147 768.556 453.134C826.15 428.422 806.956 428.735 862.22 456.55C873.746 462.247 885.455 467.565 897.328 472.496C897.991 470.325 897.783 459.313 897.776 456.129C898.005 453.878 898.603 451.835 899.155 449.64C899.142 453.271 898.626 471.533 899.966 473.605L900.725 473.573C929.446 485.088 957.189 494.337 985.506 505.197L985.64 496.254L1005.95 496.392C1005.89 480.056 1005.29 464.494 1007.82 448.346C1008.29 445.351 1008.06 440.176 1007.99 437.001L1089.96 436.971C1089.89 441.007 1089.47 449.932 1090.22 453.485L1091.92 454.039C1093.88 456.136 1093 491.159 1092.98 496.434L1112.98 496.532L1112.95 509.008L1143.02 508.983L1143.01 519.934L1153.84 522.826C1155.4 520.208 1164.93 510.253 1167.17 510.429C1182.41 511.625 1198.06 512.021 1213.31 512.006L1213.2 523.457L1223.09 523.587L1223.09 549.053C1242.33 549.361 1236.96 532.637 1243.12 519.914C1246.01 513.954 1250.53 506.129 1257.61 504.376C1282.52 498.209 1287.87 505.862 1295.69 526.876L1297.85 527.595C1298.15 528.927 1298.43 542.651 1298.6 545.521C1301.98 545.146 1305.97 545.021 1309.42 544.832C1309.42 541.658 1309.07 529.687 1310.08 528.03C1318.6 513.98 1316.74 502.1 1317.05 486.545C1317.14 481.688 1319.66 481.999 1320.59 478.288C1320.82 477.373 1319.83 471.686 1319.94 469.551C1321.01 468.042 1321.18 468.02 1322.82 467.038L1323.26 466.781C1324.53 461.862 1325.19 451.575 1325.83 445.858C1327.11 433.774 1328.73 421.729 1330.69 409.738L1332.12 409.723C1335.45 425.035 1336 448.267 1338.45 464.349C1339.04 468.257 1341.59 466.456 1341.96 469.706C1342.69 476.173 1339.42 477.418 1344.27 481.923C1345.29 488.605 1344.9 500.781 1344.87 507.964L1404.42 507.921C1409.74 513.089 1415.3 518.344 1420.39 523.777C1423.35 526.936 1422.68 530.335 1425.17 531.642C1432.3 530.499 1435.45 529.683 1442.64 529.895C1443.08 532.686 1443.2 535.179 1445.02 537.347C1448.64 538.98 1453.81 534.457 1455.5 540.834C1456.18 543.387 1454.9 546.659 1456.38 548.762C1464.17 550.091 1462.69 550.361 1466.22 558.266L1518.96 558.558L1518.94 589.525L1510.1 589.74C1504.03 590.615 1488.8 590.032 1485.43 591.016L1486.34 591.913C1495.76 591.848 1502.13 591.109 1511.08 593.966C1490.2 595.072 1469.31 595.75 1448.4 595.997C1441.01 596.055 1406.32 595.639 1401.86 596.76L1402.09 597.377C1408.72 598.524 1414.16 597.753 1420.37 598.182C1433.8 599.111 1454.08 598.643 1466.91 601.177C1454.4 602.285 1441.97 602.562 1429.52 603.966C1421.89 605.017 1403.95 603.754 1399.17 605.053L1398.95 605.981C1407.47 606.568 1433.18 607.944 1440.16 610.051L1439.64 610.455L1439.85 609.974L1439.41 609.85C1437.38 611.252 1409.58 612.863 1405.44 612.904L1403.15 614.17L1403.76 614.976C1408.01 615.302 1416.39 615.608 1420.14 616.621L1420.24 617.291C1416.28 618.613 1409.22 617.919 1404.75 618.23C1386.55 619.5 1363.67 617.282 1346.18 620.458C1364.98 624.971 1381.26 622.143 1397.03 625.671C1387.83 626.093 1350.7 624.662 1345.92 628.545C1344.16 633.766 1344.55 643.423 1344.53 649.23C1337.09 657.768 1335.1 685.776 1331.54 697.199C1330.82 699.507 1331.72 705.122 1330.49 706.632C1329.56 705.243 1330.1 697.51 1329.65 694.937C1327.7 683.838 1326.07 670.398 1323.48 659.661C1323.03 659.463 1320.17 658.156 1320.09 657.795C1317.99 647.73 1317.34 637.669 1316.32 627.498C1316.26 626.903 1313.04 625.135 1313.13 623.065C1313.29 619.602 1315.09 616.359 1314.09 612.925C1313.22 609.322 1310.3 611.084 1308.88 607.756L1311.32 605.861C1309.58 603.94 1282.82 605.577 1280.35 607.447L1280.3 609.624C1281.79 610.991 1286.76 611.256 1289.43 611.899L1289.83 613.052C1286.31 618.248 1273.01 618.27 1267.11 618.79C1272.69 619.419 1277.92 619.111 1283.28 620.919L1282.52 620.713L1282.13 622.442L1281.7 622.512L1281.46 620.43L1281.15 620.361L1280.53 622.664C1275.77 623.207 1264.93 623.292 1260.72 621.28L1260.94 620.253L1260.75 621.397L1261.32 621.757L1261.72 619.287C1258.59 617.734 1249.4 616.378 1244.81 615.028C1248.96 614.261 1253.1 613.44 1257.23 612.563C1253.15 611.748 1243.16 611.147 1240.82 610.126L1240.3 608.78C1244.07 604.542 1258.31 610.151 1263.69 607.191C1262.06 605.633 1247.55 605.399 1242.34 603.876L1242.6 603.872L1240.05 602.19L1240.85 603.177L1240.28 601.672L1240.84 600.945C1243.77 599.41 1248.36 599.822 1251.81 599.842C1238.74 595.65 1218.48 596.987 1204 597.07C1201.84 597.575 1199.99 597.734 1198.39 599.17C1206.23 601.065 1214.88 602.172 1221.17 603.699L1221.31 604.559C1207.43 606.356 1189.81 605.009 1175.57 606.087C1168.89 606.593 1148.07 603.136 1143.18 607.587C1146.27 609.464 1174.31 608.566 1180.09 609.339C1188.23 610.426 1199.52 612.303 1207.61 612.477C1195.77 614.288 1181.92 613.99 1169.82 613.999L1124.74 614.037C1115.63 614.06 1101.93 613.777 1093.37 615.68C1113.8 615.978 1145.03 616.96 1165.21 619.101L1164.75 620.05C1157.51 621.105 1148.86 619.689 1142.05 621.067C1130.6 622.352 1100.57 620.863 1093.26 624.571L1093.64 625.141C1113.12 625.767 1128.65 626.933 1148.04 628.629C1137.71 630.294 1098.55 631.187 1093.01 634.837C1092.85 637.333 1092.53 636.676 1093.67 638.427C1102.83 640.05 1112.62 640.253 1122.75 641.88C1114.25 643.482 1102.17 643.494 1092.79 644.601L1092.81 677.903L1083.86 679.064C1087.42 682.025 1092.41 681.555 1093.08 685.795C1090.34 688.962 1085.52 689.392 1081.59 689.686C1069.76 690.568 1015.31 693.966 1007.98 687.343C1006.56 686.067 1006.38 685.477 1006.38 683.643C1009.14 679.766 1012.96 679.358 1017.41 678.443C1013.52 678.304 1009.44 678.09 1005.57 678.044C1004.65 670.181 1004.93 660.879 1004.75 652.836C1004.61 646.395 1004.03 639.358 1004.03 633.073C996.525 632.324 988.198 632.99 982.036 629.73L981.841 628.766C987.838 625.631 999.928 628.653 1003.97 624.866C1000.26 621.152 935.886 620.828 933.057 623.018C939.08 627.072 956.689 620.351 971.895 629.91C952.61 630.762 946.971 630.28 928.544 636.621L929.372 636.817C941.025 639.509 946.35 637.252 956.708 643.853C936.092 645.504 920.823 642.98 900.019 646.043C899.903 640.339 899.806 636.609 899.039 630.903C896.933 634.051 897.567 649.902 898.537 653.525L896.911 653.331C896.722 650.431 897.172 649.617 895.607 647.627C886.747 649.576 881.183 650.562 872.221 651.363C868.176 651.725 853.3 652.543 850.303 653.387C853.373 654.104 861.937 654.581 865.385 654.865C874.763 655.551 884.124 656.441 893.462 657.534C874.144 660.834 847.609 659.6 829.009 663.647C837.416 664.982 847.531 665.977 855.452 668.335C825.577 678.732 801.451 674.92 772.511 666.614C781.938 663.7 795.17 662.748 805.255 661.659C776.053 656.884 745.093 655.434 715.632 651.826C690.355 648.731 664.705 647.951 639.338 645.553C649.047 643.878 667.245 643.727 678.012 642.7C717.809 638.904 757.688 639.93 797.54 637.937C811.073 637.26 825.282 638.344 839.371 637.438C826.422 635.345 810.69 635.932 797.366 636.043C732.039 636.588 666.006 636.748 600.744 637.923L600.771 711.635L579.948 711.588L579.941 637.899C570.535 638.454 530.872 639.608 525.36 641.581C527.162 643.194 548.027 643.354 552.868 643.779L552.063 645.947C544.812 646.054 523.058 646.782 516.529 648.085C518.593 649.339 520.147 650.105 522.301 651.153L522.411 652.044C517.564 655.213 508.552 654.716 505.115 658.618C505.994 662.622 510.023 664.351 513.673 666.702C508.708 668.216 498.601 670.357 496.108 674.616C496.858 679.274 502.331 678.474 504.406 681.943C502.263 685.019 489.223 687.77 485.229 688.493L484.405 688.639L483.901 689.305C481.768 692.09 481.245 692.54 478.317 694.486C479.099 697.223 483.846 697.934 486.129 699.582C479.18 700.875 481.699 699.429 475.315 704.52C475.142 706.546 479.127 709.983 480.727 711.608C474.995 723.872 477.941 723.566 477.903 736.929C477.896 739.384 465.626 746.119 477.108 750.312C478.047 750.65 478.988 750.982 479.931 751.308C479.304 752.644 478.979 752.419 477.294 753.262C479.516 755.778 487.946 755.909 491.712 756.569C489.032 760.945 474.971 756.219 471.061 754.593C471.088 751.765 471.88 739.382 469.98 737.869C469.713 737.656 467.393 736.6 466.81 736.342C468.278 734.099 471.733 734.401 470.902 729.773C470.41 727.039 468.718 725.725 466.613 724.095C479.096 709.312 468.073 708.677 458.016 700.365C461.363 699.46 469.576 697.689 471.662 695.787C472.207 693.28 471.991 693.959 471.116 691.167C474.611 691.155 472.213 695.276 479.475 690.301L479.574 689.281C477.985 689.364 475.959 691.052 475.915 691.037C469.684 688.927 449.22 688.445 446.163 682.637C446.76 678.379 454.061 678.696 456.649 675.298C452.899 669.335 437.447 672.777 430.883 667.863C433.585 663.519 442.002 664.58 443.259 659.029C438.593 651.631 378.753 655.317 366.499 652.734C377.632 650.695 421.761 652.324 427.592 649.316L427.92 648.115C425.981 646.1 422.055 644.908 419.373 644.937C394.633 645.203 369.769 645.07 345.028 645.042C344.664 657.323 344.989 685.6 341.975 696.056C345.423 704.886 343.08 706.487 343.31 715.141C343.346 716.5 350.932 718.353 350.283 720.708L348.751 722.001C350.992 724.495 351.079 721.708 354.031 724.601C352.837 728.019 349.041 726.895 349.179 729.014C352.044 730.262 354.021 730.677 355.154 733.367C352.321 738.726 342.338 738.641 336.792 740.864C341.699 742.805 349.996 743.808 351.963 747.155C351.474 754.78 342.902 752.883 340.069 757.365C339.382 766.28 350.533 766.597 346.869 774.537C342.806 777.079 339.245 775.055 336.258 777.523L336.45 778.548C339.09 780.32 339.782 780.192 341.092 782.812L340.707 784.872C337.257 787.015 337.194 785.644 336.01 788.436C337.166 794.17 341.129 793.325 339.135 797.637L336.425 798.583C338.08 801.671 340.097 801.729 340.869 805.309C339.78 809.168 337.403 807.754 337.178 810.266C334.725 837.675 336.261 866.033 334.537 893.38L333.038 898.141L331.374 848.082C330.997 835.055 331.064 821.138 329.558 808.267C327.105 806.148 326.143 805.645 326.224 802.322C327.629 800.898 328.053 800.561 329.69 799.401C328.107 796.775 326.755 795.315 327.14 792.445C328.729 790.775 329.05 790.569 330.004 788.524C329.288 785.241 329.515 787.063 325.617 784.529C325.282 781.911 326.614 779.752 327.725 777.228C325.996 776.069 321.215 775.183 318.974 774.665L318.864 764.929C323.167 763.463 326.571 762.971 327.654 758.069C324.819 753.816 314.475 754.146 314.88 748.231C317.967 744.806 325.019 743.957 325.955 740.804C322.203 737.607 316.539 738.936 312.398 734.956C311.02 729.864 315.007 732.392 316.574 729.202C315.261 728.256 314.375 727.57 313.134 726.532L313.242 725.24C315.244 724.182 316.375 723.736 318.501 722.926L317.375 721.25C318.628 718.701 321.854 718.684 324.115 716.406C326.716 713.786 322.919 709.389 322.968 706.869C323.025 704.018 324.848 701.075 324.713 697.69C324.013 680.192 323.399 662.653 322.752 645.153C309.33 644.749 293.044 644.066 279.795 643.171C286.522 642.198 318.585 641.888 321.181 640.346C322.495 638.2 322.368 639.119 321.882 636.958C319.568 635.313 256.397 634.554 244.806 632.574L244.079 632.446C254.852 631.739 317.636 630.677 322.382 626.436C314.998 622.992 265.263 623.056 254.181 621.557C243.277 620.081 237.115 618.437 225.766 617.72L226.051 617.301C232.845 616.434 238.906 616.134 245.746 615.776C246.821 613.789 247.308 612.562 248.141 610.451C246.102 608.739 215.45 607.106 209.71 606.303C221.392 604.715 232.565 604.046 244.32 603.717C245.706 603.679 245.988 602.966 246.473 602.005C244.341 600.358 228.595 601.093 224.626 600.922C217.996 600.635 211.475 600.274 204.835 599.626L204.409 599.045C209.168 597.365 214.669 597.128 219.928 596.167C216.396 592.87 211.468 595.441 205.763 594.205C202.314 594.117 189.389 593.297 187.065 594.327C184.85 598.882 188.523 597.709 183.71 604.594C178.408 607.514 175.295 608.263 173.409 613.946C166.431 617.87 148.81 622.342 142.61 615.011C127.524 614.998 102.692 615.1 88.0433 616.731L88.9207 616.894C102.712 619.375 122.775 617.717 138.142 620.216C128.419 623.337 93.5513 620.565 89.6228 622.744C88.8305 625.232 85.6677 638.541 84.9706 639.332C82.8536 641.735 69.4423 649.679 66.2297 651.399C55.5317 644.535 41.9336 638.899 42.8699 623.645C39.093 622.268 6.83051 623.047 0 622.878L0 492.979L32.0945 492.942L32.0987 516.039L44.7889 516.016L45.0854 488.883C50.1034 482.733 60.2832 473.2 66.1997 467.322C73.4695 474.373 81.4004 483.485 88.4752 490.995L89.1058 516.05C105.435 515.969 124.045 515.475 140.187 516.205C142.32 518.004 139.859 519.252 141.587 522.09C144.632 518.918 148.126 515.3 152.198 514.256C173.409 508.818 179.51 533.974 191.825 543.29C191.882 543.737 193.982 543.353 193.923 543.483C197.268 536.19 201.051 535.654 208.047 532.999L209.689 524.657C214.49 520.843 222.771 519.461 223.87 513.815C224.801 509.034 232.146 506.278 235.515 508.48C240.802 511.937 239.814 511.701 246.262 510.682L246.193 490.651C271.606 490.863 297.021 490.916 322.435 490.81C323.863 451.507 323.74 411.146 325.463 372.088C319.701 369.76 315.578 367.795 313.903 360.344C313.348 357.876 315.294 356.148 316.806 354.256C317.509 348.469 306.178 346.978 326.063 343.662L326.047 331.159C321.693 328.471 320.123 327.388 316.343 323.968C315.704 318.497 315.93 314.387 315.012 308.293C317.748 307.52 325.981 306.009 327.559 304.644L324.633 302.327C324.453 299.67 324.283 300.728 325.439 298.37C338.727 292.043 319.617 290.536 329.53 281.736L329.509 280.444C327.081 279.171 326.165 278.985 325.003 276.606C324.881 273.584 324.521 274.424 325.747 271.973C326.596 271.536 329.147 270.364 329.233 269.306C329.91 260.998 329.81 252.649 330.15 244.321L333.087 175.955Z"/><path fill="white" d="M898.744 582.884C915.034 581.915 934.499 582.843 951.065 582.902C961.132 582.939 990.237 582.596 998.849 584.42C990.34 586.266 962.319 585.905 952.059 585.919C915.534 585.972 872.628 589.327 836.571 585.326C850.74 583.39 882.52 582.976 897.627 582.91L898.744 582.884Z"/><path fill="#525053" d="M897.776 456.129C898.005 453.878 898.603 451.835 899.155 449.64C899.142 453.271 898.626 471.533 899.966 473.605L900.725 473.573C898.456 482.723 901.74 512.717 899.738 520.985C898.379 518.152 897.954 516.742 897.044 513.767C896.381 508.145 896.333 477.431 897.328 472.496C897.991 470.325 897.783 459.313 897.776 456.129Z"/><path fill="#EFF0F0" d="M897.044 513.767C897.954 516.742 898.379 518.152 899.738 520.985C897.432 535.588 900.499 566.187 898.744 582.884L897.627 582.91C896.814 575.967 897.004 563.7 896.998 556.454L897.044 513.767Z"/><path fill="#EFF0F0" d="M1143.09 599.421C1159.72 596.082 1186.27 597.048 1204 597.07C1201.84 597.575 1199.99 597.734 1198.39 599.17C1191.12 598.888 1180.07 598.525 1173.02 598.864C1160.85 599.448 1155.27 600.548 1143.09 599.421Z"/><path fill="#EFF0F0" d="M895.607 647.627C899.492 645.591 894.766 598.098 897.866 594.109C899.654 596.416 899.074 625.454 899.039 630.903C896.933 634.051 897.567 649.902 898.537 653.525L896.911 653.331C896.722 650.431 897.172 649.617 895.607 647.627Z"/><path fill="#B8B7B9" d="M1398.95 605.981C1392.68 606.407 1374.68 605.362 1368.43 604.495C1370.24 603.542 1423.83 603.896 1429.52 603.966C1421.89 605.017 1403.95 603.754 1399.17 605.053L1398.95 605.981Z"/><path fill="#EFF0F0" d="M205.763 594.205C218.527 593.639 233.839 594.059 246.692 594.33C240.533 595.934 226.715 596.239 219.928 596.167C216.396 592.87 211.468 595.441 205.763 594.205Z"/><path fill="#858586" d="M1486.34 591.913C1482.03 591.647 1470.2 591.267 1466.79 590.269C1478.58 589.24 1497.89 589.522 1510.1 589.74C1504.03 590.615 1488.8 590.032 1485.43 591.016L1486.34 591.913Z"/><path fill="#B8B7B9" d="M1403.76 614.976C1401.07 615.121 1392.49 614.187 1389.84 613.65C1394.75 612.654 1400.37 612.895 1405.44 612.904L1403.15 614.17L1403.76 614.976Z"/><path fill="white" d="M472.018 418.382C474.436 421.073 472.167 425.595 474.166 428.775C476.573 425.483 472.417 421.881 476.895 419.732C477.498 420.03 507.444 482.225 510.18 487.874C499.983 488.098 489.022 487.947 478.77 487.972C478.695 482.666 475.658 480.937 471.357 483.873C470.804 485.442 470.624 486.415 469.441 487.593C460.138 488.588 445.471 488.024 435.744 487.925C438.147 482.362 442.902 474.531 445.733 468.915C454.086 452.34 464.347 435.175 472.018 418.382Z"/><path fill="white" d="M447.175 643.25C464.959 643.088 489.314 642.363 506.733 643.311C503.297 644.136 499.848 644.904 496.388 645.614C506.808 647.657 508.007 645.901 518.956 651.392C513.823 651.733 496.411 654.217 493.744 658.713C494.846 660.475 501.625 664.351 504.067 666.046C499.805 668.009 487.098 670.246 486.751 674.658L489.132 676.883C491.932 678.411 494.425 680.32 497.011 682.189C496.072 682.633 495.128 683.065 494.179 683.485C480.296 689.609 466.74 688.391 452.988 683.086C456.068 680.41 462.765 676.075 466.424 673.595C466.261 673.528 466.097 673.461 465.934 673.395L465.108 673.083C458.661 670.59 447.461 668.968 440.172 667.484C445.237 664.407 449.78 662.23 453.892 657.977C449.971 656.289 444.745 655.792 442.385 652.777C442.405 649.635 442.796 650.195 444.948 647.308C446.986 644.573 444.452 647.524 444.775 644.105L447.175 643.25Z"/><path fill="white" d="M1046.53 462.15C1070.64 461.161 1064.98 510.877 1063.46 526.696L1054.69 526.828L1035 526.991C1035.09 511.716 1033.79 492.801 1035.86 477.809C1036.81 470.972 1040.71 465.859 1046.53 462.15Z"/><path fill="#020202" d="M1047.06 469.393C1065.24 470.192 1060 508.711 1059.99 522.852L1051.88 522.962L1039 522.952C1038.9 512.368 1038.62 501.654 1038.91 491.085C1039.16 482.319 1039.96 475.051 1047.06 469.393Z"/><path fill="white" d="M1035.05 629.014C1044.81 628.935 1054.56 628.946 1064.32 629.047C1061.92 642.107 1065.87 644.066 1063.29 655.824C1057.82 657.803 1051.54 658.424 1045.74 658.633C1030.03 659.197 1034.19 638.653 1035.05 629.014Z"/><path fill="white" d="M720.658 490.022C762.717 489.156 835.951 490.506 880.857 490.046C881.201 490.368 881.544 490.69 881.888 491.012L881.957 493.964C842.417 493.965 764.307 494.309 721.917 493.609C721.211 493.598 720.913 491.12 720.658 490.022Z"/><path fill="white" d="M59.9967 495.067L74.0415 495.069L74.0454 525.705L60.0604 525.665L59.9967 495.067Z"/><path fill="white" d="M345.007 635.566C357.298 635.427 420.726 634.508 426.254 640.449C412.081 641.225 394.914 640.685 380.526 640.941C371.638 641.099 354.35 641.503 345.926 640.721C344.62 638.914 345.055 638.137 345.007 635.566Z"/><path fill="white" d="M484.841 429.643C488.16 432.514 515.87 472.675 520.858 479.421L516.675 483.359C515.83 485.18 515.47 485.714 514.323 487.375C512.41 486.012 486.941 434.847 484.841 429.643Z"/><path fill="white" d="M630.534 629.024C656.98 628.961 685.367 627.936 711.445 631.138C703.17 632.374 687.382 632.203 678.563 632.312C668.177 632.426 606.464 632.907 601.994 630.995L602.626 630.14C606.111 629.079 625.345 629.134 630.534 629.024Z"/><path fill="white" d="M975.106 608.537C979.729 607.625 986.861 608.757 991.693 609.334C988.958 609.465 983.794 609.265 982.449 611.936C986.369 614.761 996.119 613.844 1001.27 615.167C994.265 616.494 986.71 615.489 979.033 616.747L978.109 616.905C973.363 616.96 942.583 615.438 940.576 613.773L940.7 612.871C945.608 610.015 963.868 611.475 975.106 608.537Z"/><path fill="white" d="M1034.86 617.014C1041.62 616.673 1060.9 613.862 1064.42 620.447C1064.26 623.094 1064.36 623.591 1063.35 625.968C1055.58 625.969 1043.56 627.137 1036.16 625.351C1034.53 624.957 1034.44 624.042 1033.77 622.647C1033.91 619.912 1033.82 619.467 1034.86 617.014Z"/><path fill="white" d="M460.757 433.605C461.151 436.414 436.221 478.923 432.897 484.869L431.8 485.13L430.713 483.405C429.264 481.787 428.298 480.539 426.99 478.802C438.35 464.091 449.441 448.503 460.757 433.605Z"/><path fill="white" d="M1077.87 517.949L1094.94 518.043L1095.05 526.961C1103.64 527.26 1142.65 526.465 1147.9 527.776L1148.94 529.728C1131.55 530.469 1108.93 529.718 1091.14 529.653L1090.98 521.227C1087.49 521.167 1080.8 522.038 1078.2 520.299L1077.87 517.949Z"/><path fill="white" d="M1002.22 516.98C1006.02 516.902 1017.71 516.14 1020.35 518.085C1019.75 522.306 1011.38 518.1 1005.73 524.229C991.746 525.035 971.415 523.97 956.625 523.906C950.629 523.955 944.68 524.07 938.689 523.775L938.134 522.99C940.922 521.043 991.613 522.642 1000.75 521.813C1002.27 520.411 1001.9 519.486 1002.22 516.98Z"/><path fill="white" d="M492.931 591.031C495.678 590.956 496.622 590.771 499.268 591.655C499.867 594.775 499.86 617.271 499.938 622.126C497.376 622.139 495.598 622.414 493.341 621.281C492.412 617.723 492.889 596.047 492.931 591.031Z"/><path fill="white" d="M492.943 507.94C495.216 507.919 497.438 507.586 499.292 508.688C500.153 515.303 499.7 531.745 499.688 539.087C497.09 539.099 495.56 539.374 493.317 538.117C492.415 534.43 492.895 513.108 492.943 507.94Z"/><path fill="white" d="M626.056 508.913C628.209 508.908 628.701 508.76 630.586 509.642C631.218 513.368 631.698 536.589 629.867 539.498C628.769 539.352 624.606 538.862 624.467 538.221C623.457 533.593 623.62 513.478 624.496 509.686L626.056 508.913Z"/><path fill="white" d="M607.115 508.927C609.625 508.896 610.303 508.682 612.424 509.812C613.301 514.46 612.751 533.334 612.657 539.247C610.245 539.153 608.465 539.319 606.338 538.243C605.736 534.136 605.252 511.979 607.115 508.927Z"/><path fill="white" d="M449.053 507.924C451.165 507.912 453.237 507.617 454.968 508.704C455.823 515.234 455.363 531.667 455.345 538.929L454.719 538.949C452.175 539.01 450.837 539.249 449.328 537.815C448.5 530.849 449.008 515.511 449.053 507.924Z"/><path fill="white" d="M538.853 590.986C541.175 590.979 542.835 590.673 544.694 591.921C545.515 596.574 545.071 615.888 545.056 622.04C542.477 622.086 541.896 622.153 539.456 621.385C538.364 617.754 538.823 596.195 538.853 590.986Z"/><path fill="white" d="M449.04 591.025C451.665 591.122 453.088 590.721 455.021 591.969C455.837 598.367 455.354 613.969 455.318 621.049C453.098 621.096 451.282 621.417 449.431 620.352C448.574 613.995 449.021 598.096 449.04 591.025Z"/><path fill="white" d="M402.944 590.958C405.576 590.92 406.129 590.87 408.627 591.636C409.621 594.789 409.267 616.112 409.264 621.073C406.344 620.988 405.33 621.467 403.235 620.042C402.384 613.397 402.891 598.247 402.944 590.958Z"/><path fill="white" d="M417.037 507.8C419.624 507.805 420.141 507.668 422.486 508.581C423.592 512.537 423.048 533.697 422.997 539.178C421.302 539.095 419.794 538.905 418.11 538.704C415.983 536.459 416.99 512.527 417.037 507.8Z"/><path fill="white" d="M804.948 503.658C806.843 503.857 808.43 503.729 809.727 504.983C810.571 512.837 810.033 532.233 809.99 540.866C807.945 540.586 807.476 540.454 805.511 539.794C804.243 536.324 804.904 508.905 804.948 503.658Z"/><path fill="white" d="M788.998 503.871C791.337 503.893 791.509 503.83 793.607 504.737C794.603 509.065 794.085 534.426 794.05 540.391C791.849 540.458 791.44 540.6 789.467 539.788C788.452 535.871 788.964 509.408 788.998 503.871Z"/><path fill="white" d="M836.991 503.874C839.337 503.894 839.509 503.833 841.618 504.734C842.641 508.516 842.093 534.954 842.05 540.298C840.213 540.325 839.536 540.183 837.71 539.872C836.288 537.339 836.961 508.505 836.991 503.874Z"/><path fill="white" d="M756.907 503.641C761.387 504.16 761.853 503.642 761.918 508.062C762.079 519.049 761.992 530.087 761.961 541.073C759.696 540.741 759.166 540.811 757.287 539.634C756.429 535.04 756.888 509.818 756.907 503.641Z"/><path fill="white" d="M723.978 594.135C726.2 594.219 727.01 594.008 728.667 595.289C729.598 601.16 729.051 623.563 729.016 630.698L725.202 629.981C722.876 627.5 723.934 599.718 723.978 594.135Z"/><path fill="white" d="M380.037 590.993C382.315 590.976 383.855 590.686 385.715 591.894C386.532 596.199 386.134 615.567 386.124 621.049C383.953 621.097 382.265 621.406 380.456 620.349C379.583 614.124 380.021 597.964 380.037 590.993Z"/><path fill="white" d="M416.988 591.032C419.489 591.124 420.895 590.748 422.72 591.978C423.534 598.363 423.052 614.005 423.017 621.075C420.425 621.167 419.865 621.346 417.522 620.445C416.434 616.64 416.941 596.357 416.988 591.032Z"/><path fill="white" d="M644.542 508.547C647.342 509.009 647.106 508.505 648.724 510.129C649.122 514.851 649.882 536.817 647.513 539.863C646.46 539.608 643.585 538.994 643.484 538.34C642.699 533.267 641.747 511.376 644.542 508.547Z"/><path fill="white" d="M680.037 508.975C682.666 508.899 683.031 508.782 685.463 509.597C686.731 512.532 686.097 534.164 686.043 538.944C683.455 539.07 683.091 539.191 680.671 538.456C679.486 535.392 680.004 513.737 680.037 508.975Z"/><path fill="white" d="M561.737 590.997C563.889 590.987 564.528 591.068 566.661 591.421C568.149 593.825 567.629 617.402 567.623 621.918C565.037 622.051 564.604 622.2 562.21 621.415C561.295 618.648 561.71 595.422 561.737 590.997Z"/><path fill="white" d="M69.9265 535.983C72.2764 535.973 74.4027 535.628 76.2504 536.862C76.6807 540.484 77.3611 554.367 75.728 556.978C73.2401 556.995 69.9591 557.322 68.328 555.868C67.6358 551.129 67.6167 541.622 68.4225 536.862L69.9265 535.983Z"/><path fill="white" d="M773.029 503.756C775.327 504.029 776.107 503.72 777.648 505.035C778.593 512.765 777.983 532.137 777.943 540.888C775.819 540.667 775.28 540.751 773.468 539.742C772.588 535.665 773.005 509.464 773.029 503.756Z"/><path fill="white" d="M821.063 503.755C823.225 503.893 823.437 503.882 825.446 504.615C826.548 510.123 825.956 533.944 825.903 540.713C823.242 540.297 822.969 540.721 821.347 539.233C820.407 531.09 821.018 512.841 821.063 503.755Z"/><path fill="white" d="M391.597 590.902C394.032 590.937 395.05 590.731 397.141 591.804C397.993 598.108 397.486 614.157 397.439 621.192C394.866 621.205 394.353 621.354 392.042 620.412C391.121 616.863 391.563 596.144 391.597 590.902Z"/><path fill="white" d="M550.223 590.945C552.38 590.956 553.749 590.751 555.624 591.723C556.436 597.772 555.974 615.148 555.957 622.027C553.741 622.047 553.05 621.959 550.867 621.552C549.987 619.134 550.235 595.74 550.223 590.945Z"/><path fill="white" d="M869.057 503.741C870.917 503.889 872.21 503.726 873.519 504.961C874.317 512.65 873.807 531.909 873.773 540.416L869.978 539.907C868.244 537.362 869.034 509.164 869.057 503.741Z"/><path fill="white" d="M725.037 503.74C727.128 503.914 727.289 503.96 729.306 504.572C730.211 507.476 729.771 535.87 729.747 540.527C727.111 540.22 726.948 540.662 725.355 539.241C724.407 531.311 725.009 512.739 725.037 503.74Z"/><path fill="white" d="M661.521 509.101C663.767 509.026 665.109 508.702 666.872 509.916C667.718 515.85 667.208 531.935 667.162 538.847C664.831 539.067 663.962 539.396 661.989 538.377C661.03 534.706 661.483 514.408 661.521 509.101Z"/><path fill="white" d="M740.996 503.784C742.811 503.911 743.975 503.742 745.265 504.955C746.064 512.88 745.555 531.847 745.525 540.501C742.911 540.207 743.107 540.62 741.245 539.295C740.432 531.267 740.954 512.528 740.996 503.784Z"/><path fill="white" d="M756.534 594.363C758.691 594.621 758.657 594.614 760.652 595.479C761.643 599.077 761.075 625.215 761.023 630.337C758.962 630.27 758.912 630.251 756.922 629.682C755.839 626.18 756.479 599.495 756.534 594.363Z"/><path fill="white" d="M853.054 503.574C855.104 503.817 855.274 503.777 857.04 504.76C857.996 512.121 857.387 533.031 857.337 541.329C855.21 540.736 855.073 540.67 853.217 539.491C852.345 532.694 852.96 511.427 853.054 503.574Z"/><path fill="white" d="M804.616 593.941C806.527 594.078 807.291 593.933 808.761 595.149C809.711 601.86 809.105 622.66 809.056 630.562C807.528 630.436 806.631 630.211 805.164 629.878C804.233 626.737 804.607 599.099 804.616 593.941Z"/><path fill="white" d="M504.926 507.61C507.186 507.767 507.384 507.802 509.51 508.548C510.579 512.622 510.049 533.976 509.994 539.571C507.423 539.06 506.825 539.38 505.122 537.766C504.309 529.96 504.848 515.882 504.926 507.61Z"/><path fill="white" d="M504.937 590.657C506.819 590.863 508.422 590.748 509.728 591.981C510.55 599.272 510.051 614.613 510.014 622.498L506.206 621.781C503.776 619.237 504.886 595.774 504.937 590.657Z"/><path fill="white" d="M788.82 593.655C791.701 594.395 791.634 593.838 792.753 595.67C793.097 600.987 793.544 626.939 792.286 630.775C789.842 630.445 790.255 630.871 788.678 629.509C787.928 620.183 788.702 603.868 788.82 593.655Z"/><path fill="white" d="M60.4038 535.758C61.8289 535.895 62.5374 536.097 63.9135 536.412C66.1176 539.845 66.0976 554.659 63.6737 557.525C62.5897 557.375 58.4618 556.896 58.2192 556.236C56.8678 552.562 57.2619 539.779 58.3782 536.463L60.4038 535.758Z"/><path fill="white" d="M515.044 590.766C516.709 590.918 517.662 591.118 519.301 591.468C520.681 593.955 520.095 616.769 520.174 621.616C517.922 621.988 517.294 622.329 515.408 621.328C514.543 615.05 515.021 597.853 515.044 590.766Z"/><path fill="white" d="M515.038 507.74C516.964 507.819 518.179 507.634 519.706 508.765C520.501 514.027 520.043 532.909 520.034 539.331C517.557 538.973 516.866 539.316 515.303 537.823C514.513 530.368 515 515.725 515.038 507.74Z"/><path fill="white" d="M59.7934 619.106C67.1622 618.572 77.6529 616.105 73.0585 628.274L71.4375 629.003C66.3221 629.159 59.5073 630.421 57.5725 624.726C58.0847 621.89 58.1262 621.428 59.7934 619.106Z"/><path fill="white" d="M821.079 593.517C822.026 593.782 823.109 594.19 824.054 594.516C826.041 598.55 824.97 624.157 824.85 630.702L821.564 629.996C819.696 627.784 820.973 598.697 821.079 593.517Z"/><path fill="white" d="M428.036 507.721C429.821 507.821 431.171 507.673 432.609 508.662C433.467 515.336 432.972 531.937 432.941 539.345C430.947 539.124 430.597 539.037 428.661 538.474C427.474 535.34 428 512.684 428.036 507.721Z"/><path fill="white" d="M869.079 594.141C870.932 594.496 871.401 594.475 873.002 595.561C873.807 601.955 873.453 622.268 873.565 630.187C870.877 630 870.839 630.477 869.342 629.062C868.572 620.995 869.05 602.924 869.079 594.141Z"/><path fill="white" d="M836.726 593.625L840.058 594.479C841.657 596.777 841.028 625.296 841.032 630.675L837.731 629.851C835.893 626.941 836.736 599.757 836.726 593.625Z"/><path fill="white" d="M428.064 590.887C430.302 590.935 430.576 590.97 432.73 591.544C433.626 593.546 432.964 616.79 432.94 620.923C431.114 621.042 429.836 621.394 428.405 620.376C427.557 613.92 428.032 598.046 428.064 590.887Z"/><path fill="white" d="M853.083 593.621L855.764 594.249C858.504 597.256 857.03 625.198 856.955 630.669L854.239 630.021C851.463 626.999 852.965 599.318 853.083 593.621Z"/><path fill="white" d="M525.374 507.621C527.625 507.764 527.868 507.694 529.842 508.664C530.746 513.626 530.307 533.132 530.287 539.548C528.013 539.263 527.412 539.361 525.58 538.131C525.094 534.677 525.482 513.055 525.374 507.621Z"/><path fill="white" d="M773.019 593.791L776.036 594.555C777.981 597.402 776.969 625.806 776.907 631.186L773.195 629.972C772.459 628.478 773.014 598.179 773.019 593.791Z"/><path fill="white" d="M104.891 537.304L107.267 537.054C108.23 537.116 110.373 536.945 110.692 537.742C112.585 542.465 113.924 550.976 107.119 551.277L105.131 551.651C103.333 551.333 103.205 551.447 101.76 550.252C100.715 546.771 99.4036 540.14 102.361 537.204L104.891 537.304Z"/><path fill="white" d="M107.267 537.054C108.23 537.116 110.373 536.945 110.692 537.742C112.585 542.465 113.924 550.976 107.119 551.277C107.116 546.535 107.165 541.794 107.267 537.054Z"/><path fill="#1B1A1B" d="M104.891 537.304L107.267 537.054C107.165 541.794 107.116 546.535 107.119 551.277L105.131 551.651L104.891 537.304Z"/><path fill="white" d="M525.416 590.71C527.696 590.881 527.894 590.834 529.928 591.776C530.792 598.385 530.288 614.845 530.25 622.186C528.087 622.096 527.776 622.193 525.893 621.256C525.02 615.038 525.468 597.739 525.416 590.71Z"/><path fill="white" d="M438.071 507.523C440.258 507.723 440.517 507.724 442.55 508.483C443.894 511.367 443.169 534.888 443.098 539.654C441.015 539.247 441.082 539.281 439.248 538.224C438.496 534.522 438.284 512.996 438.071 507.523Z"/><path fill="white" d="M438.646 590.755C440.831 590.898 440.955 590.879 442.919 591.771C443.78 597.858 443.351 614.702 443.342 621.588C440.436 621.13 440.565 621.596 438.56 620.025C437.884 614.072 438.591 597.443 438.646 590.755Z"/><path fill="white" d="M741.012 594.221C742.378 594.502 743.219 594.838 744.507 595.308C745.561 600.442 744.972 624.242 744.91 630.8C743.681 630.457 742.476 630.036 741.264 629.635C740.43 625.862 740.97 599.976 741.012 594.221Z"/><path fill="white" d="M471.054 590.916C472.985 590.96 473.053 590.981 474.926 591.482C477.25 595.086 476.119 607.93 476.06 613.04C474.144 613.029 474.094 612.982 472.338 612.527C470.041 609.072 471.056 596.029 471.054 590.916Z"/><path fill="white" d="M462.414 590.606C463.678 590.773 464.742 591.091 465.967 591.417C468.167 594.731 467.115 608.285 467.061 613.097C465.753 613.015 464.925 612.839 463.649 612.616C461.316 609.388 462.36 595.366 462.414 590.606Z"/><path fill="white" d="M402.987 523.455C406.178 523.396 406.236 522.869 408.587 524.44C410.066 528.079 409.279 534.45 409.208 538.873C406.117 538.859 405.613 539.41 403.572 537.788C402.116 534.148 402.909 527.816 402.987 523.455Z"/><path fill="white" d="M380.047 523.067C382.813 523.08 383.799 522.663 385.638 524.572C386.861 528.262 386.157 534.76 386.174 538.949C383.225 538.877 382.727 539.388 380.781 537.812C379.237 534.017 379.959 527.599 380.047 523.067Z"/><path fill="white" d="M481.053 590.593C483.739 591.044 483.341 590.544 484.86 592.134C486.293 598.587 485.557 606.125 485.304 612.832L482.21 611.995C479.665 608.971 480.899 595.069 481.053 590.593Z"/><path fill="white" d="M472.343 520.71L474.718 521.147C477.44 524.805 476.188 535.128 475.606 539.803L472.462 538.94C469.831 536.147 470.238 524.074 472.343 520.71Z"/><path fill="white" d="M1329.62 487.784C1334.47 491.248 1334.01 504.139 1331.99 508.893L1329.06 507.738C1326.47 502.816 1328.13 492.945 1329.62 487.784Z"/><path fill="white" d="M391.667 523.322C394.799 523.485 394.699 522.966 396.867 524.7C398.211 528.467 397.501 534.79 397.466 539.219C394.631 539.012 394.291 539.465 392.331 537.902C390.859 534.073 391.593 527.885 391.667 523.322Z"/><path fill="white" d="M538.887 524.41C542.059 524.512 542.407 523.968 544.498 525.687C545.849 529.145 545.111 534.946 545.064 539.103C542.21 539.011 542.126 539.435 539.842 538.052C537.996 534.461 538.758 528.748 538.887 524.41Z"/><path fill="white" d="M475.288 384.262L477.046 384.83C479.579 387.89 477.9 407.544 477.707 412.454L475.686 411.558C474.003 407.873 474.862 388.993 475.288 384.262Z"/><path fill="white" d="M561.801 524.303C564.839 524.384 564.941 523.885 567.113 525.476C568.503 528.701 567.753 535.175 567.695 539.172C564.862 539.006 564.566 539.453 562.52 537.945C560.93 534.257 561.698 528.625 561.801 524.303Z"/><path fill="white" d="M589.268 419.522L591.116 420.32C592.84 424.085 592.062 444.699 591.471 449.456L589.636 448.159C588.127 444.458 588.911 424.301 589.268 419.522Z"/><path fill="white" d="M561.806 507.815C564.835 507.923 564.935 507.431 567.112 509.027C568.561 512.376 567.811 518.203 567.731 522.235C565.004 522.125 564.546 522.55 562.517 521.167C560.897 517.547 561.714 512.172 561.806 507.815Z"/><path fill="white" d="M463.333 520.814L465.724 521.163C468.451 524.759 467.163 535.143 466.629 539.822C463.702 539.038 464.291 539.663 462.736 537.696C461.85 533.304 461.69 524.963 463.333 520.814Z"/><path fill="white" d="M538.759 507.915C541.689 507.943 542 507.491 544.312 508.872C545.928 512.034 545.136 517.259 545.044 521.183C542.047 521.184 542.127 521.629 539.689 520.235C538.174 517.388 538.769 511.55 538.759 507.915Z"/><path fill="#B8B7B9" d="M1196.48 591.827L1196.19 591.418C1205.02 591.054 1239.55 590.102 1246.44 592.319C1241.36 593.204 1232.78 592.768 1227.4 592.529C1221.1 593.008 1202.47 593.043 1196.48 591.827Z"/><path fill="#323333" d="M1196.48 591.827C1202.6 591.643 1222.09 591.345 1227.4 592.529C1221.1 593.008 1202.47 593.043 1196.48 591.827Z"/><path fill="white" d="M550.411 524.386C553.496 524.476 553.272 523.967 555.296 525.459C556.753 528.848 556.011 534.982 555.94 539.084C552.94 538.975 553.393 539.422 551.16 538.055C549.625 534.49 550.364 528.681 550.411 524.386Z"/><path fill="white" d="M481.082 520.859C482.955 521.162 483.425 521.081 484.757 522.447C486.28 527.464 485.502 534.498 485.251 539.904C484.319 539.671 482.324 539.269 481.893 538.587C479.855 535.362 480.905 524.455 481.082 520.859Z"/><path fill="white" d="M402.926 507.893C405.279 507.812 406.475 507.516 408.415 508.707C410.039 511.432 409.306 516.441 409.283 520.089C406.907 520.128 405.824 520.405 403.87 519.257C402.055 516.337 402.841 511.728 402.926 507.893Z"/><path fill="white" d="M380.053 507.921C382.424 507.837 383.605 507.481 385.37 508.803C386.906 511.728 386.151 516.596 386.061 520.292C383.72 520.325 382.996 520.539 381.012 519.489C379.156 516.496 379.937 511.739 380.053 507.921Z"/><path fill="white" d="M8.98249 552.741L5.58097 552.822L4.46613 551.712C2.65173 545.565 2.64351 545.602 4.53801 539.484C6.51756 538.051 5.76176 538.469 8.94294 538.854L8.98249 552.741Z"/><path fill="white" d="M391.533 507.812C394.551 507.918 394.667 507.435 396.89 509C398.402 511.907 397.566 516.886 397.298 520.367C394.914 520.469 394.591 520.614 392.506 519.647C390.589 516.704 391.412 511.62 391.533 507.812Z"/><path fill="white" d="M550.435 507.882C552.67 507.814 553.455 507.547 555.191 508.732C556.825 512.192 556.041 517.059 555.94 521.218C553.113 521.17 553.37 521.59 551.234 520.366C549.646 517.3 550.378 511.736 550.435 507.882Z"/><path fill="white" d="M1328.39 626.71C1329.42 626.905 1330.67 627.281 1331.7 627.557C1335.08 631.127 1332.49 635.304 1333.59 643.335L1330.62 643.277C1327.69 638.736 1328.56 632.389 1328.39 626.71Z"/><path fill="white" d="M24.9567 537.595C26.9707 537.714 27.7864 537.54 29.2767 538.87C30.8252 542.813 30.0868 548.104 29.9598 552.574C27.2177 552.228 27.5372 552.671 25.5961 551.244C24.05 547.247 24.8202 542.135 24.9567 537.595Z"/><path fill="white" d="M58.2937 594.065C61.0643 593.946 63.2342 593.598 65.7937 594.572C67.3829 597.161 66.8134 598.476 66.8533 601.929C63.9877 602.052 61.2435 602.542 58.8429 601.236C57.561 599.275 58.1297 596.596 58.2937 594.065Z"/><path fill="white" d="M998.071 531.348L1000.61 531.931C1003.29 534.945 1002.11 544.803 1002 549.557L999.648 549.069C996.816 546.089 997.953 536.057 998.071 531.348Z"/><path fill="white" d="M32.096 537.687C34.009 537.746 34.4899 537.611 36.0737 538.721C37.5809 542.73 36.9574 547.954 36.9335 552.493C33.9485 552.226 34.6459 552.716 32.6049 551.124C31.3109 547.368 31.992 541.921 32.096 537.687Z"/><path fill="white" d="M11.2449 538.482C12.297 538.546 14.2202 538.316 14.6773 539.186C16.9837 543.573 16.6692 547.75 15.0268 552.165C12.9542 553.201 13.6562 552.896 11.0827 552.761C10.9525 547.538 11.0068 543.689 11.2449 538.482Z"/><path fill="white" d="M960.355 531.302L962.694 531.949C965.224 535.313 963.883 545.467 963.574 549.845C961.2 549.087 961.938 549.655 960.379 547.861C959.283 541.739 959.919 537.513 960.355 531.302Z"/><path fill="white" d="M989.087 531.338C990.874 531.64 991.211 531.573 992.48 532.899C993.707 537.946 993.102 544.135 992.967 549.496C991.18 549.256 991.081 549.379 989.663 548.188C988.325 543.431 988.949 536.501 989.087 531.338Z"/><path fill="white" d="M950.109 531.348C951.946 531.685 952.18 531.545 953.476 532.905C954.697 537.965 954.095 544.135 953.957 549.502C952.174 549.256 952.081 549.376 950.659 548.191C949.296 543.402 949.951 536.54 950.109 531.348Z"/><path fill="#858586" d="M733.998 649.82C732.217 649.796 727.446 649.584 726.125 648.542C734.585 647.769 755.167 648.818 764.665 649.05L767.624 648.998L767.976 649.481C762.612 650.762 739.488 650.945 733.998 649.82Z"/><path fill="#525053" d="M764.665 649.05L767.624 648.998L767.976 649.481C762.612 650.762 739.488 650.945 733.998 649.82C742.826 649.452 756.288 650.571 764.665 649.05Z"/><path fill="white" d="M432.423 645.172C435.507 645.027 439.181 644.467 441.641 646.002C441.619 648.934 440.47 649.511 438.511 652.336C436.575 652.61 432.408 651.057 430.88 649.636C431.045 646.583 430.66 647.767 432.423 645.172Z"/><path fill="white" d="M979.753 531.354L982.224 531.886C984.824 534.84 983.38 544.805 983.173 549.517L980.936 549.008C978.363 545.51 979.537 536.096 979.753 531.354Z"/><path fill="white" d="M970.258 531.303L972.09 531.853C974.784 534.938 973.94 545.096 973.883 549.639C972.812 549.369 971.186 549.209 970.762 548.474C968.783 545.051 970.015 535.003 970.258 531.303Z"/><path fill="white" d="M125.848 594.813C129.196 594.825 132.158 594.103 135.25 595.16C137.103 597.378 136.53 597.564 136.67 600.931C133.619 601.086 130.027 601.595 127.277 600.593C125.484 598.408 126.026 598.072 125.848 594.813Z"/><path fill="#858586" d="M449.571 632.046C456.559 631.453 487.995 630.819 493.711 632.873C482.577 633.441 461.261 633.728 450.358 632.987L449.571 632.046Z"/><path fill="white" d="M68.8044 594.08C71.5306 593.951 72.9782 593.687 75.592 594.531C77.1075 597.162 76.5014 598.434 76.4426 601.886C73.786 602.047 72.0927 602.422 69.6982 601.33C68.2524 599.308 68.7281 596.747 68.8044 594.08Z"/><path fill="white" d="M941.703 531.305C944.084 531.972 943.164 531.337 944.667 533.107C945.667 539.234 945.037 543.522 944.406 549.692L942.524 548.944C940.175 545.884 941.416 535.526 941.703 531.305Z"/><path fill="white" d="M94.0451 536.575C95.7283 536.801 95.7516 536.846 97.3321 537.505C99.1046 541.227 98.3332 547.368 98.1237 551.696C95.5606 551.069 96.0826 551.57 94.4086 549.951C93.1364 546.045 93.803 540.793 94.0451 536.575Z"/><path fill="white" d="M1351.08 537.324C1353.55 537.797 1352.98 537.328 1354.57 538.836C1355.79 542.866 1355.21 548.364 1355.01 552.695L1352.58 552.192C1349.77 548.866 1350.85 541.899 1351.08 537.324Z"/><path fill="white" d="M127.077 536.572C128.738 536.809 128.73 536.839 130.275 537.521C131.947 541.079 131.176 547.169 130.974 551.356C128.222 550.965 129.034 551.474 127.279 549.757C126.151 546.001 126.828 540.624 127.077 536.572Z"/><path fill="white" d="M1390.94 537.131C1392.73 537.519 1392.72 537.449 1394.34 538.492C1395.75 542.561 1395.1 548.249 1394.97 552.769C1393.24 552.449 1393.11 552.549 1391.68 551.443C1390.38 547.492 1390.88 541.551 1390.94 537.131Z"/><path fill="white" d="M133.1 536.574C134.741 536.818 134.732 536.845 136.256 537.528C137.954 541.088 137.17 547.139 136.962 551.333C134.226 550.948 135.028 551.453 133.284 549.753C132.188 545.999 132.854 540.615 133.1 536.574Z"/><path fill="white" d="M18.3359 537.305C24.428 538.976 22.0819 547.795 21.6195 553.296L19.1062 552.269C16.8021 549.041 17.9796 541.398 18.3359 537.305Z"/><path fill="white" d="M1377.79 537.297C1379.58 537.571 1379.64 537.467 1381.15 538.59C1382.33 542.461 1381.75 548.521 1381.63 552.855C1379.84 552.473 1379.93 552.522 1378.38 551.565C1377.01 547.436 1377.66 541.827 1377.79 537.297Z"/><path fill="#EFF0F0" d="M471.082 383.803L472.139 384.483C473.904 386.911 472.994 407.246 472.913 411.851L471.927 411.433C470.223 408.968 470.893 388.029 471.082 383.803Z"/><path fill="white" d="M1364.07 537.182C1365.88 537.554 1365.79 537.496 1367.36 538.47C1368.76 542.593 1368.09 548.18 1367.95 552.71C1366.48 552.451 1366.27 552.281 1364.94 551.675C1363.41 547.936 1363.97 541.46 1364.07 537.182Z"/><path fill="white" d="M120.077 536.562C121.834 536.843 121.889 536.745 123.385 537.829C124.59 541.827 124.07 547.132 124.086 551.572C122.318 551.249 122.306 551.326 120.711 550.316C119.228 546.667 119.921 540.671 120.077 536.562Z"/><path fill="white" d="M1170.7 537.153C1172.48 537.489 1172.63 537.38 1174.05 538.562C1175.4 542.119 1175.1 547.608 1175.12 551.566C1173.38 551.462 1173.01 551.567 1171.6 550.485C1170.06 546.745 1170.65 541.383 1170.7 537.153Z"/><path fill="white" d="M1192.09 537.331C1193.84 537.611 1193.84 537.69 1195.32 538.499C1196.75 542.272 1195.87 547.847 1195.58 552.033C1193.25 551.357 1193.94 551.87 1192.33 550.243C1191.21 546.411 1191.84 541.419 1192.09 537.331Z"/><path fill="white" d="M114.06 536.544C115.76 536.837 115.67 536.82 117.178 537.669C118.49 541.379 117.816 547.258 117.658 551.381C116.424 551.245 115.838 550.886 114.699 550.386C113.174 546.69 113.893 540.761 114.06 536.544Z"/><path fill="white" d="M1142.98 536.615C1144.63 536.901 1144.89 536.803 1146.24 537.833C1147.41 541.508 1146.74 547.381 1146.61 551.505C1144.95 551.343 1145.06 551.373 1143.64 550.494C1142.27 546.744 1142.88 540.8 1142.98 536.615Z"/><path fill="white" d="M1180.99 537.171C1182.63 537.576 1182.69 537.675 1184.11 538.459C1185.76 542.135 1185.11 547.751 1184.97 551.921C1183.52 551.625 1183.34 551.482 1181.99 550.844C1180.41 547.116 1180.95 541.404 1180.99 537.171Z"/><path fill="white" d="M1201.84 537.322L1203.82 537.844C1206.61 540.826 1205.78 547.567 1205.73 551.937L1203.04 551.101C1201.05 548.054 1201.69 541.106 1201.84 537.322Z"/><path fill="white" d="M1404.52 537.107C1405.36 537.387 1406.34 537.841 1407.17 538.192C1408.64 541.457 1408.17 547.829 1408.14 551.583C1406.33 552.192 1407.22 552.144 1405.37 551.766C1403.84 548.904 1404.43 540.721 1404.52 537.107Z"/><path fill="white" d="M1160.97 537.372C1163.33 537.862 1162.85 537.429 1164.45 538.836C1165.73 542.488 1164.91 547.726 1164.59 551.728L1162.74 551.247C1160.2 548.351 1160.93 541.465 1160.97 537.372Z"/><path fill="#EFF0F0" d="M1033.94 609.512C1038.74 608.742 1059.24 608.721 1063.72 609.675C1059.39 611.47 1037.37 611.829 1033.94 609.512Z"/><path fill="white" d="M1151.04 537.074C1152.62 537.486 1152.52 537.469 1153.81 538.489C1155.16 542.452 1154.94 547.456 1155.01 551.721C1153.57 551.421 1153.41 551.304 1152.06 550.673C1150.31 547.136 1150.93 541.241 1151.04 537.074Z"/><path fill="#858586" d="M12.5824 616.266C17.0128 615.555 41.0164 615.027 44.5875 616.774C40.5006 617.696 16.4312 618.156 12.5824 616.266Z"/><path fill="white" d="M591.019 671.022C592.544 673.518 593.029 684.128 589.983 686.174C589.748 681.886 587.712 677.665 588.322 673.529C588.538 672.064 589.377 672.031 591.019 671.022Z"/><path fill="white" d="M23.9636 593.943C26.1276 593.928 26.3191 593.942 28.3962 594.502C29.9031 597.192 29.2958 598.582 29.2376 602.069C26.9902 602.077 27.012 602.106 24.872 601.48C23.3926 599.006 23.9629 597.237 23.9636 593.943Z"/><path fill="white" d="M30.9174 593.631C32.9254 593.832 33.1957 593.907 35.1433 594.483C36.7165 597.251 36.0552 598.913 35.9717 602.544C33.8626 602.259 33.5072 602.301 31.6491 601.358C30.224 599.25 30.7862 596.377 30.9174 593.631Z"/><path fill="white" d="M3.88107 593.646C5.91591 593.82 6.26049 593.786 8.13053 594.52C9.66208 597.235 9.04137 599.022 8.99909 602.557C6.88892 602.282 6.51466 602.327 4.65265 601.393C3.19308 599.257 3.75214 596.431 3.88107 593.646Z"/><path fill="white" d="M1212.47 537.285C1213.85 537.947 1213.44 537.733 1214.61 538.788C1215.64 543.263 1215.1 547.415 1214.68 551.965L1213.01 550.507C1211.52 545.662 1211.88 542.284 1212.47 537.285Z"/><path fill="white" d="M17.9789 593.415C19.2663 593.775 19.929 594.051 21.152 594.529C22.6852 596.987 22.0528 599.905 21.8587 602.986C20.0722 602.464 19.8045 602.329 18.1283 601.484C16.7959 599.154 17.6112 596.285 17.9789 593.415Z"/><path fill="white" d="M11.0756 593.524C12.2736 593.742 13.3452 594.094 14.5086 594.442C16.1025 597.274 15.4969 598.486 15.4749 602.135C13.5902 602.048 13.5541 601.983 11.8472 601.424C10.3561 599.236 10.935 596.374 11.0756 593.524Z"/><path fill="white" d="M105.83 594.384C107.199 594.541 108.536 594.761 109.897 594.969C111.598 597.043 111.014 598.305 111.107 601.563C109.662 601.321 108.317 600.98 106.896 600.64C105.245 598.335 105.835 597.73 105.83 594.384Z"/><path fill="#B8B7B9" d="M1034.67 663.511C1044.02 662.999 1053.51 662.649 1062.84 663.544C1050.38 664.813 1047.39 665.003 1034.67 663.511Z"/><path fill="white" d="M469.783 699.033C471.946 701.441 473.339 703.856 473.521 707.116L472.533 706.797C470.116 704.824 468.537 704.262 466.387 701.762L466.646 700.463L469.783 699.033Z"/><path fill="#B8B7B9" d="M1044.36 677.723C1046.87 677.281 1059.22 677.246 1060.61 678.689L1055.85 679.018C1049.97 679.017 1042.91 679.214 1037.15 678.612C1038.73 677.987 1042.48 677.864 1044.36 677.723Z"/><path fill="white" d="M118.815 594.274C120.295 594.449 121.507 594.691 122.956 594.978C124.469 597.023 123.983 598.296 124.108 601.278C122.342 601.111 121.786 600.989 120.045 600.574C118.57 598.381 119.001 597.258 118.815 594.274Z"/><path fill="#858586" d="M346.076 626.019C351.029 625.319 363.121 625.294 367.729 626.882C362.106 627.298 352.4 627.438 346.886 627.023L346.076 626.019Z"/><path fill="#EFF0F0" d="M1298.38 597.59C1303.53 596.919 1306.95 597.031 1312.03 598L1311.79 598.532L1307 599.028C1302.85 599.097 1298.7 599.017 1294.55 598.788L1294.23 598.22L1298.38 597.59Z"/><path fill="#B8B7B9" d="M1350.24 597.513C1354.76 596.91 1361.59 596.644 1366 597.689C1361.48 598.297 1354.05 599.738 1350.24 597.513Z"/><path fill="#EFF0F0" d="M864.136 638.784C869.065 638.147 870.518 637.532 874.36 640.345C870.388 639.812 868.232 640.621 864.136 638.784Z"/><path fill="#020202" d="M897.776 456.129C896.464 429.088 896.297 396.088 896.013 369.066C895.505 320.82 893.548 248.427 904.547 202.072C911.395 235.303 912.482 268.585 913.404 302.371C914.33 346.233 914.391 390.108 913.586 433.972C911.535 426.185 911.368 411.765 910.65 403.163L905.091 330.33C903.437 331.025 903.992 330.683 903.035 332.825C900.132 371.316 901.717 411.793 899.155 449.64C898.603 451.835 898.005 453.878 897.776 456.129Z"/><path fill="#EFF0F0" d="M903.035 332.825C902.984 329.511 902.668 317.654 903.834 315.265C904.464 320.66 904.933 324.867 905.091 330.33C903.437 331.025 903.992 330.683 903.035 332.825Z"/><path fill="#020202" d="M896.991 669.991L898.538 673.557L900.036 805.325C900.257 832.632 902.125 871.23 897.07 897.696C892.173 858.314 894.69 820.904 894.901 781.503C895.1 744.373 897.057 707.041 896.991 669.991Z"/><path fill="#323333" d="M0 631.394C8.89036 631.651 17.3112 631.892 26.1965 632.606L26.1606 633.131L27.5493 633.019L26.0955 632.764L25.8971 633.316C16.8813 633.921 8.99927 633.956 0 633.957L0 631.394Z"/><path fill="#020202" d="M0 626.367C5.40517 625.976 27.7989 624.68 31.4422 627.438C23.2454 629.017 8.47823 627.008 0 626.896L0 626.367Z"/><path fill="#1B1A1B" d="M552.868 643.779C560.223 643.802 565.402 644.095 572.733 644.784C569.825 646.028 555.81 645.951 552.063 645.947L552.868 643.779Z"/><path fill="#323333" d="M1165.21 619.101C1168.94 619.367 1174.22 619.542 1177.7 620.519L1176.15 620.258L1175.44 620.884C1165.4 621.35 1152.21 621.387 1142.05 621.067C1148.86 619.689 1157.51 621.105 1164.75 620.05L1165.21 619.101Z"/><path fill="#525053" d="M334.537 893.38C334.506 900.118 334.665 906.586 333.688 913.257C332.661 911.347 332.951 900.49 333.038 898.141L334.537 893.38Z"/><path fill="#525053" d="M896.911 653.331L898.537 653.525C898.281 660.371 898.406 666.711 898.538 673.557L896.991 669.991L896.911 653.331Z"/><path fill="#525053" d="M333.087 175.955C332.877 170.744 332.799 168.404 333.44 163.283C334.653 164.65 334.512 181.258 334.409 184.095C333.892 181.932 333.439 178.272 333.087 175.955Z"/><path fill="#323333" d="M1330.69 409.738C1330.63 407.084 1330.21 400.68 1331.31 398.522C1332.38 401.509 1332.11 406.394 1332.12 409.723L1330.69 409.738Z"/><path fill="#020202" d="M1048.89 394.848C1057.43 394.957 1064.4 399.151 1069.35 405.97C1072.81 410.746 1080.39 427.057 1079.56 432.429C1075.92 433.146 1057.83 433.286 1052.36 433.567C1045.46 433.694 1027.09 433.538 1020.76 432.569C1018.73 430.932 1019.16 431.743 1018.54 429.49C1019.35 427.038 1021.73 425.72 1021.78 425.528C1026.23 409.947 1029.96 397.272 1048.89 394.848Z"/><path fill="#020202" d="M1049.15 695.765C1056.35 695.316 1080 694.533 1082.58 702.511C1080.96 707.445 1077.83 707.621 1073.47 708.566C1075.57 711.231 1078.67 710.783 1077.17 715.063C1072.87 719.339 1063.46 720.104 1057.15 721.397C1060.71 722.315 1065.26 722.612 1066.39 726.348C1064.08 730.224 1054.61 730.591 1050.55 730.912C1045.95 730.768 1028.5 729.021 1029.73 722.407C1031.89 720.019 1035.16 719.375 1038.35 718.313C1035.76 718.128 1033.18 717.813 1030.62 717.37C1027.8 716.863 1020.51 714.945 1019.11 712.258C1017.6 709.356 1020.97 708.822 1021.54 705.919C1017.7 704.225 1017.58 705.018 1015.44 702.101C1015.83 694.057 1043.06 695.846 1049.15 695.765Z"/><path fill="#020202" d="M470.932 761.178C478.196 761.687 485.472 762.021 492.752 762.181C490.265 763.344 488.066 763.778 485.417 764.442C481.933 765.353 472.975 766.795 471.139 768.832L470.932 761.178Z"/></svg>