<svg width="1635" height="358" viewBox="0 0 1635 358" fill="none" xmlns="http://www.w3.org/2000/svg">
<g clip-path="url(#clip0_30_157)">
<path d="M795.085 197.473C803.007 197.002 812.473 197.453 820.53 197.482C825.426 197.5 839.58 197.333 843.768 198.22C839.63 199.118 826.003 198.942 821.013 198.949C803.25 198.975 782.384 200.606 764.848 198.661C771.739 197.719 787.194 197.518 794.541 197.486L795.085 197.473Z" fill="white"/>
<path d="M794.614 135.828C794.725 134.734 795.016 133.74 795.284 132.673C795.278 134.438 795.027 143.32 795.679 144.327L796.048 144.312C794.944 148.762 796.542 163.349 795.568 167.37C794.907 165.992 794.7 165.306 794.258 163.859C793.935 161.125 793.912 146.188 794.396 143.788C794.718 142.732 794.617 137.377 794.614 135.828Z" fill="white"/>
<path d="M794.258 163.859C794.7 165.306 794.907 165.992 795.568 167.37C794.446 174.472 795.938 189.353 795.085 197.473L794.541 197.486C794.146 194.109 794.238 188.143 794.235 184.619L794.258 163.859Z" fill="white"/>
<path d="M913.917 205.515C922.004 203.891 934.916 204.361 943.539 204.372C942.489 204.617 941.589 204.695 940.811 205.393C937.275 205.256 931.901 205.08 928.473 205.244C922.554 205.528 919.84 206.063 913.917 205.515Z" fill="white"/>
<path d="M793.559 228.959C795.448 227.969 793.15 204.872 794.657 202.932C795.527 204.054 795.245 218.176 795.228 220.826C794.204 222.357 794.512 230.066 794.984 231.828L794.193 231.733C794.101 230.323 794.32 229.927 793.559 228.959Z" fill="white"/>
<path d="M1038.35 208.706C1035.3 208.913 1026.55 208.405 1023.51 207.983C1024.39 207.519 1050.45 207.692 1053.22 207.726C1049.51 208.237 1040.78 207.623 1038.46 208.254L1038.35 208.706Z" fill="white"/>
<path d="M458.068 202.979C464.276 202.703 471.723 202.908 477.973 203.039C474.978 203.82 468.258 203.968 464.957 203.933C463.239 202.329 460.843 203.58 458.068 202.979Z" fill="white"/>
<path d="M1080.85 201.864C1078.75 201.735 1073 201.55 1071.34 201.064C1077.08 200.564 1086.47 200.701 1092.4 200.807C1089.45 201.233 1082.05 200.949 1080.41 201.428L1080.85 201.864Z" fill="white"/>
<path d="M1040.69 213.08C1039.38 213.151 1035.21 212.696 1033.92 212.435C1036.31 211.951 1039.04 212.068 1041.5 212.072L1040.39 212.688L1040.69 213.08Z" fill="white"/>
<path d="M587.556 117.471C588.732 118.78 587.628 120.979 588.6 122.525C589.771 120.924 587.75 119.173 589.927 118.127C590.221 118.272 604.784 148.52 606.115 151.267C601.156 151.376 595.825 151.302 590.839 151.315C590.803 148.734 589.326 147.893 587.234 149.321C586.965 150.084 586.878 150.557 586.302 151.13C581.778 151.614 574.645 151.34 569.915 151.292C571.083 148.586 573.396 144.778 574.772 142.047C578.835 133.986 583.825 125.638 587.556 117.471Z" fill="white"/>
<path d="M520.635 3.53061C520.383 2.47868 520.163 0.698722 519.992 -0.428101L518.564 32.8202C518.398 36.8703 518.447 40.9307 518.118 44.9711C518.076 45.4857 516.835 46.0556 516.422 46.2682C515.826 47.4601 516.001 47.0516 516.06 48.5213C516.625 49.6783 517.071 49.7687 518.252 50.3878L518.262 51.0162C513.441 55.2959 522.735 56.0288 516.272 59.1058C515.71 60.2525 515.793 59.738 515.88 61.0302L517.303 62.157C516.536 62.8208 512.532 63.5557 511.201 63.9316C511.648 66.8953 511.538 68.8941 511.849 71.5548C513.687 73.218 514.451 73.7447 516.568 75.052L516.576 81.1325C506.905 82.7452 512.416 83.4703 512.074 86.2847C511.339 87.2048 510.392 88.0452 510.662 89.2455C511.477 92.8691 513.482 93.8247 516.284 94.9569C515.446 113.952 515.506 133.581 514.811 152.695C502.452 152.746 490.092 152.721 477.733 152.617L477.766 162.359C474.631 162.855 475.111 162.969 472.54 161.288C470.901 160.217 467.329 161.558 466.877 163.883C466.342 166.629 462.315 167.301 459.98 169.155L459.181 173.212C455.779 174.504 453.939 174.764 452.312 178.311C452.341 178.248 451.32 178.435 451.292 178.217C445.303 173.687 442.336 161.453 432.02 164.097C430.04 164.605 428.341 166.364 426.86 167.907C426.02 166.527 427.216 165.92 426.179 165.045C418.329 164.69 409.278 164.93 401.337 164.97L401.03 152.785C397.59 149.132 393.732 144.701 390.197 141.272C387.32 144.131 382.369 148.767 379.929 151.758L379.784 164.953L373.613 164.964L373.611 153.732L358.002 153.75V169.155H348.002L340.002 176C340.002 176 329.502 176 328.502 178.217C328.179 178.933 328.903 180.765 328.075 182C326.926 183.716 324.002 183.5 323.002 183.5C322.002 183.5 321.284 184.917 320.002 185.5C318.72 186.083 313.5 186 313.5 187C313.5 187.497 322 188.319 322 189.5C322 190 317.085 190.888 317 191.5C316.915 192.112 331.776 191.448 331.5 192C331 193 324.66 193.66 325.5 194.5C326 195 338.424 196.136 340.5 196.5C342.952 196.93 344.5 197.5 345 198.5C345.25 199 343 200 339.5 201C338.058 201.412 326.5 202.5 327 203.5C327.5 204.5 343.489 205.117 348.502 205.332C353.516 205.548 339.515 206.324 338.002 208C336.648 209.5 351.002 209.5 351.002 210.88C351.002 212 344.002 213 345.002 214C346.002 215 351.502 215 353.502 215.5C354.738 215.809 354.68 216.841 358.002 216.923C361.324 217.005 377.014 216.626 378.851 217.296C378.396 224.715 385.009 227.456 390.212 230.794C391.774 229.957 398.296 226.094 399.326 224.925C399.665 224.54 401.203 218.068 401.588 216.858C403.499 215.798 420.456 217.146 425.185 215.629C417.711 214.413 407.954 215.22 401.247 214.013L400.82 213.934C407.944 213.14 420.021 213.091 427.357 213.097C430.373 216.662 438.942 214.488 442.336 212.579C443.253 209.815 444.767 209.451 447.346 208.031C449.686 204.683 447.9 205.253 448.977 203.038C450.107 202.537 456.393 202.936 458.071 202.979C460.845 203.58 463.242 202.329 464.959 203.933C462.402 204.4 459.727 204.515 457.412 205.332L457.619 205.615C460.849 205.93 464.02 206.106 467.244 206.245C469.174 206.328 476.832 205.971 477.869 206.772C477.633 207.239 477.496 207.586 476.822 207.605C471.105 207.765 465.671 208.09 459.99 208.862C462.782 209.253 477.689 210.047 478.68 210.88C478.275 211.906 478.038 212.503 477.515 213.469L477.201 213.486C474.002 213.653 471.137 213.803 467.937 214.211L467.799 214.415C473.318 214.763 476.315 215.563 481.618 216.281C487.007 217.01 511.195 216.979 514.786 218.653C512.478 220.716 481.944 221.232 476.705 221.576L477.058 221.639C482.695 222.601 513.417 222.971 514.543 223.771C514.779 224.822 514.841 224.375 514.202 225.418C512.939 226.168 497.346 226.319 494.074 226.792C500.518 227.227 508.438 227.56 514.966 227.756C515.28 236.267 515.579 244.797 515.919 253.306C515.985 254.953 515.098 256.384 515.071 257.77C515.047 258.996 516.893 261.134 515.629 262.408C514.529 263.516 512.96 263.525 512.351 264.764L512.898 265.579C511.864 265.973 511.314 266.19 510.341 266.705L510.288 267.333C510.892 267.838 511.323 268.171 511.961 268.631C511.199 270.183 509.26 268.953 509.93 271.43C511.944 273.365 514.699 272.719 516.523 274.274C516.068 275.807 512.639 276.22 511.137 277.886C510.94 280.762 515.971 280.602 517.35 282.67C516.823 285.054 515.167 285.294 513.075 286.007L513.128 290.741C514.218 290.993 516.543 291.424 517.384 291.988C516.844 293.215 516.196 294.265 516.359 295.539C518.255 296.771 518.144 295.885 518.493 297.481C518.029 298.476 517.872 298.576 517.1 299.388C516.912 300.784 517.57 301.494 518.34 302.771C517.544 303.335 517.337 303.499 516.654 304.192C516.615 305.808 517.083 306.052 518.276 307.083C519.008 313.343 518.975 320.111 519.159 326.446L519.968 350.791L520.697 348.476C521.535 335.176 520.788 321.385 521.981 308.055C522.091 306.834 523.247 307.521 523.776 305.644C523.401 303.903 522.42 303.875 521.615 302.373L522.933 301.913C523.903 299.816 521.976 300.227 521.413 297.439C521.989 296.081 522.02 296.748 523.698 295.705L523.885 294.704C523.248 293.429 522.911 293.492 521.627 292.63L521.534 292.131C522.987 290.931 524.718 291.915 526.694 290.679C528.476 286.818 523.053 286.664 523.387 282.328C524.765 280.148 528.934 281.071 529.172 277.363C528.215 275.735 524.18 275.247 521.794 274.303C524.491 273.222 529.346 273.263 530.724 270.657C530.173 269.349 529.211 269.147 527.818 268.54C527.751 267.51 529.597 268.056 530.178 266.394C528.742 264.987 528.7 266.342 527.61 265.129L528.355 264.501C528.67 263.355 524.981 262.454 524.964 261.793C524.852 257.585 525.991 256.806 524.314 252.512C525.78 247.427 525.622 233.675 525.799 227.702C537.831 227.716 549.923 227.78 561.955 227.651C563.26 227.637 565.169 228.217 566.112 229.197L565.952 229.781C563.117 231.244 541.655 230.451 536.241 231.443C542.201 232.699 571.302 230.907 573.571 234.504C572.96 237.204 568.867 236.688 567.553 238.801C570.745 241.19 578.26 239.516 580.083 242.416C578.825 244.069 575.274 243.915 574.984 245.986C576.47 248.81 586.423 249.045 589.453 250.071C589.474 250.078 590.46 249.257 591.232 249.217L591.184 249.713C587.653 252.132 588.819 250.128 587.119 250.134C587.545 251.492 587.65 251.162 587.385 252.381C586.37 253.306 582.376 254.167 580.748 254.607C585.639 258.65 591 258.958 584.929 266.148C585.953 266.94 586.776 267.58 587.015 268.909C587.419 271.16 585.739 271.013 585.025 272.104C585.308 272.229 586.437 272.743 586.567 272.846C587.491 273.582 587.105 279.604 587.092 280.98C588.994 281.771 595.832 284.069 597.135 281.941C595.304 281.62 591.204 281.556 590.124 280.333C590.943 279.923 591.101 280.032 591.406 279.382C590.947 279.224 590.49 279.062 590.033 278.898C584.449 276.859 590.416 273.583 590.42 272.389C590.438 265.891 589.006 266.039 591.793 260.075C591.015 259.285 589.077 257.613 589.161 256.628C592.266 254.152 591.041 254.855 594.42 254.226C593.31 253.425 591.001 253.079 590.621 251.748C592.045 250.802 592.299 250.583 593.337 249.228L593.582 248.905L593.983 248.834C595.925 248.482 602.267 247.144 603.309 245.648C602.3 243.961 599.638 244.35 599.273 242.085C600.486 240.014 605.401 238.972 607.816 238.236C606.041 237.093 604.081 236.252 603.654 234.304C605.325 232.407 609.708 232.649 612.065 231.107L612.012 230.674C610.964 230.164 610.208 229.792 609.205 229.182C612.38 228.548 622.96 228.194 626.486 228.142L626.877 227.088C624.523 226.881 614.376 226.803 613.499 226.019C616.18 225.059 635.469 224.498 640.044 224.228L640.047 260.065L650.174 260.088L650.161 224.24C681.9 223.668 714.013 223.591 745.784 223.326C752.263 223.272 759.914 222.986 766.212 224.004C759.36 224.445 752.45 223.917 745.868 224.247C726.487 225.216 707.093 224.717 687.738 226.563C682.502 227.063 673.652 227.136 668.93 227.951C681.267 229.117 693.741 229.496 706.034 231.001C720.362 232.756 735.419 233.461 749.62 235.783C744.716 236.313 738.281 236.776 733.696 238.193C747.77 242.233 759.503 244.087 774.032 239.03C770.18 237.883 765.261 237.399 761.172 236.75C770.218 234.782 783.123 235.382 792.518 233.777C787.976 233.246 783.424 232.813 778.863 232.479C777.186 232.341 773.021 232.109 771.528 231.761C772.986 231.35 780.221 230.952 782.188 230.776C786.546 230.387 789.252 229.907 793.561 228.959C794.322 229.927 794.103 230.323 794.195 231.733L794.986 231.828C794.514 230.066 794.206 222.357 795.23 220.826C795.603 223.601 795.65 225.415 795.707 228.189C805.824 226.699 813.25 227.927 823.276 227.124C818.239 223.914 815.649 225.011 809.982 223.702L809.579 223.607C818.541 220.523 821.283 220.757 830.662 220.343C823.267 215.694 814.703 218.963 811.774 216.991C813.15 215.926 844.457 216.084 846.261 217.89C844.295 219.732 838.416 218.262 835.499 219.787L835.594 220.255C838.591 221.841 842.64 221.517 846.29 221.881C846.29 224.938 846.572 228.36 846.64 231.493C846.728 235.404 846.592 239.928 847.039 243.752C848.921 243.774 850.905 243.878 852.797 243.946C850.633 244.391 848.775 244.589 847.433 246.475C847.433 247.367 847.521 247.654 848.211 248.274C851.776 251.495 878.257 249.843 884.01 249.414C885.921 249.271 888.265 249.062 889.598 247.521C889.272 245.459 886.845 245.688 885.114 244.248L889.467 243.683L889.457 227.488C894.019 226.949 899.893 226.943 904.027 226.164C899.101 225.373 894.34 225.274 889.885 224.485C889.33 223.633 889.486 223.953 889.564 222.739C892.258 220.964 911.303 220.53 916.326 219.72C906.897 218.895 899.344 218.328 889.87 218.024L889.685 217.746C893.24 215.943 907.845 216.667 913.413 216.042C916.725 215.372 920.932 216.061 924.453 215.548L924.677 215.086C914.863 214.045 899.675 213.567 889.739 213.423C893.902 212.497 900.564 212.635 904.995 212.623L926.919 212.605C932.803 212.601 939.539 212.746 945.297 211.865C941.363 211.78 935.872 210.867 931.913 210.339C929.102 209.963 915.466 210.4 913.963 209.487C916.341 207.322 926.466 209.003 929.715 208.757C936.64 208.233 945.209 208.888 951.96 208.014L951.892 207.596C948.833 206.853 944.626 206.315 940.813 205.393C941.591 204.695 942.491 204.618 943.541 204.372C950.583 204.332 960.436 203.681 966.793 205.72C965.115 205.71 962.883 205.51 961.458 206.256L961.185 206.61L961.35 207.044L962.314 207.68L962.187 207.682C964.721 208.423 971.777 208.536 972.57 209.294C969.954 210.734 963.029 208.006 961.195 210.067L961.448 210.721C962.586 211.218 967.444 211.51 969.429 211.907C967.42 212.333 965.407 212.732 963.388 213.105C965.621 213.762 970.09 214.421 971.612 215.177L971.434 216.277C973.66 217.12 978.553 217.071 980.76 216.819L981.062 215.699L981.212 215.733L981.329 216.745L981.538 216.711L981.728 215.87L982.097 215.97C979.491 215.091 976.947 215.241 974.233 214.935C977.103 214.682 983.571 214.671 985.283 212.144L985.088 211.584C983.79 211.271 981.373 211.142 980.648 210.477L980.672 209.419C981.874 208.509 994.888 207.713 995.734 208.647L994.547 209.569C995.238 211.187 996.658 210.33 997.081 212.083C997.568 213.753 996.692 215.33 996.614 217.014C996.571 218.021 998.136 218.881 998.166 219.17C998.662 224.116 998.978 229.009 999.999 233.904C1000.04 234.08 1001.43 234.715 1001.65 234.812C1002.91 240.033 1003.7 246.57 1004.65 251.967C1004.87 253.219 1004.6 256.98 1005.06 257.655C1005.66 256.921 1005.22 254.19 1005.57 253.067C1007.3 247.512 1008.27 233.891 1011.89 229.739C1011.89 226.915 1011.71 222.218 1012.56 219.679C1014.89 217.791 1032.94 218.487 1037.42 218.281C1029.75 216.566 1021.83 217.941 1012.69 215.746C1021.19 214.202 1032.32 215.28 1041.17 214.663C1043.35 214.511 1046.78 214.849 1048.7 214.206L1048.66 213.88C1046.83 213.387 1042.76 213.239 1040.69 213.08L1040.39 212.688L1041.51 212.072C1043.52 212.053 1057.04 211.269 1058.03 210.587L1058.24 210.648L1058.14 210.881L1058.39 210.685C1055 209.66 1042.49 208.991 1038.35 208.706L1038.46 208.254C1040.78 207.623 1049.51 208.237 1053.22 207.726C1059.27 207.043 1065.32 206.908 1071.4 206.369C1065.16 205.137 1055.3 205.365 1048.77 204.913C1045.75 204.704 1043.1 205.079 1039.88 204.521L1039.77 204.221C1041.94 203.676 1058.81 203.878 1062.4 203.85C1072.57 203.73 1082.73 203.4 1092.88 202.862C1088.53 201.473 1085.43 201.832 1080.85 201.864L1080.41 201.428C1082.05 200.949 1102.5 200.5 1105 199.5C1107.5 198.5 1097.5 198 1096 197C1093.06 195.039 1116.84 195.671 1115.5 195C1114.5 194.5 1102.24 193.524 1102.5 193C1103 192 1109 192 1112.5 191.5C1116 191 1127.74 191.169 1128.5 191C1128.5 190 1112.85 188.242 1114 188C1115.96 187.578 1122 188 1122.5 187C1123 186.002 1098.28 186 1094.5 186C1090.55 186 1081.5 186 1077.5 185C1073.5 184 1068 182 1066.28 180.878C1065.56 179.856 1066.18 178.264 1065.85 177.023C1065.03 173.921 1062.52 176.121 1060.76 175.327C1059.87 174.273 1059.81 173.06 1059.6 171.703C1056.1 171.6 1054.57 171.997 1051.1 172.552C1049.89 171.917 1050.22 170.264 1048.78 168.728C1046.3 166.085 1043.6 163.53 1041.01 161.016L1012.05 161.037C1012.06 157.544 1012.25 151.622 1011.76 148.373C1009.4 146.182 1010.99 145.576 1010.64 142.431C1010.46 140.851 1009.22 141.727 1008.93 139.826C1007.74 132.005 1007.47 120.707 1005.85 113.26L1005.15 113.267C1004.2 119.099 1003.41 124.957 1002.79 130.833C1002.48 133.614 1002.16 138.617 1001.54 141.009L1001.33 141.134C1000.53 141.611 1000.45 141.622 999.926 142.356C999.873 143.394 1000.35 146.16 1000.24 146.605C999.79 148.41 998.565 148.258 998.521 150.621C998.37 158.185 999.274 163.963 995.131 170.796C994.64 171.602 994.81 177.424 994.81 178.967C993.132 179.059 991.192 179.12 989.548 179.302C989.465 177.906 989.329 171.232 989.183 170.584L988.133 170.235C984.33 160.015 981.728 156.293 969.613 159.292C966.17 160.145 963.972 163.95 962.566 166.849C959.571 173.036 962.182 181.17 952.825 181.02V168.635L948.016 168.572L948.069 163.003C940.653 163.01 933.042 162.818 925.63 162.236C924.541 162.15 919.906 166.992 919.147 168.265L913.88 166.859L913.885 161.533L899.261 161.545L899.276 155.478L889.549 155.43C889.559 152.864 889.987 135.832 889.034 134.812L888.207 134.543C887.842 132.815 888.046 128.474 888.08 126.511L848.216 126.526C848.25 128.07 848.362 130.587 848.133 132.043C846.903 139.897 847.195 147.465 847.224 155.409L837.347 155.342L837.281 159.692C823.51 154.41 810.018 149.912 796.05 144.312L795.681 144.327C795.029 143.32 795.28 134.438 795.286 132.673C795.018 133.74 794.727 134.734 794.616 135.828C794.619 137.377 794.72 142.732 794.398 143.788C788.624 141.39 782.929 138.804 777.324 136.033C750.447 122.506 759.782 122.354 731.773 134.372C721.538 138.755 711.216 142.935 700.815 146.908C685.692 152.839 685.475 153.376 669.356 153.318L650.19 153.295L650.192 111.411L640.04 111.419L640.044 147.384C633.25 147.703 624.748 149.95 618.003 151.407C615.768 148.116 611.112 142.721 608.498 139.369C602.745 131.922 597.061 124.423 591.445 116.872C591.389 111.944 592.209 96.394 591.448 93.283C591.245 94.7915 590.997 99.4642 589.661 100.01C588.59 98.0893 588.735 85.437 589.052 82.8916C590.238 82.7928 590.342 84.3569 590.748 84.4036C594.773 84.8675 594.66 83.7713 598.255 86.0945L598.3 79.4528C595.226 78.8103 591.982 76.9078 589.221 76.8144C588.696 76.3534 588.443 76.0825 588.057 75.477C587.243 78.7524 589.04 98.4701 587.485 99.9072C586.779 98.5883 586.385 95.4111 586.108 93.7921L585.899 93.6788C585.376 99.5877 586.084 110.66 586.046 117.509C583.033 120.656 578.629 126.628 575.762 130.285C570.319 137.256 564.771 144.144 559.119 150.947L537.004 146.687L536.993 152.801L525.56 152.762C525.293 147.622 525.394 141.825 525.237 136.582C524.767 122.687 524.458 108.788 524.31 94.8864C529.491 93.0782 532.416 91.2272 528.366 86.2769C527.939 85.7556 529.552 84.0009 529.598 82.7447C528.238 81.5435 525.785 81.4394 523.882 81.1495L523.846 74.7689C527.591 73.4476 528.731 72.9836 529.057 68.9096C529.676 61.1624 524.633 63.6028 523.332 62.2348C523.892 61.7032 524.107 61.4455 524.589 60.8648C524.342 59.3431 523.807 59.1982 522.489 58.0835C522.267 57.0189 522.325 56.9591 522.686 55.8931C523.51 55.2492 523.73 55.1427 524.294 54.2872C524.184 52.7626 523.314 52.1911 522.309 50.8017C523.049 49.6968 523.06 49.9711 524.547 49.5115C525.279 46.8785 522.395 45.7084 522.306 45.0786C521.839 41.7862 521.72 32.1627 521.628 29.323C521.361 20.7233 521.03 12.1255 520.635 3.53061Z" fill="#B31FDF"/>
<path d="M575.474 226.831C584.123 226.752 595.967 226.399 604.438 226.86C602.767 227.261 601.09 227.635 599.407 227.98C604.475 228.974 605.058 228.12 610.383 230.79C607.887 230.956 599.419 232.164 598.122 234.351C598.657 235.208 601.954 237.093 603.142 237.917C601.069 238.872 594.889 239.959 594.721 242.105L595.879 243.187C597.24 243.93 598.453 244.859 599.71 245.768C599.254 245.984 598.795 246.194 598.333 246.398C591.581 249.376 584.989 248.784 578.301 246.204C579.799 244.903 583.056 242.794 584.835 241.588C584.756 241.556 584.676 241.523 584.597 241.491L584.195 241.339C581.06 240.127 575.613 239.338 572.068 238.616C574.531 237.12 576.741 236.061 578.74 233.993C576.834 233.172 574.292 232.93 573.144 231.464C573.154 229.936 573.344 230.208 574.391 228.804C575.382 227.474 574.149 228.909 574.307 227.246L575.474 226.831Z" fill="white"/>
<path d="M866.957 138.757C878.682 138.276 875.93 162.454 875.19 170.147L870.925 170.211L861.35 170.291C861.393 162.862 860.761 153.663 861.768 146.372C862.23 143.047 864.127 140.56 866.957 138.757Z" fill="white"/>
<path d="M867.215 142.279C876.056 142.668 873.508 161.4 873.503 168.278L869.559 168.331L863.295 168.326C863.246 163.179 863.11 157.968 863.251 152.828C863.373 148.565 863.762 145.031 867.215 142.279Z" fill="#B31FDF"/>
<path d="M861.374 219.907C866.121 219.869 870.862 219.874 875.609 219.923C874.442 226.275 876.363 227.227 875.108 232.946C872.448 233.908 869.393 234.21 866.573 234.312C858.933 234.586 860.956 224.595 861.374 219.907Z" fill="white"/>
<path d="M708.476 152.311C728.931 151.89 764.546 152.547 786.386 152.323C786.553 152.48 786.72 152.636 786.887 152.793L786.92 154.229C767.691 154.229 729.704 154.396 709.089 154.056C708.745 154.051 708.6 152.845 708.476 152.311Z" fill="white"/>
<path d="M387.178 154.765L394.008 154.766L394.01 169.665L387.209 169.646L387.178 154.765Z" fill="white"/>
<path d="M525.787 223.094C531.764 223.026 562.611 222.579 565.299 225.468C558.407 225.846 550.058 225.583 543.061 225.708C538.738 225.784 530.33 225.981 526.234 225.601C525.598 224.722 525.81 224.344 525.787 223.094Z" fill="white"/>
<path d="M593.792 122.948C595.406 124.344 608.882 143.875 611.308 147.156L609.274 149.071C608.863 149.957 608.688 150.216 608.13 151.024C607.199 150.361 594.813 125.478 593.792 122.948Z" fill="white"/>
<path d="M664.646 219.912C677.508 219.881 691.313 219.383 703.996 220.94C699.971 221.541 692.293 221.458 688.004 221.511C682.953 221.567 652.94 221.8 650.767 220.871L651.074 220.455C652.769 219.939 662.123 219.966 664.646 219.912Z" fill="white"/>
<path d="M832.222 209.949C834.47 209.505 837.938 210.056 840.288 210.336C838.958 210.4 836.447 210.303 835.793 211.602C837.699 212.976 842.441 212.53 844.946 213.173C841.539 213.818 837.865 213.33 834.131 213.941L833.682 214.018C831.374 214.045 816.405 213.305 815.429 212.495L815.489 212.056C817.876 210.668 826.756 211.378 832.222 209.949Z" fill="white"/>
<path d="M861.282 214.071C864.569 213.905 873.946 212.538 875.657 215.741C875.58 217.028 875.628 217.27 875.137 218.426C871.358 218.426 865.513 218.994 861.914 218.126C861.121 217.934 861.077 217.489 860.751 216.811C860.82 215.481 860.776 215.264 861.282 214.071Z" fill="white"/>
<path d="M582.079 124.874C582.271 126.24 570.147 146.914 568.53 149.805L567.996 149.932L567.468 149.093C566.763 148.307 566.293 147.7 565.657 146.855C571.182 139.701 576.576 132.12 582.079 124.874Z" fill="white"/>
<path d="M882.198 165.893L890.5 165.939L890.554 170.276C894.731 170.421 913.703 170.035 916.256 170.672L916.762 171.622C908.305 171.982 897.304 171.617 888.652 171.585L888.574 167.487C886.877 167.458 883.623 167.882 882.359 167.036L882.198 165.893Z" fill="white"/>
<path d="M845.408 165.422C847.256 165.384 852.941 165.013 854.225 165.959C853.933 168.012 849.863 165.967 847.115 168.947C840.314 169.339 830.426 168.821 823.234 168.79C820.318 168.814 817.424 168.87 814.511 168.726L814.241 168.345C815.597 167.398 840.249 168.175 844.693 167.772C845.432 167.09 845.252 166.641 845.408 165.422Z" fill="white"/>
<path d="M597.726 201.435C599.062 201.399 599.521 201.309 600.808 201.739C601.099 203.256 601.096 214.196 601.134 216.557C599.888 216.564 599.023 216.697 597.926 216.146C597.474 214.416 597.706 203.874 597.726 201.435Z" fill="white"/>
<path d="M597.732 161.025C598.837 161.015 599.918 160.853 600.82 161.389C601.238 164.606 601.018 172.603 601.012 176.173C599.749 176.179 599.005 176.313 597.914 175.701C597.475 173.908 597.709 163.539 597.732 161.025Z" fill="white"/>
<path d="M662.469 161.499C663.516 161.496 663.755 161.424 664.672 161.853C664.979 163.665 665.212 174.958 664.322 176.373C663.788 176.302 661.763 176.064 661.696 175.752C661.205 173.501 661.284 163.719 661.71 161.875L662.469 161.499Z" fill="white"/>
<path d="M653.257 161.506C654.478 161.49 654.808 161.386 655.839 161.936C656.266 164.196 655.998 173.375 655.952 176.251C654.779 176.205 653.914 176.286 652.879 175.763C652.586 173.765 652.351 162.99 653.257 161.506Z" fill="white"/>
<path d="M576.387 161.018C577.414 161.012 578.422 160.868 579.264 161.397C579.68 164.573 579.456 172.565 579.447 176.096L579.143 176.106C577.905 176.136 577.255 176.252 576.521 175.555C576.118 172.167 576.365 164.708 576.387 161.018Z" fill="white"/>
<path d="M620.059 201.413C621.189 201.41 621.996 201.261 622.9 201.868C623.299 204.131 623.083 213.524 623.076 216.516C621.822 216.538 621.539 216.571 620.353 216.197C619.822 214.431 620.045 203.946 620.059 201.413Z" fill="white"/>
<path d="M576.381 201.432C577.657 201.479 578.349 201.284 579.289 201.891C579.686 205.003 579.451 212.59 579.434 216.034C578.354 216.056 577.471 216.213 576.571 215.695C576.154 212.603 576.372 204.871 576.381 201.432Z" fill="white"/>
<path d="M553.963 201.4C555.243 201.381 555.512 201.357 556.727 201.729C557.21 203.263 557.038 213.633 557.037 216.045C555.617 216.004 555.123 216.237 554.105 215.544C553.691 212.312 553.937 204.944 553.963 201.4Z" fill="white"/>
<path d="M560.817 160.957C562.075 160.96 562.326 160.893 563.467 161.337C564.005 163.261 563.74 173.552 563.715 176.217C562.891 176.177 562.158 176.085 561.339 175.987C560.304 174.895 560.794 163.256 560.817 160.957Z" fill="white"/>
<path d="M749.469 158.943C750.39 159.04 751.162 158.978 751.793 159.587C752.203 163.407 751.942 172.84 751.921 177.038C750.926 176.902 750.698 176.838 749.743 176.517C749.126 174.829 749.447 161.495 749.469 158.943Z" fill="white"/>
<path d="M741.712 159.047C742.849 159.057 742.933 159.027 743.953 159.468C744.438 161.573 744.186 173.906 744.169 176.807C743.098 176.84 742.899 176.909 741.94 176.514C741.446 174.609 741.695 161.739 741.712 159.047Z" fill="white"/>
<path d="M765.052 159.048C766.193 159.058 766.277 159.028 767.303 159.466C767.8 161.306 767.534 174.163 767.513 176.762C766.619 176.775 766.29 176.706 765.402 176.555C764.71 175.323 765.038 161.3 765.052 159.048Z" fill="white"/>
<path d="M726.105 158.935C728.284 159.187 728.511 158.935 728.542 161.085C728.62 166.428 728.578 171.796 728.563 177.139C727.462 176.978 727.204 177.012 726.29 176.439C725.873 174.205 726.096 161.939 726.105 158.935Z" fill="white"/>
<path d="M710.091 202.945C711.171 202.985 711.565 202.883 712.371 203.506C712.824 206.361 712.558 217.256 712.541 220.726L710.686 220.378C709.555 219.171 710.069 205.66 710.091 202.945Z" fill="white"/>
<path d="M542.823 201.417C543.931 201.408 544.68 201.267 545.584 201.855C545.981 203.948 545.788 213.368 545.783 216.034C544.727 216.057 543.906 216.207 543.026 215.693C542.602 212.666 542.815 204.807 542.823 201.417Z" fill="white"/>
<path d="M560.793 201.436C562.009 201.48 562.693 201.297 563.581 201.896C563.976 205.001 563.742 212.608 563.725 216.046C562.465 216.091 562.192 216.178 561.053 215.74C560.524 213.889 560.77 204.025 560.793 201.436Z" fill="white"/>
<path d="M671.459 161.321C672.821 161.545 672.706 161.3 673.493 162.09C673.686 164.386 674.056 175.069 672.904 176.551C672.392 176.427 670.993 176.128 670.944 175.81C670.563 173.343 670.1 162.697 671.459 161.321Z" fill="white"/>
<path d="M688.721 161.529C690 161.492 690.177 161.435 691.36 161.831C691.977 163.259 691.668 173.779 691.642 176.104C690.383 176.165 690.206 176.224 689.029 175.866C688.453 174.376 688.705 163.845 688.721 161.529Z" fill="white"/>
<path d="M631.189 201.418C632.235 201.414 632.546 201.453 633.583 201.625C634.307 202.794 634.054 214.26 634.051 216.456C632.793 216.521 632.583 216.593 631.419 216.212C630.974 214.866 631.175 203.57 631.189 201.418Z" fill="white"/>
<path d="M392.007 174.664C393.15 174.659 394.184 174.491 395.083 175.091C395.292 176.853 395.623 183.604 394.829 184.874C393.619 184.882 392.023 185.041 391.23 184.334C390.893 182.03 390.884 177.406 391.276 175.091L392.007 174.664Z" fill="white"/>
<path d="M733.946 158.991C735.063 159.123 735.443 158.973 736.192 159.613C736.652 163.372 736.355 172.793 736.336 177.049C735.303 176.942 735.04 176.982 734.159 176.492C733.731 174.509 733.934 161.767 733.946 158.991Z" fill="white"/>
<path d="M757.306 158.99C758.357 159.057 758.461 159.052 759.438 159.408C759.974 162.087 759.686 173.672 759.66 176.964C758.366 176.762 758.233 176.968 757.444 176.244C756.987 172.284 757.284 163.409 757.306 158.99Z" fill="white"/>
<path d="M548.445 201.372C549.629 201.389 550.124 201.289 551.141 201.811C551.555 204.877 551.309 212.682 551.286 216.103C550.034 216.11 549.785 216.182 548.661 215.724C548.213 213.998 548.428 203.922 548.445 201.372Z" fill="white"/>
<path d="M625.589 201.393C626.638 201.399 627.304 201.299 628.216 201.772C628.61 204.713 628.386 213.164 628.377 216.509C627.3 216.519 626.964 216.476 625.902 216.278C625.474 215.102 625.595 203.725 625.589 201.393Z" fill="white"/>
<path d="M780.647 158.983C781.551 159.055 782.18 158.976 782.817 159.577C783.205 163.316 782.957 172.682 782.94 176.819L781.095 176.572C780.251 175.334 780.636 161.621 780.647 158.983Z" fill="white"/>
<path d="M710.606 158.983C711.623 159.068 711.701 159.09 712.682 159.388C713.122 160.8 712.908 174.609 712.896 176.873C711.614 176.724 711.535 176.939 710.76 176.248C710.299 172.391 710.592 163.359 710.606 158.983Z" fill="white"/>
<path d="M679.716 161.59C680.809 161.554 681.461 161.396 682.319 161.986C682.73 164.872 682.482 172.695 682.46 176.056C681.326 176.163 680.903 176.323 679.944 175.828C679.477 174.043 679.698 164.171 679.716 161.59Z" fill="white"/>
<path d="M718.367 159.004C719.25 159.066 719.816 158.984 720.443 159.574C720.832 163.428 720.584 172.652 720.57 176.861C719.299 176.718 719.394 176.919 718.488 176.274C718.093 172.37 718.347 163.257 718.367 159.004Z" fill="white"/>
<path d="M725.924 203.055C726.973 203.181 726.956 203.178 727.926 203.598C728.408 205.348 728.132 218.06 728.107 220.551C727.105 220.518 727.08 220.509 726.112 220.232C725.586 218.529 725.897 205.551 725.924 203.055Z" fill="white"/>
<path d="M772.864 158.902C773.861 159.02 773.944 159.001 774.803 159.479C775.268 163.059 774.971 173.228 774.947 177.264C773.913 176.975 773.846 176.943 772.943 176.37C772.519 173.064 772.818 162.721 772.864 158.902Z" fill="white"/>
<path d="M749.307 202.85C750.237 202.917 750.608 202.846 751.323 203.438C751.785 206.701 751.491 216.817 751.467 220.66C750.724 220.599 750.287 220.489 749.574 220.327C749.121 218.8 749.303 205.359 749.307 202.85Z" fill="white"/>
<path d="M603.56 160.865C604.659 160.941 604.755 160.958 605.789 161.321C606.309 163.302 606.051 173.688 606.024 176.409C604.774 176.16 604.483 176.316 603.655 175.531C603.26 171.734 603.522 164.888 603.56 160.865Z" fill="white"/>
<path d="M603.565 201.253C604.48 201.353 605.26 201.297 605.895 201.897C606.295 205.443 606.052 212.904 606.034 216.738L604.182 216.39C603 215.152 603.54 203.742 603.565 201.253Z" fill="white"/>
<path d="M741.625 202.711C743.026 203.071 742.994 202.8 743.538 203.691C743.705 206.277 743.923 218.898 743.311 220.764C742.122 220.603 742.323 220.81 741.556 220.148C741.192 215.612 741.568 207.678 741.625 202.711Z" fill="white"/>
<path d="M387.376 174.554C388.069 174.621 388.414 174.719 389.083 174.872C390.155 176.542 390.145 183.746 388.966 185.14C388.439 185.067 386.432 184.834 386.314 184.513C385.656 182.726 385.848 176.51 386.391 174.897L387.376 174.554Z" fill="white"/>
<path d="M608.48 201.306C609.29 201.38 609.754 201.477 610.551 201.648C611.222 202.857 610.937 213.952 610.975 216.309C609.88 216.49 609.575 216.656 608.657 216.169C608.237 213.116 608.469 204.753 608.48 201.306Z" fill="white"/>
<path d="M608.478 160.928C609.414 160.967 610.005 160.877 610.748 161.427C611.134 163.986 610.912 173.169 610.907 176.292C609.703 176.118 609.366 176.285 608.606 175.558C608.222 171.933 608.459 164.812 608.478 160.928Z" fill="white"/>
<path d="M387.079 215.089C390.663 214.829 395.765 213.629 393.53 219.547L392.742 219.902C390.254 219.978 386.94 220.591 385.999 217.822C386.248 216.443 386.268 216.218 387.079 215.089Z" fill="white"/>
<path d="M757.314 202.644C757.774 202.773 758.301 202.971 758.761 203.13C759.727 205.092 759.206 217.545 759.148 220.728L757.55 220.385C756.641 219.309 757.262 205.163 757.314 202.644Z" fill="white"/>
<path d="M566.166 160.919C567.034 160.968 567.691 160.896 568.39 161.377C568.807 164.622 568.566 172.696 568.551 176.299C567.582 176.191 567.411 176.149 566.47 175.875C565.893 174.351 566.148 163.333 566.166 160.919Z" fill="white"/>
<path d="M780.658 202.948C781.559 203.12 781.787 203.11 782.565 203.638C782.957 206.748 782.785 216.626 782.839 220.478C781.532 220.387 781.513 220.619 780.785 219.931C780.411 216.007 780.643 207.219 780.658 202.948Z" fill="white"/>
<path d="M764.923 202.697L766.544 203.112C767.321 204.229 767.016 218.099 767.018 220.715L765.412 220.314C764.518 218.899 764.928 205.679 764.923 202.697Z" fill="white"/>
<path d="M566.18 201.365C567.268 201.388 567.401 201.405 568.449 201.684C568.884 202.658 568.563 213.962 568.551 215.972C567.663 216.03 567.041 216.201 566.345 215.706C565.933 212.567 566.164 204.847 566.18 201.365Z" fill="white"/>
<path d="M772.878 202.695L774.182 203C775.515 204.462 774.798 218.051 774.761 220.712L773.44 220.397C772.09 218.927 772.821 205.465 772.878 202.695Z" fill="white"/>
<path d="M613.504 160.87C614.599 160.94 614.717 160.906 615.677 161.378C616.117 163.791 615.903 173.277 615.893 176.397C614.788 176.259 614.495 176.306 613.604 175.708C613.368 174.028 613.557 163.513 613.504 160.87Z" fill="white"/>
<path d="M733.941 202.777L735.408 203.149C736.354 204.533 735.862 218.347 735.832 220.964L734.026 220.373C733.669 219.647 733.938 204.911 733.941 202.777Z" fill="white"/>
<path d="M409.011 175.306L410.167 175.184C410.635 175.215 411.678 175.131 411.833 175.519C412.753 177.816 413.404 181.955 410.095 182.101L409.128 182.283C408.254 182.129 408.192 182.184 407.489 181.603C406.981 179.91 406.343 176.685 407.781 175.257L409.011 175.306Z" fill="white"/>
<path d="M410.167 175.184C410.635 175.215 411.677 175.131 411.833 175.519C412.753 177.816 413.404 181.955 410.095 182.101C410.094 179.795 410.117 177.49 410.167 175.184Z" fill="white"/>
<path d="M409.011 175.306L410.167 175.184C410.117 177.49 410.094 179.795 410.095 182.101L409.128 182.283L409.011 175.306Z" fill="#B31FDF"/>
<path d="M613.525 201.279C614.633 201.362 614.73 201.339 615.719 201.797C616.139 205.011 615.894 213.016 615.875 216.587C614.824 216.543 614.672 216.59 613.757 216.134C613.332 213.11 613.55 204.697 613.525 201.279Z" fill="white"/>
<path d="M571.046 160.823C572.11 160.92 572.236 160.92 573.225 161.29C573.878 162.692 573.526 174.131 573.491 176.449C572.478 176.251 572.511 176.267 571.619 175.753C571.253 173.953 571.15 163.484 571.046 160.823Z" fill="white"/>
<path d="M571.326 201.301C572.389 201.37 572.449 201.361 573.404 201.795C573.823 204.755 573.614 212.947 573.61 216.296C572.196 216.073 572.259 216.3 571.284 215.536C570.955 212.641 571.299 204.553 571.326 201.301Z" fill="white"/>
<path d="M718.375 202.986C719.039 203.123 719.448 203.286 720.075 203.515C720.587 206.012 720.301 217.586 720.271 220.776C719.673 220.609 719.087 220.404 718.498 220.209C718.092 218.374 718.355 205.785 718.375 202.986Z" fill="white"/>
<path d="M587.087 201.379C588.026 201.401 588.059 201.411 588.97 201.654C590.1 203.407 589.55 209.654 589.521 212.139C588.59 212.133 588.565 212.11 587.711 211.889C586.594 210.209 587.088 203.866 587.087 201.379Z" fill="white"/>
<path d="M582.885 201.228C583.5 201.309 584.017 201.464 584.613 201.623C585.683 203.234 585.171 209.826 585.145 212.166C584.509 212.126 584.106 212.041 583.486 211.932C582.351 210.362 582.859 203.543 582.885 201.228Z" fill="white"/>
<path d="M553.984 168.571C555.536 168.542 555.564 168.286 556.707 169.05C557.427 170.82 557.044 173.918 557.009 176.069C555.506 176.062 555.261 176.33 554.268 175.541C553.56 173.771 553.946 170.692 553.984 168.571Z" fill="white"/>
<path d="M542.828 168.382C544.173 168.389 544.652 168.186 545.547 169.114C546.141 170.909 545.799 174.069 545.807 176.106C544.373 176.071 544.131 176.32 543.184 175.553C542.434 173.707 542.785 170.586 542.828 168.382Z" fill="white"/>
<path d="M591.95 201.222C593.256 201.441 593.062 201.198 593.801 201.971C594.498 205.11 594.14 208.776 594.017 212.037L592.512 211.63C591.275 210.16 591.875 203.399 591.95 201.222Z" fill="white"/>
<path d="M587.714 167.236L588.869 167.448C590.193 169.227 589.584 174.248 589.301 176.521L587.772 176.102C586.492 174.743 586.69 168.872 587.714 167.236Z" fill="white"/>
<path d="M1004.63 151.223C1006.99 152.908 1006.77 159.177 1005.78 161.489L1004.36 160.927C1003.1 158.534 1003.91 153.733 1004.63 151.223Z" fill="white"/>
<path d="M548.479 168.506C550.002 168.585 549.953 168.333 551.008 169.176C551.661 171.008 551.316 174.083 551.299 176.237C549.92 176.137 549.755 176.357 548.802 175.597C548.086 173.735 548.443 170.725 548.479 168.506Z" fill="white"/>
<path d="M620.076 169.035C621.619 169.085 621.788 168.82 622.805 169.656C623.462 171.338 623.103 174.159 623.08 176.181C621.692 176.136 621.651 176.342 620.54 175.67C619.643 173.923 620.013 171.145 620.076 169.035Z" fill="white"/>
<path d="M589.146 100.877L590.001 101.154C591.233 102.642 590.416 112.2 590.322 114.588L589.339 114.152C588.521 112.36 588.939 103.178 589.146 100.877Z" fill="white"/>
<path d="M631.22 168.983C632.697 169.023 632.747 168.78 633.803 169.554C634.479 171.122 634.114 174.271 634.086 176.215C632.708 176.134 632.564 176.351 631.569 175.618C630.796 173.824 631.17 171.085 631.22 168.983Z" fill="white"/>
<path d="M644.578 118.025L645.476 118.413C646.315 120.244 645.936 130.27 645.649 132.583L644.757 131.952C644.023 130.152 644.404 120.349 644.578 118.025Z" fill="white"/>
<path d="M631.222 160.965C632.695 161.017 632.744 160.778 633.803 161.554C634.507 163.183 634.142 166.017 634.104 167.978C632.777 167.924 632.555 168.131 631.568 167.458C630.78 165.698 631.177 163.084 631.222 160.965Z" fill="white"/>
<path d="M583.332 167.286L584.495 167.456C585.821 169.205 585.194 174.255 584.935 176.531C583.511 176.149 583.798 176.453 583.042 175.497C582.611 173.361 582.533 169.304 583.332 167.286Z" fill="white"/>
<path d="M620.014 161.013C621.439 161.027 621.59 160.807 622.714 161.479C623.5 163.017 623.115 165.558 623.07 167.466C621.613 167.466 621.652 167.683 620.466 167.005C619.729 165.62 620.019 162.781 620.014 161.013Z" fill="white"/>
<path d="M939.882 201.822L939.741 201.623C944.035 201.446 960.828 200.983 964.179 202.061C961.708 202.492 957.536 202.28 954.919 202.164C951.855 202.396 942.795 202.414 939.882 201.822Z" fill="white"/>
<path d="M939.882 201.822C942.858 201.733 952.337 201.588 954.919 202.164C951.855 202.396 942.795 202.414 939.882 201.822Z" fill="#B31FDF"/>
<path d="M625.68 169.024C627.181 169.067 627.072 168.82 628.056 169.546C628.765 171.194 628.404 174.177 628.369 176.172C626.91 176.119 627.131 176.336 626.045 175.671C625.298 173.938 625.658 171.112 625.68 169.024Z" fill="white"/>
<path d="M591.964 167.308C592.875 167.456 593.103 167.416 593.751 168.081C594.492 170.521 594.113 173.941 593.991 176.57C593.538 176.457 592.568 176.262 592.358 175.93C591.367 174.362 591.878 169.057 591.964 167.308Z" fill="white"/>
<path d="M553.954 161.003C555.099 160.963 555.68 160.819 556.624 161.399C557.414 162.724 557.057 165.16 557.046 166.934C555.89 166.953 555.364 167.088 554.413 166.529C553.531 165.109 553.913 162.868 553.954 161.003Z" fill="white"/>
<path d="M542.83 161.016C543.984 160.975 544.558 160.802 545.416 161.445C546.163 162.868 545.796 165.235 545.752 167.033C544.614 167.049 544.262 167.153 543.297 166.642C542.394 165.187 542.774 162.873 542.83 161.016Z" fill="white"/>
<path d="M362.368 182.814L360.714 182.853L360.172 182.313C359.29 179.324 359.286 179.342 360.207 176.366C361.17 175.669 360.802 175.873 362.349 176.06L362.368 182.814Z" fill="white"/>
<path d="M548.413 160.963C549.881 161.015 549.938 160.78 551.019 161.541C551.754 162.955 551.348 165.376 551.217 167.069C550.058 167.119 549.901 167.189 548.887 166.719C547.954 165.288 548.355 162.815 548.413 160.963Z" fill="white"/>
<path d="M625.692 160.997C626.779 160.964 627.161 160.834 628.005 161.411C628.8 163.093 628.418 165.46 628.369 167.483C626.994 167.46 627.119 167.664 626.081 167.069C625.308 165.578 625.664 162.872 625.692 160.997Z" fill="white"/>
<path d="M1004.03 218.787C1004.53 218.882 1005.14 219.064 1005.64 219.199C1007.29 220.935 1006.03 222.966 1006.56 226.872L1005.12 226.844C1003.69 224.635 1004.12 221.549 1004.03 218.787Z" fill="white"/>
<path d="M370.137 175.448C371.117 175.505 371.513 175.421 372.238 176.068C372.991 177.985 372.632 180.558 372.57 182.732C371.237 182.564 371.392 182.779 370.448 182.085C369.696 180.142 370.071 177.655 370.137 175.448Z" fill="white"/>
<path d="M386.35 202.911C387.697 202.853 388.753 202.683 389.997 203.157C390.77 204.416 390.493 205.056 390.513 206.735C389.119 206.795 387.784 207.033 386.617 206.398C385.994 205.444 386.27 204.141 386.35 202.911Z" fill="white"/>
<path d="M843.39 172.409L844.625 172.693C845.928 174.159 845.354 178.953 845.301 181.265L844.157 181.028C842.78 179.578 843.333 174.7 843.39 172.409Z" fill="white"/>
<path d="M373.609 175.492C374.54 175.521 374.773 175.455 375.544 175.995C376.277 177.945 375.973 180.485 375.962 182.693C374.51 182.563 374.849 182.801 373.857 182.027C373.227 180.2 373.559 177.551 373.609 175.492Z" fill="white"/>
<path d="M363.469 175.879C363.98 175.91 364.916 175.798 365.138 176.221C366.26 178.355 366.107 180.386 365.308 182.533C364.3 183.037 364.641 182.889 363.39 182.823C363.327 180.283 363.353 178.411 363.469 175.879Z" fill="white"/>
<path d="M825.048 172.387L826.185 172.702C827.415 174.338 826.763 179.276 826.613 181.405C825.459 181.036 825.817 181.313 825.059 180.44C824.526 177.463 824.836 175.408 825.048 172.387Z" fill="white"/>
<path d="M839.021 172.405C839.89 172.552 840.054 172.519 840.671 173.164C841.268 175.618 840.973 178.628 840.908 181.235C840.039 181.119 839.991 181.178 839.301 180.599C838.65 178.286 838.954 174.916 839.021 172.405Z" fill="white"/>
<path d="M820.065 172.409C820.958 172.573 821.072 172.505 821.702 173.167C822.296 175.628 822.003 178.628 821.936 181.238C821.069 181.119 821.024 181.177 820.332 180.601C819.669 178.272 819.988 174.935 820.065 172.409Z" fill="white"/>
<path d="M714.964 230.026C714.098 230.014 711.777 229.911 711.135 229.404C715.249 229.028 725.259 229.538 729.878 229.651L731.317 229.626L731.488 229.861C728.88 230.484 717.634 230.573 714.964 230.026Z" fill="white"/>
<path d="M729.878 229.651L731.317 229.626L731.488 229.861C728.88 230.484 717.634 230.573 714.964 230.026C719.257 229.847 725.804 230.391 729.878 229.651Z" fill="white"/>
<path d="M568.299 227.765C569.799 227.695 571.586 227.422 572.782 228.169C572.772 229.595 572.213 229.875 571.26 231.249C570.319 231.383 568.292 230.627 567.549 229.936C567.629 228.452 567.442 229.027 568.299 227.765Z" fill="white"/>
<path d="M834.481 172.412L835.683 172.671C836.948 174.108 836.245 178.954 836.145 181.246L835.057 180.998C833.805 179.297 834.376 174.719 834.481 172.412Z" fill="white"/>
<path d="M829.864 172.388L830.755 172.655C832.065 174.155 831.654 179.095 831.627 181.305C831.106 181.174 830.315 181.096 830.109 180.738C829.146 179.074 829.746 174.187 829.864 172.388Z" fill="white"/>
<path d="M419.203 203.274C420.832 203.28 422.272 202.929 423.776 203.443C424.677 204.522 424.398 204.612 424.466 206.25C422.983 206.325 421.236 206.573 419.898 206.085C419.026 205.023 419.29 204.859 419.203 203.274Z" fill="white"/>
<path d="M576.639 221.382C580.037 221.093 595.326 220.785 598.106 221.784C592.691 222.06 582.324 222.2 577.022 221.839L576.639 221.382Z" fill="white"/>
<path d="M391.462 202.918C392.787 202.855 393.491 202.727 394.763 203.137C395.5 204.417 395.205 205.035 395.176 206.714C393.884 206.792 393.061 206.975 391.896 206.444C391.193 205.46 391.424 204.215 391.462 202.918Z" fill="white"/>
<path d="M815.977 172.389C817.135 172.713 816.687 172.404 817.418 173.265C817.904 176.245 817.598 178.33 817.291 181.331L816.376 180.967C815.234 179.479 815.837 174.441 815.977 172.389Z" fill="white"/>
<path d="M403.737 174.952C404.555 175.061 404.567 175.083 405.335 175.404C406.197 177.214 405.822 180.2 405.72 182.305C404.474 182 404.728 182.244 403.914 181.457C403.295 179.557 403.619 177.003 403.737 174.952Z" fill="white"/>
<path d="M1015.07 175.316C1016.27 175.546 1015.99 175.318 1016.77 176.051C1017.36 178.011 1017.08 180.685 1016.98 182.791L1015.8 182.547C1014.43 180.929 1014.96 177.541 1015.07 175.316Z" fill="white"/>
<path d="M419.801 174.95C420.609 175.065 420.605 175.08 421.356 175.412C422.17 177.142 421.795 180.104 421.696 182.14C420.358 181.95 420.753 182.197 419.899 181.362C419.351 179.536 419.68 176.921 419.801 174.95Z" fill="white"/>
<path d="M1034.45 175.222C1035.32 175.411 1035.32 175.377 1036.11 175.884C1036.79 177.863 1036.48 180.629 1036.41 182.827C1035.57 182.671 1035.51 182.72 1034.81 182.182C1034.18 180.261 1034.42 177.371 1034.45 175.222Z" fill="white"/>
<path d="M422.73 174.951C423.528 175.07 423.524 175.083 424.265 175.415C425.091 177.146 424.71 180.089 424.608 182.129C423.278 181.942 423.668 182.187 422.82 181.36C422.287 179.535 422.611 176.916 422.73 174.951Z" fill="white"/>
<path d="M366.917 175.307C369.88 176.119 368.739 180.408 368.514 183.083L367.292 182.584C366.171 181.014 366.744 177.297 366.917 175.307Z" fill="white"/>
<path d="M1028.06 175.303C1028.93 175.436 1028.96 175.385 1029.69 175.931C1030.27 177.814 1029.98 180.761 1029.93 182.869C1029.06 182.683 1029.1 182.707 1028.34 182.242C1027.68 180.233 1027.99 177.506 1028.06 175.303Z" fill="white"/>
<path d="M587.1 100.654L587.614 100.985C588.473 102.166 588.03 112.055 587.991 114.295L587.511 114.091C586.683 112.893 587.008 102.709 587.1 100.654Z" fill="white"/>
<path d="M1021.39 175.247C1022.27 175.428 1022.22 175.399 1022.99 175.873C1023.67 177.878 1023.34 180.595 1023.27 182.798C1022.56 182.672 1022.46 182.59 1021.81 182.295C1021.06 180.477 1021.34 177.327 1021.39 175.247Z" fill="white"/>
<path d="M416.397 174.945C417.251 175.082 417.278 175.034 418.006 175.561C418.592 177.506 418.339 180.086 418.346 182.245C417.487 182.088 417.481 182.125 416.705 181.634C415.984 179.86 416.321 176.944 416.397 174.945Z" fill="white"/>
<path d="M927.344 175.233C928.21 175.396 928.283 175.343 928.974 175.918C929.63 177.648 929.484 180.317 929.494 182.242C928.648 182.191 928.468 182.243 927.782 181.716C927.033 179.897 927.32 177.29 927.344 175.233Z" fill="white"/>
<path d="M937.747 175.319C938.598 175.455 938.598 175.494 939.318 175.887C940.013 177.722 939.585 180.433 939.444 182.469C938.311 182.14 938.647 182.39 937.864 181.599C937.319 179.735 937.625 177.307 937.747 175.319Z" fill="white"/>
<path d="M413.471 174.936C414.297 175.079 414.254 175.071 414.987 175.484C415.625 177.288 415.297 180.147 415.22 182.152C414.62 182.086 414.335 181.911 413.781 181.668C413.04 179.871 413.389 176.987 413.471 174.936Z" fill="white"/>
<path d="M913.863 174.971C914.666 175.11 914.792 175.062 915.449 175.563C916.018 177.351 915.692 180.207 915.629 182.212C914.821 182.134 914.875 182.148 914.184 181.721C913.518 179.897 913.815 177.006 913.863 174.971Z" fill="white"/>
<path d="M932.349 175.241C933.146 175.438 933.175 175.486 933.866 175.868C934.668 177.655 934.352 180.387 934.284 182.415C933.579 182.271 933.491 182.201 932.835 181.891C932.067 180.078 932.329 177.3 932.349 175.241Z" fill="white"/>
<path d="M942.489 175.315L943.452 175.569C944.808 177.019 944.405 180.297 944.38 182.423L943.072 182.016C942.104 180.534 942.416 177.155 942.489 175.315Z" fill="white"/>
<path d="M1041.06 175.21C1041.47 175.346 1041.94 175.567 1042.35 175.738C1043.06 177.326 1042.83 180.425 1042.82 182.25C1041.94 182.546 1042.37 182.523 1041.47 182.339C1040.73 180.947 1041.01 176.968 1041.06 175.21Z" fill="white"/>
<path d="M922.612 175.339C923.76 175.577 923.527 175.367 924.305 176.051C924.927 177.827 924.528 180.375 924.373 182.321L923.473 182.087C922.238 180.679 922.593 177.33 922.612 175.339Z" fill="white"/>
<path d="M860.834 210.423C863.168 210.048 873.138 210.038 875.317 210.502C873.211 211.375 862.502 211.55 860.834 210.423Z" fill="white"/>
<path d="M917.783 175.194C918.551 175.395 918.503 175.386 919.13 175.882C919.787 177.81 919.68 180.243 919.714 182.317C919.013 182.172 918.936 182.115 918.279 181.808C917.428 180.088 917.73 177.221 917.783 175.194Z" fill="white"/>
<path d="M364.119 213.707C366.274 213.362 377.947 213.105 379.684 213.954C377.697 214.403 365.991 214.627 364.119 213.707Z" fill="white"/>
<path d="M645.429 240.337C646.171 241.551 646.407 246.711 644.925 247.706C644.811 245.62 643.821 243.568 644.118 241.556C644.223 240.844 644.631 240.828 645.429 240.337Z" fill="white"/>
<path d="M369.654 202.851C370.707 202.844 370.8 202.851 371.81 203.123C372.543 204.431 372.247 205.107 372.219 206.803C371.126 206.807 371.137 206.821 370.096 206.517C369.376 205.313 369.654 204.453 369.654 202.851Z" fill="white"/>
<path d="M373.036 202.699C374.013 202.797 374.144 202.834 375.091 203.114C375.856 204.46 375.535 205.268 375.494 207.034C374.468 206.896 374.295 206.916 373.392 206.457C372.699 205.432 372.972 204.035 373.036 202.699Z" fill="white"/>
<path d="M359.887 202.707C360.877 202.791 361.045 202.775 361.954 203.132C362.699 204.452 362.397 205.321 362.377 207.04C361.35 206.907 361.168 206.929 360.263 206.474C359.553 205.436 359.825 204.061 359.887 202.707Z" fill="white"/>
<path d="M947.658 175.297C948.329 175.619 948.13 175.515 948.699 176.028C949.2 178.204 948.937 180.223 948.733 182.436L947.921 181.727C947.196 179.371 947.371 177.728 947.658 175.297Z" fill="white"/>
<path d="M366.744 202.594C367.37 202.769 367.692 202.904 368.287 203.136C369.032 204.332 368.725 205.751 368.63 207.249C367.762 206.995 367.631 206.93 366.816 206.519C366.168 205.385 366.565 203.99 366.744 202.594Z" fill="white"/>
<path d="M363.386 202.647C363.969 202.753 364.49 202.925 365.056 203.094C365.831 204.471 365.537 205.061 365.526 206.835C364.609 206.793 364.592 206.761 363.762 206.489C363.037 205.425 363.318 204.033 363.386 202.647Z" fill="white"/>
<path d="M409.468 203.066C410.134 203.142 410.784 203.249 411.446 203.35C412.273 204.359 411.989 204.973 412.034 206.557C411.332 206.439 410.678 206.274 409.986 206.108C409.184 204.987 409.47 204.693 409.468 203.066Z" fill="white"/>
<path d="M861.189 236.684C865.736 236.435 870.352 236.265 874.889 236.7C868.829 237.317 867.375 237.41 861.189 236.684Z" fill="white"/>
<path d="M586.469 253.959C587.521 255.131 588.198 256.305 588.287 257.89L587.806 257.735C586.631 256.776 585.863 256.502 584.817 255.287L584.943 254.655L586.469 253.959Z" fill="white"/>
<path d="M865.902 243.596C867.122 243.381 873.129 243.364 873.805 244.066L871.49 244.226C868.63 244.225 865.197 244.321 862.395 244.028C863.164 243.724 864.987 243.664 865.902 243.596Z" fill="white"/>
<path d="M415.783 203.012C416.503 203.097 417.092 203.215 417.797 203.355C418.533 204.349 418.296 204.968 418.357 206.418C417.498 206.337 417.228 206.278 416.381 206.076C415.664 205.01 415.874 204.463 415.783 203.012Z" fill="white"/>
<path d="M526.307 218.451C528.715 218.11 534.596 218.098 536.837 218.87C534.102 219.073 529.382 219.141 526.7 218.939L526.307 218.451Z" fill="white"/>
<path d="M989.439 204.625C991.943 204.299 993.607 204.353 996.077 204.824L995.96 205.083L993.631 205.324C991.613 205.358 989.594 205.319 987.576 205.207L987.42 204.931L989.439 204.625Z" fill="white"/>
<path d="M1014.66 204.587C1016.86 204.294 1020.18 204.165 1022.32 204.673C1020.13 204.969 1016.51 205.669 1014.66 204.587Z" fill="white"/>
<path d="M778.254 224.659C780.651 224.349 781.357 224.05 783.226 225.418C781.294 225.159 780.246 225.552 778.254 224.659Z" fill="white"/>
<path d="M794.614 135.828C793.976 122.678 793.894 106.629 793.756 93.4872C793.509 70.0238 792.557 34.8171 797.907 12.2733C801.237 28.4345 801.766 44.6205 802.214 61.0515C802.664 82.3829 802.694 103.721 802.303 125.053C801.305 121.266 801.224 114.253 800.875 110.07L798.171 74.6488C797.367 74.9868 797.637 74.8205 797.171 75.8622C795.759 94.5814 796.53 114.267 795.284 132.673C795.016 133.74 794.725 134.734 794.614 135.828Z" fill="#B31FDF"/>
<path d="M797.171 75.8622C797.146 74.2505 796.993 68.4841 797.56 67.3223C797.866 69.946 798.094 71.992 798.171 74.6488C797.367 74.9868 797.637 74.8205 797.171 75.8622Z" fill="white"/>
<path d="M794.232 239.835L794.984 241.57L795.713 305.652C795.82 318.932 796.729 337.704 794.27 350.575C791.889 331.422 793.113 313.229 793.215 294.067C793.312 276.009 794.264 257.854 794.232 239.835Z" fill="#B31FDF"/>
<path d="M358 221.065C362.324 221.19 366.419 221.307 370.74 221.654L370.723 221.909L371.398 221.855L370.691 221.731L370.594 221.999C366.21 222.294 362.377 222.311 358 222.311C358 222.311 352.898 222.302 353.5 221.5C354 220.834 358 221.065 358 221.065Z" fill="#B31FDF"/>
<path d="M1111.55 202.039C1115.87 202.164 1119.97 202.281 1124.29 202.628L1124.27 202.883L1124.95 202.829L1124.24 202.705L1124.14 202.973C1119.76 203.268 1115.93 203.285 1111.55 203.285C1111.55 203.285 1106.45 203.276 1107.05 202.474C1107.55 201.808 1111.55 202.039 1111.55 202.039Z" fill="#B31FDF"/>
<path d="M358 218.62C360.629 218.43 371.519 217.799 373.291 219.141C369.305 219.909 362.123 218.932 358 218.877V218.62Z" fill="#B31FDF"/>
<path d="M1087 206.315C1089.63 206.124 1100.52 205.494 1102.29 206.835C1098.3 207.603 1091.12 206.626 1087 206.572V206.315Z" fill="#B31FDF"/>
<path d="M335 212.279C336.203 212.11 341.189 211.552 342 212.74C340.175 213.421 336.888 212.555 335 212.507V212.279Z" fill="#B31FDF"/>
<path d="M1111 197.279C1112.2 197.11 1117.19 196.552 1118 197.74C1116.18 198.421 1112.89 197.555 1111 197.507V197.279Z" fill="#B31FDF"/>
<path d="M319 198.279C320.203 198.11 325.189 197.552 326 198.74C324.175 199.421 320.888 198.555 319 198.507V198.279Z" fill="#B31FDF"/>
<path d="M1072 210.279C1073.2 210.11 1078.19 209.552 1079 210.74C1077.18 211.421 1073.89 210.555 1072 210.507V210.279Z" fill="#B31FDF"/>
<path d="M312 192.139C312.516 192.055 314.652 191.776 315 192.37C314.218 192.71 312.809 192.277 312 192.253V192.139Z" fill="#B31FDF"/>
<path d="M1117 192.37C1117.52 192.286 1119.65 192.007 1120 192.601C1119.22 192.941 1117.81 192.508 1117 192.484V192.37Z" fill="#B31FDF"/>
<path d="M343 217.279C344.203 217.11 349.189 216.552 350 217.74C348.175 218.421 344.888 217.555 343 217.507V217.279Z" fill="#B31FDF"/>
<path d="M1128 195.279C1129.2 195.11 1134.19 194.552 1135 195.74C1133.18 196.421 1129.89 195.555 1128 195.507V195.279Z" fill="#B31FDF"/>
<path d="M626.875 227.088C630.452 227.099 632.971 227.242 636.536 227.577C635.122 228.182 628.306 228.144 626.484 228.142L626.875 227.088Z" fill="#B31FDF"/>
<path d="M924.674 215.086C926.488 215.216 929.056 215.301 930.749 215.776L929.995 215.649L929.65 215.953C924.767 216.18 918.352 216.198 913.411 216.042C916.723 215.372 920.93 216.061 924.451 215.548L924.674 215.086Z" fill="#B31FDF"/>
<path d="M520.695 348.476C520.68 351.753 520.757 354.898 520.282 358.143C519.782 357.214 519.923 351.934 519.966 350.791L520.695 348.476Z" fill="#B31FDF"/>
<path d="M794.193 231.733L794.984 231.828C794.859 235.157 794.92 238.24 794.984 241.57L794.232 239.836L794.193 231.733Z" fill="white"/>
<path d="M519.99 -0.428133C519.887 -2.96239 519.85 -4.1004 520.161 -6.59088C520.751 -5.92607 520.683 2.15087 520.633 3.53058C520.381 2.47865 520.161 0.698689 519.99 -0.428133Z" fill="white"/>
<path d="M1005.15 113.267C1005.12 111.976 1004.92 108.862 1005.45 107.812C1005.97 109.265 1005.84 111.641 1005.85 113.26L1005.15 113.267Z" fill="#B31FDF"/>
<path d="M868.105 106.026C872.258 106.079 875.648 108.118 878.055 111.435C879.738 113.757 883.424 121.69 883.02 124.302C881.25 124.651 872.452 124.719 869.792 124.856C866.437 124.918 857.503 124.842 854.424 124.37C853.437 123.574 853.646 123.969 853.345 122.873C853.739 121.681 854.896 121.04 854.92 120.946C857.084 113.369 858.898 107.205 868.105 106.026Z" fill="#B31FDF"/>
<path d="M868.231 252.37C871.733 252.152 883.234 251.771 884.489 255.651C883.701 258.05 882.179 258.136 880.059 258.596C881.08 259.892 882.588 259.674 881.858 261.755C879.767 263.835 875.191 264.207 872.122 264.836C873.853 265.282 876.066 265.427 876.615 267.244C875.492 269.129 870.887 269.307 868.912 269.463C866.675 269.393 858.188 268.543 858.787 265.327C859.837 264.166 861.427 263.852 862.979 263.336C861.719 263.246 860.464 263.093 859.219 262.877C857.848 262.631 854.303 261.698 853.622 260.391C852.887 258.98 854.526 258.72 854.804 257.308C852.936 256.484 852.878 256.87 851.837 255.452C852.027 251.54 865.269 252.41 868.231 252.37Z" fill="#B31FDF"/>
<path d="M587.027 284.182C590.56 284.43 594.099 284.592 597.639 284.67C596.43 285.236 595.36 285.447 594.072 285.77C592.378 286.213 588.021 286.914 587.128 287.905L587.027 284.182Z" fill="#B31FDF"/>
</g>
<path d="M323 111L326 105.804L332 105.804L335 111L332 116.196L326 116.196L323 111Z" fill="#B31FDF"/>
<path d="M425 142L429.5 134.206L438.5 134.206L443 142L438.5 149.794L429.5 149.794L425 142Z" fill="#B31FDF"/>
<path d="M155 106L158 100.804L164 100.804L167 106L164 111.196L158 111.196L155 106Z" fill="#B31FDF"/>
<path d="M90.0001 186.5L104.75 160.952L134.25 160.952L149 186.5L134.25 212.048L104.75 212.048L90.0001 186.5Z" fill="#B31FDF"/>
<path d="M134 161.5L148.75 135.952L178.25 135.952L193 161.5L178.25 187.048L148.75 187.048L134 161.5Z" fill="#B31FDF"/>
<path d="M91.0001 136.5L105.75 110.952L135.25 110.952L150 136.5L135.25 162.048L105.75 162.048L91.0001 136.5Z" fill="#B31FDF"/>
<path d="M31 162.5L45.75 136.952L75.25 136.952L90 162.5L75.25 188.048L45.75 188.048L31 162.5Z" fill="#B31FDF"/>
<path d="M277 187.5L286.25 171.479L304.75 171.479L314 187.5L304.75 203.521L286.25 203.521L277 187.5Z" fill="#B31FDF"/>
<path d="M178 186.5L192.75 160.952L222.25 160.952L237 186.5L222.25 212.048L192.75 212.048L178 186.5Z" fill="#B31FDF"/>
<path d="M146 212L154.5 197.278L171.5 197.278L180 212L171.5 226.722L154.5 226.722L146 212Z" fill="#B31FDF"/>
<path d="M-7.43094e-07 188L8.5 173.278L25.5 173.278L34 188L25.5 202.722L8.5 202.722L-7.43094e-07 188Z" fill="#B31FDF"/>
<path d="M233 164L241.5 149.278L258.5 149.278L267 164L258.5 178.722L241.5 178.722L233 164Z" fill="#B31FDF"/>
<path d="M258 149L266.5 134.278L283.5 134.278L292 149L283.5 163.722L266.5 163.722L258 149Z" fill="#B31FDF"/>
<path d="M192 145L198 134.608L210 134.608L216 145L210 155.392L198 155.392L192 145Z" fill="#B31FDF"/>
<path d="M49 215L55 204.608L67 204.608L73 215L67 225.392L55 225.392L49 215Z" fill="#B31FDF"/>
<path d="M280 232L286 221.608L298 221.608L304 232L298 242.392L286 242.392L280 232Z" fill="#B31FDF"/>
<path d="M221 211.5L235.75 185.952L265.25 185.952L280 211.5L265.25 237.048L235.75 237.048L221 211.5Z" fill="#B31FDF"/>
<path d="M1274 107L1277 101.804L1283 101.804L1286 107L1283 112.196L1277 112.196L1274 107Z" fill="#B31FDF"/>
<path d="M1066 125L1069 119.804L1075 119.804L1078 125L1075 130.196L1069 130.196L1066 125Z" fill="#B31FDF"/>
<path d="M1131 235L1133.5 230.67L1138.5 230.67L1141 235L1138.5 239.33L1133.5 239.33L1131 235Z" fill="#B31FDF"/>
<path d="M1020 60.5L1024.75 52.2728L1034.25 52.2728L1039 60.5L1034.25 68.7272L1024.75 68.7272L1020 60.5Z" fill="#B31FDF"/>
<path d="M1135 81L1141.5 69.7417L1154.5 69.7417L1161 81L1154.5 92.2583L1141.5 92.2583L1135 81Z" fill="#B31FDF"/>
<path d="M1209 187.5L1223.75 161.952L1253.25 161.952L1268 187.5L1253.25 213.048L1223.75 213.048L1209 187.5Z" fill="#B31FDF"/>
<path d="M1253 162.5L1267.75 136.952L1297.25 136.952L1312 162.5L1297.25 188.048L1267.75 188.048L1253 162.5Z" fill="#B31FDF"/>
<path d="M1210 137.5L1224.75 111.952L1254.25 111.952L1269 137.5L1254.25 163.048L1224.75 163.048L1210 137.5Z" fill="#B31FDF"/>
<path d="M1150 163.5L1164.75 137.952L1194.25 137.952L1209 163.5L1194.25 189.048L1164.75 189.048L1150 163.5Z" fill="#B31FDF"/>
<path d="M1297 187.5L1311.75 161.952L1341.25 161.952L1356 187.5L1341.25 213.048L1311.75 213.048L1297 187.5Z" fill="#B31FDF"/>
<path d="M1265 213L1273.5 198.278L1290.5 198.278L1299 213L1290.5 227.722L1273.5 227.722L1265 213Z" fill="#B31FDF"/>
<path d="M1119 189L1127.5 174.278L1144.5 174.278L1153 189L1144.5 203.722L1127.5 203.722L1119 189Z" fill="#B31FDF"/>
<path d="M1353 168L1361.5 153.278L1378.5 153.278L1387 168L1378.5 182.722L1361.5 182.722L1353 168Z" fill="#B31FDF"/>
<path d="M1311 146L1317 135.608L1329 135.608L1335 146L1329 156.392L1317 156.392L1311 146Z" fill="#B31FDF"/>
<path d="M1168 216L1174 205.608L1186 205.608L1192 216L1186 226.392L1174 226.392L1168 216Z" fill="#B31FDF"/>
<path d="M1399 233L1405 222.608L1417 222.608L1423 233L1417 243.392L1405 243.392L1399 233Z" fill="#B31FDF"/>
<path d="M1491 245L1497 234.608L1509 234.608L1515 245L1509 255.392L1497 255.392L1491 245Z" fill="#B31FDF"/>
<path d="M1529 166L1535 155.608L1547 155.608L1553 166L1547 176.392L1535 176.392L1529 166Z" fill="#B31FDF"/>
<path d="M1568 146L1571.5 139.938L1578.5 139.938L1582 146L1578.5 152.062L1571.5 152.062L1568 146Z" fill="#B31FDF"/>
<path d="M1341 213.5L1355.75 187.952L1385.25 187.952L1400 213.5L1385.25 239.048L1355.75 239.048L1341 213.5Z" fill="#B31FDF"/>
<path d="M1385 188.5L1399.75 162.952L1429.25 162.952L1444 188.5L1429.25 214.048L1399.75 214.048L1385 188.5Z" fill="#B31FDF"/>
<path d="M1429 163.5L1443.75 137.952L1473.25 137.952L1488 163.5L1473.25 189.048L1443.75 189.048L1429 163.5Z" fill="#B31FDF"/>
<path d="M1473 188.5L1487.75 162.952L1517.25 162.952L1532 188.5L1517.25 214.048L1487.75 214.048L1473 188.5Z" fill="#B31FDF"/>
<path d="M1486 137.5L1494.75 122.345L1512.25 122.345L1521 137.5L1512.25 152.655L1494.75 152.655L1486 137.5Z" fill="#B31FDF"/>
<path d="M1512 122.5L1520.75 107.345L1538.25 107.345L1547 122.5L1538.25 137.655L1520.75 137.655L1512 122.5Z" fill="#B31FDF"/>
<path d="M1532 216.5L1540.75 201.345L1558.25 201.345L1567 216.5L1558.25 231.655L1540.75 231.655L1532 216.5Z" fill="#B31FDF"/>
<path d="M1600 186.5L1608.75 171.345L1626.25 171.345L1635 186.5L1626.25 201.655L1608.75 201.655L1600 186.5Z" fill="#B31FDF"/>
<path d="M1558 201.5L1566.75 186.345L1584.25 186.345L1593 201.5L1584.25 216.655L1566.75 216.655L1558 201.5Z" fill="#B31FDF"/>
<path d="M1435 217.5L1446.75 197.148L1470.25 197.148L1482 217.5L1470.25 237.852L1446.75 237.852L1435 217.5Z" fill="#B31FDF"/>
<path d="M1443 112.5L1450.25 99.9426L1464.75 99.9426L1472 112.5L1464.75 125.057L1450.25 125.057L1443 112.5Z" fill="#B31FDF"/>
<path d="M1385 138.5L1399.75 112.952L1429.25 112.952L1444 138.5L1429.25 164.048L1399.75 164.048L1385 138.5Z" fill="#B31FDF"/>
<defs>
<clipPath id="clip0_30_157">
<rect width="842" height="358" fill="white" transform="translate(298)"/>
</clipPath>
</defs>
</svg>
